<svg width="24" height="17" viewBox="0 0 24 17" fill="none" xmlns="http://www.w3.org/2000/svg">
<path d="M19.0153 0.00121707H4.98472C2.2308 0.00121707 0 2.23454 0 4.98998V12.01C0 14.7655 2.232 17 4.98472 17H19.0153C21.7692 17 24 14.7655 24 12.01V4.98998C24 2.23454 21.768 0 19.0153 0V0.00121707ZM15.6444 8.84078L9.08193 11.9747C9.0419 11.9942 8.99765 12.0032 8.95329 12.0007C8.90893 11.9983 8.8659 11.9845 8.82822 11.9607C8.79053 11.9369 8.75941 11.9038 8.73775 11.8646C8.71608 11.8253 8.70458 11.7811 8.70431 11.7362V5.27477C8.70512 5.22959 8.71721 5.18534 8.73946 5.14616C8.76171 5.10697 8.7934 5.07413 8.83157 5.05068C8.86975 5.02723 8.91316 5.01395 8.95778 5.01206C9.0024 5.01017 9.04676 5.01974 9.08674 5.03988L15.6504 8.36856C15.6942 8.39062 15.7308 8.42472 15.7563 8.46693C15.7817 8.50914 15.7949 8.55775 15.7942 8.60719C15.7936 8.65662 15.7792 8.70488 15.7527 8.74641C15.7262 8.78795 15.6887 8.82107 15.6444 8.842V8.84078Z" fill="#1B073A"/>
</svg>
