<svg width="24" height="24" viewBox="0 0 24 24" fill="none" xmlns="http://www.w3.org/2000/svg">
<path d="M15.5671 6.99725C14.2715 4.90085 13.8063 2.82005 13.8019 2.80005L12.3303 3.12604C12.3507 3.21964 12.8439 5.44884 14.2647 7.76404C15.1099 9.14244 16.1119 10.2668 17.2399 11.1064C17.3655 11.1996 17.4927 11.2896 17.6215 11.3756H1.59961V12.8988H17.6223C17.4935 12.9856 17.3663 13.0756 17.2399 13.1688C16.1111 14.0084 15.1099 15.1332 14.2639 16.5112C12.8439 18.8264 12.3499 21.0556 12.3303 21.1492L13.8003 21.476C13.8047 21.4552 14.2699 19.3745 15.5659 17.2781C16.3099 16.0745 17.1791 15.1 18.1503 14.382C19.3423 13.5004 20.7019 13.0008 22.1899 12.8976V11.3792C20.7019 11.276 19.3423 10.7764 18.1503 9.89485C17.1799 9.17525 16.3111 8.20085 15.5671 6.99725Z" fill="white"/>
</svg>
