<svg width="228" height="77" viewBox="0 0 228 77" fill="none" xmlns="http://www.w3.org/2000/svg">
<path fill-rule="evenodd" clip-rule="evenodd" d="M205.951 1.17447C209.778 0.697971 213.653 -0.00124507 217.526 4.52435e-05C220.489 -0.00396688 223.508 0.202306 224.168 3.15763C224.855 6.23972 224.981 9.50744 225.378 12.6284C226.246 19.4558 227.11 26.2863 227.98 33.1136C228.192 34.8165 216.116 35.9049 215.893 34.1532C215.848 33.8041 215.803 33.4544 215.759 33.1052C215.525 33.1387 215.365 33.1662 215.307 33.1712C213.891 33.2931 210.03 33.8309 209.134 32.5105C205.37 26.9768 201.504 21.3329 196.231 16.8443C184.302 23.4739 172.375 30.1061 160.358 36.6124C141.957 46.5763 123.341 56.2473 104.241 65.1265C91.9867 70.8251 79.2495 76.7131 64.9861 76.3572C60.2706 76.2412 54.8373 75.3051 53.4695 70.6638C52.225 66.4469 54.2649 62.0951 55.7935 58.1712C57.7819 53.073 59.9032 47.904 60.7648 42.5404C61.1164 40.3564 61.3069 38.0272 60.656 35.8697C60.4559 35.2075 60.0833 34.3956 59.5538 33.6899C59.1265 33.904 58.6983 34.1161 58.2652 34.3159C56.053 35.3343 53.8356 36.3552 51.6191 37.376C47.1857 39.4116 42.7572 41.4511 38.3222 43.4928C29.3106 47.6403 20.2981 51.7881 11.2839 55.9318L11.2695 55.9409C8.92686 57.0183 5.60862 57.158 3.04707 57.0758C2.33348 57.0575 -1.56506 56.6951 0.699043 55.6525C13.6994 49.6728 26.7024 43.6906 39.7022 37.707C46.1934 34.718 52.9595 30.4817 60.3593 29.7673C64.5762 29.3648 69.6473 29.4457 71.9603 33.1244C74.9018 37.7906 72.3602 44.6557 70.7789 49.3506C69.0858 54.3773 66.2046 59.432 65.3925 64.6535C65.0238 67.0301 64.9768 70.0406 66.8334 71.9971C67.5565 72.759 68.5404 73.289 69.5879 73.609C70.1386 73.7746 70.265 73.7408 70.4507 73.7603L70.5158 73.7547C69.9479 73.572 70.5686 73.6775 70.5988 73.7515C70.6735 73.7386 70.748 73.7284 70.8182 73.7131C69.5604 73.9746 71.8919 73.4875 72.1702 73.4258C73.1111 73.2197 72.5709 73.3342 72.3695 73.3834C72.7539 73.2866 73.1449 73.1803 73.5307 73.0755C74.221 72.8848 74.9103 72.6861 75.5938 72.4742C78.0674 71.712 80.4037 70.8168 82.8639 69.7473C120.526 53.389 155.932 33.1815 191.432 13.3766C185.683 9.95578 178.769 8.34453 171.828 8.83368C171.278 8.87304 165.793 9.42473 165.655 8.17486C165.59 7.58305 166.725 7.18529 168.026 6.92302C167.96 5.88668 171.41 5.50053 172.194 5.40384C179.698 4.46581 187.195 3.52171 194.698 2.58368C198.449 2.11171 202.2 1.64643 205.951 1.17447ZM212.548 7.7945C209.747 9.34194 206.949 10.8934 204.151 12.4458C208.147 15.065 211.429 18.3876 214.344 21.9742C214.106 20.0958 213.868 18.2174 213.629 16.3393C213.274 13.521 212.915 10.6974 212.557 7.87732C212.554 7.84983 212.552 7.82216 212.548 7.7945ZM209.732 3.23468C201.279 4.46213 192.743 5.39076 184.236 6.37448C189.162 6.7218 194.007 7.62175 198.475 9.45409C202.224 7.3716 205.975 5.29691 209.732 3.23468Z" fill="#F6ED50"/>
</svg>
