<svg width="105" height="89" viewBox="0 0 105 89" fill="none" xmlns="http://www.w3.org/2000/svg">
<path fill-rule="evenodd" clip-rule="evenodd" d="M79.6671 88.3106C80.5122 88.5855 82.258 89.2302 83.1473 88.7527C90.3472 84.8857 97.5479 81.0209 104.75 77.1545C105.472 76.7661 103.099 75.7609 102.839 75.6686C101.862 75.3177 99.9655 74.5558 98.9563 75.0983C98.825 75.1688 98.694 75.2397 98.5628 75.3102C98.4945 75.3154 98.4266 75.32 98.3593 75.3286C95.6301 75.6725 92.8868 75.6258 90.2597 74.9495C93.3985 65.353 95.1179 55.266 93.6022 45.1153C91.9618 34.1402 86.6119 24.0943 77.4172 18.437C72.3334 15.3068 66.2885 13.4074 60.4093 13.1796C55.1814 12.9771 50.3493 14.5026 45.8685 17.3197C41.4359 20.1033 37.4773 23.6919 32.876 26.1843C28.7549 28.4163 23.4736 29.8829 18.9693 28.2744C9.20564 24.785 4.50901 12.1408 6.64887 2.04866L6.64705 2.04189C6.88993 0.898661 0.745626 -0.667936 0.538519 0.304967C-0.692723 6.12125 0.222676 12.3255 2.95684 17.5232C5.96816 23.2502 11.0484 26.996 16.7989 29.1124C22.2778 31.1312 28.3755 31.8746 34.0221 30.2043C38.9538 28.7455 43.1308 25.4387 47.2878 22.3963C51.5738 19.2587 56.1045 16.2231 61.385 15.5585C66 14.9775 69.931 16.1481 73.7894 18.8544C82.7383 25.1267 87.1816 36.425 87.9367 47.476C88.517 55.9439 87.0054 64.2688 84.4703 72.2607C81.8856 70.546 79.5926 68.352 77.6639 65.8424L77.6666 65.8407C77.663 65.8359 77.6584 65.832 77.6547 65.8273C77.5983 65.6726 77.4316 65.5366 77.231 65.418C76.3546 64.7483 74.9499 64.4708 74.0362 64.2745C74.0282 64.2728 74.0099 64.2714 73.9839 64.2672C73.601 64.1829 72.085 63.8485 71.7301 64.2239C71.5994 64.2873 71.561 64.3874 71.674 64.5392C71.675 64.5428 71.6761 64.5465 71.6772 64.5501C73.9033 71.8744 75.7414 79.3179 77.1966 86.8568C77.3621 87.7242 78.9988 88.095 79.6671 88.3106ZM81.5494 80.3437C80.8761 77.4485 80.1464 74.569 79.3597 71.7064C80.7822 72.6625 82.2754 73.5106 83.8188 74.2495C83.1195 76.3056 82.356 78.3377 81.5494 80.3437ZM88.1136 80.9188C88.6861 79.4509 89.2321 77.9685 89.7466 76.4738C91.3226 76.9143 92.9228 77.2505 94.5319 77.4732C92.3926 78.6219 90.2531 79.7703 88.1136 80.9188Z" fill="#F6ED50"/>
</svg>
