<svg width="120" height="210" viewBox="0 0 120 210" fill="none" xmlns="http://www.w3.org/2000/svg">
<path fill-rule="evenodd" clip-rule="evenodd" d="M60.4623 53.0545C61.8618 53.1231 63.8358 53.1575 64.8765 53.1575C66.168 53.1231 66.7421 53.2607 66.7424 53.5694C66.7424 53.9125 66.8144 53.9129 67.0655 53.5356C67.3167 53.1924 67.64 53.158 68.573 53.4326C69.2549 53.6385 70.5111 53.844 71.4081 53.8783C72.3051 53.9127 73.2024 54.0843 73.3818 54.1873C73.5975 54.3246 74.7814 54.6334 76.073 54.8736C77.3645 55.1138 78.6559 55.5256 78.9435 55.7659C79.2302 56.0058 79.5531 56.1774 79.6611 56.1778C80.6659 56.0405 87.1973 58.8204 89.207 60.2618C89.817 60.7079 90.5704 61.051 90.8576 61.0511C91.1447 61.0511 91.5756 61.4288 91.8268 61.875C92.078 62.3211 92.9391 63.0079 93.6927 63.4197C94.446 63.8314 95.0921 64.3457 95.0926 64.5518C95.0926 64.7234 95.3439 64.8266 95.631 64.6894C95.9179 64.5866 96.1685 64.655 96.1686 64.8608C96.1686 65.2038 98.8227 67.914 99.1829 67.9157C99.3264 67.9157 101.803 70.2838 103.884 72.4116C104.171 72.7204 104.422 73.1317 104.422 73.3377C104.422 73.578 104.71 73.7497 105.068 73.7497C105.571 73.7497 105.606 73.8186 105.14 74.0932C104.71 74.3333 104.746 74.4361 105.284 74.6419C106.109 74.9508 107.903 76.7702 108.19 77.5939C108.334 77.9372 109.052 78.8636 109.841 79.6528C110.594 80.4419 111.24 81.3683 111.241 81.7117C111.241 82.0549 111.564 82.604 111.958 82.913C112.353 83.2561 112.676 83.7025 112.676 83.9428C112.676 84.1829 112.784 84.3891 112.963 84.3893C113.214 84.3893 114.542 87.0313 115.009 88.5071C115.152 88.9876 115.512 89.6741 115.763 90.0173C116.014 90.3948 116.121 91.0816 116.013 91.6651C115.87 92.3854 115.942 92.6257 116.3 92.5573C116.587 92.4887 116.839 92.7973 116.911 93.2091C116.983 93.6552 116.875 93.9984 116.66 93.9984C116.444 93.9984 116.265 94.2388 116.265 94.5133C116.265 94.7877 116.444 95.0279 116.623 95.0282C116.839 95.0282 116.983 94.8565 116.983 94.6163C116.983 94.4104 117.09 94.3419 117.198 94.4449C117.341 94.5822 117.27 94.8912 117.019 95.1658C116.696 95.5432 116.731 95.7488 117.162 96.1948C117.485 96.5037 117.664 96.8817 117.556 97.0533C117.449 97.2248 117.593 97.431 117.879 97.5682C118.166 97.6712 118.418 98.1856 118.418 98.7003C118.418 99.318 118.31 99.5241 118.131 99.2152C117.952 98.9407 117.844 99.2496 117.844 100.004C117.88 101.206 118.203 101.583 118.526 100.76C118.597 100.554 118.813 100.794 118.956 101.343C119.136 101.995 119.1 102.407 118.777 102.578C118.49 102.75 118.418 103.093 118.597 103.471C119.028 104.466 119.028 106.697 118.633 106.697C118.418 106.697 118.49 106.834 118.777 107.006C119.064 107.212 119.387 107.28 119.531 107.177C119.854 107.008 120.141 109.684 119.925 110.747C119.818 111.262 119.566 111.467 119.279 111.364C118.92 111.227 118.777 111.433 118.812 112.12C118.812 112.635 118.741 113.973 118.669 115.105C118.49 116.993 118.526 117.096 118.956 116.169L119.387 115.174L119.566 116.41C119.638 117.096 119.566 117.679 119.387 117.679C119.208 117.679 119.136 117.988 119.243 118.366C119.351 118.812 119.172 119.224 118.777 119.498C118.059 119.979 117.808 120.974 118.239 121.866C118.382 122.21 118.418 122.725 118.275 122.999C118.167 123.274 118.239 123.514 118.454 123.514C118.669 123.514 118.705 123.685 118.597 123.857C118.453 124.063 118.202 124.097 117.987 123.994C117.772 123.857 117.808 124.097 118.059 124.543C118.454 125.229 118.418 125.264 117.736 124.887C116.911 124.475 116.731 124.853 117.413 125.505C117.736 125.813 117.628 125.916 116.911 125.917C115.655 125.917 115.296 126.534 116.373 126.774C117.162 126.98 117.198 127.083 116.839 127.838C116.408 128.73 115.798 129.005 116.121 128.147C116.265 127.872 116.193 127.632 116.05 127.632C115.655 127.632 114.111 130.756 114.111 131.511C114.111 131.819 113.968 132.128 113.753 132.265C113.574 132.368 113.501 132.678 113.609 132.918C113.824 133.467 112.856 134.496 112.066 134.496C111.671 134.496 111.564 134.702 111.743 135.354C111.887 135.834 111.815 136.212 111.6 136.213C111.421 136.213 111.169 136.59 111.026 137.07C110.918 137.551 110.666 137.928 110.451 137.928C110.271 137.929 109.877 138.478 109.59 139.129C109.303 139.815 108.945 140.296 108.765 140.194C108.621 140.091 108.155 140.228 107.796 140.503C107.258 140.88 107.186 141.052 107.58 141.395C108.19 142.013 108.119 142.561 107.509 142.047C107.078 141.738 106.898 141.806 106.504 142.356C106.253 142.767 105.858 143.076 105.607 143.076C105.392 143.076 105.068 143.385 104.961 143.763C104.853 144.14 104.566 144.449 104.351 144.449C104.136 144.449 104.028 144.552 104.135 144.655C104.243 144.758 103.238 145.925 101.91 147.297C100.583 148.67 99.0397 150.284 98.5014 150.867C97.9632 151.485 97.3171 151.999 97.0301 151.999C96.743 151.999 96.5278 152.24 96.5278 152.549C96.5278 152.995 96.2765 153.063 95.2718 152.891C94.4823 152.754 94.0158 152.789 94.0158 153.029C94.0158 153.201 93.7644 153.373 93.4773 153.373C92.8315 153.373 92.8316 153.544 93.2981 154.368C93.5491 154.848 93.3697 155.191 92.4728 156.015C90.3915 157.834 90.0322 158.005 89.7093 157.525C89.3863 157.01 88.6332 157.319 88.6332 157.937C88.6333 158.211 88.7404 158.211 88.9555 157.869C89.1349 157.628 89.3509 157.559 89.4585 157.731C89.5661 157.903 89.5299 158.246 89.3147 158.52C89.1353 158.795 88.9917 158.898 88.9917 158.726C88.9917 158.555 88.7403 158.624 88.4533 158.864C88.1662 159.07 87.7717 159.172 87.5564 159.035C87.377 158.932 87.1977 159.035 87.1619 159.276C87.1617 159.515 87.0538 159.447 86.9103 159.138C86.6591 158.589 86.5512 158.623 85.6182 159.378C85.0442 159.858 84.4706 160.236 84.3268 160.236C84.1832 160.236 84.1827 160.717 84.2545 161.335C84.3621 162.09 84.2546 162.535 83.7522 162.879C83.3935 163.119 83.3218 163.325 83.5368 163.325C83.788 163.325 83.9676 163.565 83.9676 163.84C83.9675 164.115 83.8242 164.355 83.6807 164.355C83.1783 164.355 83.4294 166.071 83.9676 166.414C84.47 166.723 84.3981 166.826 83.7522 166.723C83.4292 166.689 82.8915 167.512 82.8915 168.027C82.8917 168.233 83.2142 168.508 83.573 168.645C84.0753 168.782 84.2545 169.16 84.2545 169.846C84.2185 170.429 84.0395 170.875 83.7884 170.875C83.1424 170.875 83.2145 173.69 83.9322 174.205C84.4702 174.582 84.47 174.616 83.896 174.65C83.4655 174.65 83.25 174.925 83.25 175.371C83.25 175.886 83.4295 176.023 83.7884 175.886C84.2548 175.749 84.2905 175.817 83.9676 176.366C83.6805 176.881 83.681 177.053 84.0399 177.053C84.3265 177.053 84.2545 177.225 83.8599 177.431C83.3936 177.705 83.3222 177.911 83.6092 178.46C83.8244 178.837 83.8958 179.283 83.7884 179.455C83.6807 179.661 83.7166 179.799 83.896 179.799C84.3624 179.799 84.2188 180.828 83.6807 181.755C83.286 182.441 83.3218 182.544 83.8599 182.544C84.3263 182.544 84.3625 182.647 84.0399 182.956C83.5734 183.402 83.4295 184.397 83.896 184.157C84.0395 184.055 84.1476 184.364 84.1476 184.81C84.1475 185.256 84.0395 185.633 83.896 185.633C83.7166 185.633 83.6092 185.461 83.6092 185.255C83.609 185.084 83.4294 185.015 83.1784 185.152C82.9273 185.324 82.9987 185.53 83.4292 185.873C83.9315 186.182 83.9677 186.32 83.573 186.32C83.1783 186.354 83.2144 186.457 83.7168 186.8C84.3625 187.281 84.2188 188.345 83.4653 188.413C83.25 188.413 83.3936 188.551 83.7884 188.722C84.1829 188.894 84.2906 189.03 84.0037 189.03C83.6449 189.065 83.6092 189.168 83.9322 189.545C84.255 189.923 84.219 190.129 83.8245 190.541C83.3221 190.987 83.3221 191.09 83.8245 191.262C84.2549 191.433 84.3265 191.605 84.0037 191.948C83.7884 192.188 83.7169 192.497 83.8245 192.6C83.9674 192.704 83.7883 193.046 83.5015 193.355C83.1785 193.63 82.9985 194.11 83.1061 194.385C83.2496 194.694 83.1065 194.9 82.8554 194.9C82.6042 194.9 82.7476 195.277 83.25 195.757C84.0036 196.513 84.0395 196.753 83.6807 197.302C83.1066 198.194 83.1068 198.983 83.7168 198.228C84.0755 197.714 84.1473 197.783 84.2191 198.846C84.2909 199.498 84.3621 200.151 84.3621 200.288C84.6133 201.832 84.3266 202.073 80.5587 203.48C79.9845 203.686 78.872 204.338 78.1543 204.955C77.0061 205.882 76.7909 206.294 76.7191 207.598C76.6114 209.142 76.2882 209.657 75.4269 209.657C75.0681 209.657 75.0683 209.485 75.3554 208.936C75.8936 208.01 75.5705 207.701 74.817 208.421C74.4943 208.73 74.1715 208.971 74.0994 208.971C73.9199 208.971 74.0992 208.147 74.3863 207.701C74.5655 207.426 74.4935 207.255 74.1347 207.255C73.8121 207.255 73.5612 207.152 73.561 206.98C73.561 206.843 73.2019 206.534 72.8072 206.26C72.1254 205.882 72.054 205.882 72.2334 206.363C72.4486 206.843 72.3406 206.877 71.7665 206.568C71.2641 206.328 71.0489 206.328 71.0489 206.568C71.0487 206.74 70.7975 206.911 70.5105 206.911C70.2235 206.911 69.9722 207.152 69.9721 207.426C69.9721 207.701 70.1878 207.838 70.439 207.735C70.726 207.632 71.1205 207.769 71.3358 208.009C71.6229 208.353 71.4795 208.456 70.762 208.524C70.2238 208.524 69.757 208.73 69.6852 208.936C69.6134 209.142 69.3265 209.314 69.0753 209.314C68.8241 209.314 68.5007 209.52 68.393 209.726C68.2854 209.966 68.2855 209.829 68.393 209.383C68.5007 208.971 68.4291 208.627 68.2138 208.627C67.9986 208.627 67.8193 208.868 67.8193 209.142C67.8192 209.76 67.2088 209.829 67.0293 209.28C66.9217 208.971 66.3837 209.005 65.0918 209.383C63.2977 209.898 61.7186 209.657 61.7183 208.868C61.7183 208.696 61.9697 208.731 62.2568 208.971C62.6874 209.314 62.7236 209.245 62.616 208.627C62.4006 207.529 62.1848 207.426 61.7183 208.25C61.4671 208.73 60.9648 208.97 60.1754 209.005C59.4578 209.028 59.3745 209.12 59.9247 209.28L60.8215 209.52L59.9247 209.76C59.4224 209.897 58.7046 210 58.3456 210C57.8672 210 57.8672 209.817 58.3456 209.451C58.7043 209.177 58.8119 209.005 58.561 209.142C58.3098 209.28 57.8428 209.177 57.5557 208.936C57.1252 208.593 56.9813 208.628 56.8019 209.245C56.6943 209.76 56.3354 210 55.7613 210C55.2949 210 54.9006 209.829 54.9006 209.623C54.9007 209.417 55.1158 209.314 55.4029 209.417C56.1205 209.691 56.3719 209.314 55.9413 208.593C55.6902 208.112 55.7258 207.941 56.0128 207.941C56.874 207.941 56.0843 207.598 54.7206 207.392C53.9671 207.289 53.0343 206.877 52.6754 206.465C52.2449 205.985 52.0295 205.916 52.137 206.225C52.2447 206.568 52.0654 206.774 51.6348 206.774C51.2401 206.774 50.9886 206.568 51.0602 206.26C51.0961 206.019 50.8454 205.744 50.5226 205.71C50.1637 205.641 49.8765 205.814 49.8765 206.088C49.8767 206.363 50.0561 206.568 50.3072 206.568C50.5222 206.569 50.4141 206.809 50.0196 207.083C49.661 207.358 49.5179 207.598 49.6973 207.632C49.9126 207.666 50.2356 207.701 50.4149 207.77C50.6303 207.804 51.0607 207.873 51.4194 207.873C51.7423 207.907 52.0292 208.113 52.0294 208.318C52.0294 208.524 51.7065 208.627 51.3117 208.524C50.8454 208.421 50.5585 208.559 50.4149 209.005C50.2714 209.382 50.0198 209.589 49.8404 209.451C49.6609 209.348 49.5897 208.971 49.6973 208.627C49.8408 208.147 49.6968 207.976 49.1227 207.873C48.1179 207.735 47.1129 206.397 46.8976 204.955C46.7899 204.372 46.6107 203.72 46.503 203.548C46.3236 203.239 46.0363 201.248 45.7492 197.748C45.6416 196.753 45.4264 195.003 45.247 193.802C44.7446 190.781 44.4934 188.825 44.314 186.834C44.2422 185.872 43.8473 181.995 43.4526 178.22C43.022 174.411 42.6991 170.293 42.7349 169.057C42.7708 167.821 42.6636 166.62 42.4842 166.379C42.3048 166.105 42.233 165.624 42.2688 165.281C42.3404 164.938 42.1609 164.698 41.8381 164.698C41.5153 164.698 41.2639 164.526 41.2636 164.355C41.2636 164.149 41.0122 164.011 40.7251 164.011C40.4383 164.011 40.1876 163.84 40.1875 163.634C40.1875 163.462 40.0436 163.394 39.8283 163.497C39.649 163.599 39.4701 163.531 39.4699 163.36C39.4699 163.154 39.6129 162.982 39.7922 162.982C39.9716 162.982 40.0437 162.638 39.936 162.192C39.7567 161.575 39.8282 161.506 40.2229 161.85C40.7612 162.364 41.2636 162.433 41.2636 161.986C41.2632 161.815 40.9048 161.54 40.4744 161.403C40.0079 161.266 39.5411 161.026 39.3976 160.82C39.2541 160.58 39.0029 160.579 38.68 160.785C38.4288 160.991 37.8546 161.095 37.424 161.06C36.5269 161.026 36.3837 161.266 36.9579 161.815C37.2089 162.055 37.1725 162.192 36.7779 162.192C36.4909 162.192 36.2395 162.055 36.2395 161.883C36.2393 161.746 36.1321 161.643 35.9887 161.677C35.594 161.78 34.0509 161.266 33.5844 160.888C31.5751 159.31 31.4311 159.138 31.8615 159.001C32.0768 158.898 32.2204 158.657 32.0768 158.486C31.6821 157.868 31.2877 158.177 31.3954 159.035C31.503 160.03 31.5385 160.03 29.9955 159.413C28.4525 158.795 26.9095 157.525 26.8735 156.839C26.8735 156.427 26.7658 156.496 26.5505 156.976C26.2995 157.525 26.2275 157.559 26.2274 157.079C26.1915 156.667 25.9763 156.564 25.4021 156.736C24.8999 156.839 24.7205 156.804 24.8999 156.53C25.0793 156.255 24.8641 156.118 24.3261 156.118C23.8596 156.118 23.1056 155.809 22.6032 155.431C22.1008 155.054 21.5625 154.745 21.3472 154.745C20.8089 154.711 19.3741 153.476 19.3735 153.064C19.3735 152.858 19.1583 152.686 18.8713 152.685C18.1178 152.685 16.4673 151.313 16.7538 150.867C16.8614 150.627 16.8614 150.558 16.6823 150.695C16.2875 151.073 15.0671 150.352 15.0671 149.734C15.067 149.46 14.888 149.323 14.7086 149.425C14.4933 149.528 14.2417 149.391 14.1341 149.116C14.0264 148.808 13.7397 148.568 13.5603 148.568C12.9862 148.568 8.78758 144.038 8.89462 143.557C8.9305 143.317 8.78689 143.008 8.57157 142.87C8.32047 142.72 8.26164 142.754 8.37114 142.972L8.4859 143.181C8.59515 143.398 8.53579 143.433 8.28468 143.282C7.85405 143.008 6.77768 141.188 6.84945 140.811C6.84922 140.674 6.70569 140.468 6.52641 140.365C6.16756 140.159 5.5218 139.027 3.44058 134.908C2.72287 133.501 2.1484 132.197 2.1484 131.956C2.14835 131.682 1.89703 130.824 1.60999 130.001C1.28707 129.177 0.964494 127.873 0.928535 127.118C0.856792 126.363 0.677478 125.471 0.533964 125.127C0.390421 124.784 0.353995 124.44 0.461652 124.337C0.569133 124.2 0.53371 123.754 0.318601 123.308C-0.00437017 122.484 -0.112592 113.698 0.138607 110.987C0.210388 110.232 0.461722 108.55 0.677016 107.246C0.928215 105.942 1.00004 104.809 0.892379 104.706C0.820693 104.603 0.856883 104.364 1.03622 104.158C1.35919 103.814 1.4668 103.024 1.96919 98.1854C2.07686 97.3961 2.29233 96.4355 2.5076 96.058C2.68703 95.7148 2.86602 95.0624 2.86602 94.6163C2.86607 94.1701 3.11741 93.381 3.40443 92.8663C3.69151 92.3515 4.01465 91.39 4.1582 90.7036C4.26588 90.0517 4.5172 89.434 4.69661 89.331C4.87591 89.2278 5.01965 88.7817 5.01965 88.3358C5.01966 87.8896 5.19864 87.4089 5.37806 87.3059C5.59331 87.2029 5.73722 86.7229 5.73727 86.2768C5.73727 85.8307 6.02375 85.2467 6.38257 85.0065C6.70553 84.7662 7.02891 84.0802 7.06481 83.4625C7.1007 82.8448 7.567 81.7466 8.06932 80.9916C8.57172 80.2366 8.96693 79.5155 8.96693 79.4468C8.96722 79.0004 11.9455 75.1571 12.412 74.9855C12.6989 74.8825 12.9141 74.5736 12.9142 74.2992C12.9142 74.0246 13.6315 73.0631 14.5286 72.1365C15.4258 71.2442 16.1439 70.2148 16.1439 69.8716C16.1439 69.5284 16.2875 69.3224 16.4669 69.4597C16.6464 69.5625 17.1485 69.1508 17.5791 68.5674C18.0814 67.9498 18.5837 67.607 18.9066 67.7097C19.1937 67.8127 19.3373 67.7783 19.2297 67.6067C19.122 67.4351 19.338 67.2294 19.7327 67.1264C20.1632 67.0234 20.4503 66.6454 20.4503 66.2679C20.4504 65.8219 20.7731 65.513 21.3472 65.3757C21.8495 65.2384 22.6033 64.7581 23.0339 64.312C23.4645 63.8315 24.0387 63.4536 24.2899 63.4536C24.577 63.4535 24.8637 63.2477 24.9714 62.9732C25.0791 62.733 26.1558 62.0124 27.3758 61.3946C28.5959 60.8112 30.1036 60.0214 30.6777 59.6439C32.4362 58.6143 35.5581 57.2077 35.7734 57.4136C35.8811 57.5164 36.204 57.3791 36.491 57.1047C37.0651 56.5556 38.9311 55.9718 41.2636 55.6629C42.1604 55.56 42.9499 55.3544 43.058 55.2171C43.3451 54.8053 49.0512 53.8096 53.6446 53.3634C56.0128 53.1232 59.0985 52.9859 60.4623 53.0545ZM63.5128 208.627C63.3335 208.627 63.1545 208.799 63.1544 209.005C63.1544 209.176 63.3334 209.245 63.5128 209.142C63.728 209.039 63.8718 208.868 63.872 208.765C63.872 208.696 63.7281 208.627 63.5128 208.627ZM66.8501 207.083C65.8813 206.877 65.6664 206.946 65.6664 207.392C65.6666 207.701 65.8817 207.941 66.1687 207.941C66.4557 207.941 66.743 208.113 66.8148 208.285C66.8869 208.524 67.353 208.455 68.1061 208.112C69.398 207.46 69.5417 207.289 68.6446 207.323C68.2857 207.323 67.4602 207.221 66.8501 207.083ZM59.0632 207.358C58.9556 207.221 58.8482 207.426 58.884 207.804C58.884 208.181 58.991 208.284 59.0986 208.009C59.2062 207.769 59.1708 207.461 59.0632 207.358ZM57.7349 207.117C57.6273 206.637 57.5199 206.603 57.1611 206.946C56.4434 207.632 56.5871 207.941 57.5919 207.941C58.2019 207.941 58.4887 207.769 58.4887 207.323C58.4887 206.843 58.4168 206.843 58.1656 207.22C57.9144 207.598 57.8067 207.598 57.7349 207.117ZM65.3072 207.392C65.3072 207.118 64.626 207.255 64.4104 207.598C64.3028 207.803 64.4457 207.838 64.7326 207.735C65.055 207.632 65.3063 207.461 65.3072 207.392ZM75.9292 206.911C75.8215 206.911 75.6422 207.049 75.5346 207.255C75.427 207.426 75.499 207.598 75.6784 207.598C75.8936 207.597 76.0729 207.426 76.073 207.255C76.073 207.049 76.0009 206.911 75.9292 206.911ZM73.4171 194.247C73.2013 194.282 72.0894 194.797 70.9774 195.38C69.3627 196.238 69.0032 196.581 69.326 196.89C69.6489 197.199 69.6492 197.405 69.2906 197.713C68.9318 198.091 68.8962 198.023 69.1114 197.508C69.2909 197.062 69.2547 196.925 68.9676 197.096C68.7164 197.233 68.5369 197.13 68.5369 196.821C68.5368 196.375 68.4288 196.376 67.5677 196.787C67.0295 197.062 66.4911 197.199 66.3117 197.096C66.1682 196.993 66.0249 197.165 66.0248 197.439C66.0248 197.714 66.2046 198.057 66.384 198.16C66.5992 198.263 66.7424 198.16 66.7424 197.919C66.7428 197.233 68.1058 197.336 68.2854 198.057C68.5007 198.846 66.6348 199.499 65.5941 198.984C65.02 198.709 64.7687 198.709 64.5534 199.052C64.3023 199.43 64.2304 199.395 64.2304 198.915C64.2303 198.606 64.0871 198.331 63.872 198.331C63.6926 198.331 63.6207 198.537 63.7281 198.812C63.9793 199.464 61.9695 200.151 61.3953 199.602C61.1083 199.327 61.0008 199.327 61.0007 199.635C61.0007 199.841 61.3598 200.185 61.7545 200.425C62.2928 200.699 62.4365 200.699 62.2929 200.425C62.1136 200.185 62.3645 200.047 62.8667 200.013C63.3332 200.013 64.0872 199.91 64.5896 199.841C65.092 199.739 65.8457 199.876 66.2763 200.082C66.8862 200.391 67.2092 200.391 67.6039 200.082C68.0704 199.704 68.286 199.739 68.7884 200.253C69.3982 200.802 69.4338 200.802 69.5414 200.288C69.6131 199.979 69.9727 199.705 70.3675 199.705C70.7619 199.705 71.0125 199.841 70.9051 200.013C70.7257 200.287 73.0938 199.773 73.5248 199.464C73.6325 199.395 73.7402 198.194 73.7402 196.787C73.7761 195.106 73.6683 194.213 73.4171 194.247ZM83.6092 199.705C83.4297 199.705 83.25 199.876 83.25 200.082C83.2501 200.253 83.4298 200.322 83.6092 200.219C83.8243 200.116 83.9676 199.944 83.9676 199.841C83.9674 199.773 83.8242 199.705 83.6092 199.705ZM58.2379 199.258C57.9509 199.087 57.7711 199.155 57.7711 199.361C57.771 199.567 57.5556 199.636 57.3403 199.499C56.9815 199.327 56.982 199.361 57.305 199.705C57.6278 200.013 58.0227 200.047 59.0986 199.773C59.924 199.533 60.1038 199.43 59.5655 199.464C59.0632 199.498 58.4534 199.395 58.2379 199.258ZM62.4006 198.675C62.1854 198.675 62.1493 198.812 62.2568 199.018C62.3644 199.189 62.6519 199.361 62.8313 199.361C63.0464 199.361 63.082 199.189 62.9744 199.018C62.8666 198.812 62.5799 198.675 62.4006 198.675ZM72.1257 188.104C72.1257 187.212 72.018 187.178 71.4081 187.864C71.1569 188.173 70.654 188.31 70.2951 188.207C69.7569 188.036 69.6137 188.173 69.6137 188.756C69.6137 189.339 69.7211 189.408 70.0798 189.1C70.7975 188.55 71.9459 189.786 71.3358 190.369C70.8334 190.85 69.9721 190.918 69.9721 190.472C69.9721 190.163 69.5057 190.164 67.0655 190.61C66.3122 190.747 65.6664 190.713 65.5226 190.507C65.4149 190.335 65.953 190.095 66.7424 189.957C67.5316 189.854 68.1771 189.614 68.1777 189.409C68.1777 189.031 66.0614 189.134 65.3434 189.545C65.0922 189.717 63.7999 189.889 62.4721 189.957C61.1819 190.026 60.0348 190.094 59.9247 190.129C59.8171 190.163 59.6375 190.163 59.494 190.129C59.3145 190.129 59.2063 190.232 59.2063 190.404C59.2067 190.61 59.7809 190.678 60.4623 190.644C61.1442 190.575 61.7907 190.644 61.8983 190.781C62.0061 190.953 62.4006 190.987 62.7952 190.884C63.2258 190.781 63.5125 190.816 63.4766 190.987C63.3331 191.845 63.585 191.914 64.195 191.159L64.8765 190.335V191.227C64.8765 191.845 64.6251 192.154 64.015 192.291C63.082 192.531 61.4318 192.257 60.75 191.742C60.2117 191.33 59.4938 191.708 59.7809 192.257C59.8885 192.497 59.7087 192.36 59.4217 192.017C59.0987 191.639 58.8479 190.816 58.8479 190.198C58.8479 189.065 58.4173 188.722 57.9149 189.477C57.7355 189.717 57.8429 189.751 58.1656 189.58C58.4527 189.408 58.5245 189.443 58.381 189.58C57.7351 190.3 57.125 190.026 57.2327 189.065L57.3765 188.104L56.2643 188.619C55.4392 189.031 55.2952 189.237 55.6536 189.442C55.9407 189.614 56.0127 189.751 55.7974 189.751C55.6181 189.751 55.6897 189.923 55.9766 190.095C56.4072 190.369 56.3716 190.438 55.7259 190.438C55.2595 190.438 54.9008 190.609 54.9006 190.85C54.9006 191.055 54.7926 191.124 54.6491 190.987C54.5055 190.85 54.3981 190.163 54.4699 189.477C54.5058 188.791 54.4337 188.413 54.326 188.653C54.2184 188.859 53.9671 188.962 53.7876 188.859C53.5725 188.756 53.5006 189.065 53.5723 189.648C53.644 190.163 53.6085 190.781 53.4292 190.953C53.2857 191.158 53.3572 192.086 53.6084 193.012C54.039 194.728 54.0751 194.728 55.4744 194.694C58.0223 194.659 61.0726 194.179 63.8358 193.458C65.343 193.08 67.0659 192.635 67.64 192.497C70.0083 191.88 70.5109 191.708 70.8697 191.467C71.0852 191.33 71.8387 191.09 72.628 190.987L73.9917 190.747L73.7763 189.306C73.4893 187.693 73.4174 187.521 72.8433 187.864C72.628 188.001 72.5565 188.379 72.6641 188.756C72.8435 189.271 72.7715 189.374 72.2334 189.168C71.157 188.825 71.0132 188.688 71.2643 188.31C71.4078 188.104 71.6233 188.139 71.8027 188.413C72.0179 188.756 72.1257 188.687 72.1257 188.104ZM71.7665 176.572C71.4436 176.435 70.9052 176.572 70.5105 176.847C69.9005 177.293 69.8651 177.465 70.2598 178.048C70.762 178.871 70.8335 179.592 70.3675 179.318C70.1881 179.215 69.8649 179.352 69.6137 179.661C69.3626 179.936 68.9319 180.107 68.6807 180.005C68.4654 179.936 67.9625 180.073 67.5677 180.314C66.6708 181 66.3841 180.931 66.384 180.108C66.384 179.696 66.2399 179.524 65.9887 179.627C65.7737 179.765 65.7019 180.108 65.8095 180.382C66.0248 180.897 65.5583 180.897 63.6205 180.279C63.0824 180.108 63.0824 180.142 63.5128 180.45C63.9793 180.759 63.9435 180.828 63.3336 180.862H62.616L63.3336 181.171C63.9795 181.412 64.0151 181.446 63.4051 181.686C63.0822 181.823 62.5441 181.755 62.2929 181.515C61.8623 181.206 61.6111 181.275 61.0369 181.824C60.6063 182.236 59.9602 182.544 59.5655 182.544C58.7402 182.544 58.6682 182.407 59.314 181.789C59.7087 181.412 59.6731 181.24 59.1348 180.691C58.5606 180.108 58.4887 180.073 58.4887 180.588C58.4887 180.897 58.6683 181.171 58.9194 181.171C59.2064 181.171 59.2066 181.309 58.8479 181.652C58.2021 182.235 56.5156 182.75 56.8019 182.304C56.9455 182.098 56.4433 181.995 55.6897 182.03C54.1826 182.064 52.6395 180.965 53.5007 180.45C53.8594 180.245 53.6802 180.142 52.927 180.142C52.1735 180.142 51.9938 180.245 52.3524 180.45C52.7471 180.691 52.7471 180.76 52.3524 180.932C51.9938 181.069 51.9936 181.137 52.3162 181.138C52.5316 181.172 52.747 181.309 52.747 181.515C52.7468 181.686 52.5315 181.858 52.3162 181.858C52.0652 181.858 51.814 182.236 51.814 182.716C51.7782 183.196 51.8499 183.505 51.9932 183.402C52.1367 183.334 52.4963 183.54 52.8193 183.883C53.2141 184.329 53.932 184.535 55.439 184.569C56.5513 184.569 57.6278 184.672 57.8072 184.81C57.9867 184.912 58.3458 184.878 58.561 184.74C58.813 184.569 59.9971 184.432 61.1807 184.363C62.365 184.329 64.4462 184.054 65.8456 183.78C67.2092 183.505 68.5013 183.368 68.6807 183.471C68.8599 183.574 68.8958 183.54 68.7884 183.334C68.6807 183.162 69.6853 182.716 71.0489 182.373L73.5248 181.721L73.7402 180.005C73.9914 177.705 73.8118 176.95 72.9864 176.881C72.6275 176.813 72.0535 176.71 71.7665 176.572ZM54.7929 180.176C54.3624 180.176 54.1828 180.279 54.4337 180.347C54.6849 180.45 54.7567 180.76 54.6491 181.035C54.5417 181.309 54.6133 181.515 54.8283 181.515C55.0077 181.515 55.259 181.206 55.3667 180.829C55.5102 180.28 55.3669 180.142 54.7929 180.176ZM62.6513 179.696C62.759 179.044 62.58 179.01 61.4676 179.524C60.8934 179.799 60.6418 180.176 60.6777 180.794C60.7136 181.343 60.7854 181.446 60.893 181.103C60.9648 180.794 61.3959 180.485 61.7907 180.417C62.2211 180.348 62.5795 180.039 62.6513 179.696ZM56.7666 180.073C56.0847 179.902 56.049 179.936 56.372 180.52C56.5512 180.862 56.8018 181.171 56.9096 181.171C57.0173 181.171 57.0173 181.034 56.9096 180.862C56.7665 180.691 56.8741 180.485 57.125 180.417C57.3761 180.314 57.233 180.176 56.7666 180.073ZM68.8599 178.117C68.7164 177.774 68.5724 177.808 68.1777 178.289C67.8907 178.632 67.8196 178.803 68.0708 178.666C68.286 178.529 68.5726 178.563 68.7161 178.769C68.8237 178.94 69.1468 179.112 69.3622 179.112C69.6492 179.112 69.6851 179.044 69.3983 178.838C69.1831 178.701 68.9318 178.392 68.8599 178.117ZM66.7424 178.083C66.5631 178.083 66.384 178.22 66.384 178.392C66.384 178.597 66.5631 178.837 66.7424 178.94C66.9577 179.043 67.1015 178.906 67.1016 178.632C67.1016 178.323 66.9578 178.083 66.7424 178.083ZM51.7063 170.978C51.3474 170.395 50.5941 170.876 50.5941 171.699C50.5941 173.312 52.6393 174.891 53.8953 174.273C54.2183 174.101 55.1877 174.102 56.0489 174.239C57.6996 174.514 59.2063 174.101 59.2063 173.381C59.206 172.9 57.9868 172.18 57.305 172.282C57.0897 172.317 56.2641 172.248 55.5105 172.076C54.506 171.905 54.2545 171.734 54.6129 171.528C54.9 171.322 54.6133 171.321 53.8599 171.459C52.9987 171.596 52.7114 171.562 52.8908 171.287C53.0701 171.013 52.9266 170.944 52.5678 171.116C52.2089 171.219 51.8498 171.15 51.7063 170.978ZM72.4126 167.787C72.0897 167.787 72.1253 167.89 72.4841 168.13C72.9865 168.439 72.7356 168.61 72.0181 168.507C71.8386 168.473 71.8023 168.61 71.9457 168.816C72.0534 169.022 72.3765 169.091 72.5918 168.954C72.843 168.851 72.6998 169.022 72.3411 169.297C71.444 169.983 70.9055 170.018 71.1566 169.331C71.4437 168.645 70.7621 168.336 70.1521 168.816C69.5062 169.331 69.4341 170.223 70.0798 170.052C70.2949 170.018 70.4028 170.018 70.2598 170.086C70.1162 170.189 69.9362 170.189 69.8644 170.121C69.7925 170.052 69.4701 170.292 69.1114 170.601C68.7526 170.944 68.1778 171.219 67.7831 171.219C67.4245 171.219 67.1019 171.424 67.1016 171.665C67.1016 172.179 68.7877 172.214 69.6491 171.699C69.9361 171.562 70.4386 171.459 70.7974 171.493C71.1204 171.562 71.515 171.356 71.6227 171.081C71.7304 170.772 72.233 170.533 72.6995 170.532C73.5966 170.532 74.2786 169.606 73.6686 169.194C73.4892 169.091 73.2376 168.713 73.0941 168.37C72.9863 168.061 72.6637 167.787 72.4126 167.787ZM57.1611 171.219C56.6587 171.219 56.3361 171.321 56.4797 171.459C56.8385 171.802 58.1303 171.836 58.1303 171.493C58.1301 171.356 57.6993 171.219 57.1611 171.219ZM54.1107 169.434C53.6801 169.263 53.4646 169.262 53.4646 169.503C53.4646 169.674 53.7519 169.88 54.1107 169.915C54.4336 169.915 54.9004 169.983 55.0798 170.018C55.2951 170.086 55.618 170.121 55.7974 170.155C56.0127 170.189 55.9053 170.361 55.6182 170.532C55.1517 170.807 55.1876 170.875 55.7259 170.875C56.4075 170.875 56.4793 170.601 56.0128 169.88C55.8334 169.64 55.4748 169.503 55.2236 169.571C54.9366 169.674 54.4336 169.606 54.1107 169.434ZM58.704 169.606C58.5964 169.469 58.489 169.675 58.5248 170.052C58.5249 170.429 58.6326 170.532 58.7402 170.258C58.8479 170.018 58.8117 169.709 58.704 169.606ZM50.5226 168.13C50.3073 168.13 50.3429 168.37 50.5941 168.645C50.8452 168.919 51.2038 169.159 51.3833 169.159C51.5985 169.159 51.5628 168.919 51.3117 168.645C51.0607 168.371 50.7021 168.13 50.5226 168.13ZM41.0482 162.639C40.9765 162.639 40.9052 162.776 40.9051 162.982C40.9051 163.153 41.0844 163.325 41.2997 163.325C41.4791 163.325 41.5512 163.153 41.4435 162.982C41.3359 162.776 41.1558 162.639 41.0482 162.639ZM54.4337 63.1108C54.2543 62.3901 53.7161 62.2868 52.5678 62.7673C51.9936 63.0075 52.0653 63.0762 53.07 63.0762C53.7516 63.1105 54.1822 63.2134 54.0392 63.3506C53.7879 63.6251 52.9623 63.7287 50.3426 63.8317C49.3021 63.866 48.5487 64.0031 48.6205 64.106C48.6557 64.2089 48.1892 64.3115 47.5437 64.3458C46.6107 64.3458 46.2881 64.2086 46.1446 63.6595C45.9652 63.0075 45.4623 63.111 45.3547 63.8317C45.3188 64.0033 45.2829 64.2778 45.247 64.415C45.1743 64.8608 42.4129 64.8609 41.6589 64.415C41.1206 64.1061 40.7255 64.1059 39.936 64.4834C39.3977 64.758 38.7155 64.964 38.4285 64.9983C38.1415 64.9985 37.8546 65.2042 37.747 65.4787C37.6394 65.7532 37.7471 65.8564 37.9624 65.7192C38.1777 65.6162 38.4649 65.6849 38.6085 65.9252C38.7518 66.1651 38.7515 66.2682 38.5723 66.1311C38.4288 65.9939 37.7473 66.0965 37.0655 66.3709C36.1326 66.7484 35.7017 66.7827 35.1634 66.4739C34.661 66.165 34.3018 66.165 33.6559 66.4739C33.1894 66.7141 33.0822 66.8512 33.4052 66.7483C33.7281 66.6798 34.1942 66.7489 34.4812 66.9204C34.8759 67.1607 34.8044 67.2286 34.1943 67.2286C33.7638 67.2286 33.3329 67.366 33.2252 67.5376C33.1175 67.6749 32.6154 67.7435 32.113 67.6406C31.3953 67.5376 31.2162 67.6412 31.2162 68.2246C31.216 69.1509 30.4982 69.185 30.247 68.2585C30.1394 67.881 29.9237 67.6406 29.7801 67.7435C29.6008 67.8466 29.5648 68.2245 29.6725 68.602C29.8518 69.254 29.7801 69.2879 28.8472 68.9448C28.022 68.636 27.8787 68.6362 28.2734 68.9793C28.8474 69.5627 28.8111 69.9746 28.2011 69.9746C27.9141 69.9748 27.5911 70.2147 27.4835 70.5234C27.3758 70.7979 27.125 70.9353 26.9097 70.8323C26.7304 70.7294 26.5507 70.7639 26.5505 70.9353C26.5505 71.1069 25.8691 71.6909 25.0437 72.2057C23.393 73.2353 21.5264 74.9856 21.5264 75.5004C21.5261 75.6718 21.3113 75.8093 21.0603 75.8093C20.8091 75.8093 20.3782 76.1177 20.0911 76.5295C19.8041 76.907 19.2658 77.5591 18.9428 77.9367C18.5839 78.3485 18.2967 79.0353 18.2967 79.4814C18.2967 79.9275 18.0454 80.3737 17.7583 80.4767C17.3998 80.614 17.3285 80.8543 17.5437 81.266C17.7589 81.6091 17.7589 82.0554 17.5437 82.3642C17.2925 82.7761 17.2207 82.7758 17.2207 82.3296C17.2206 82.021 17.0046 82.1585 16.61 82.6732C16.2512 83.1536 16.0006 83.6342 16.0723 83.7714C16.1081 83.9429 16.0002 84.0458 15.8208 84.0458C15.4979 84.0459 14.9958 85.453 14.924 86.4482C14.8881 86.7228 14.7083 86.9291 14.4571 86.8947C14.2418 86.8604 13.9546 87.4437 13.811 88.2674C13.6675 89.0566 13.4162 89.846 13.2726 90.0519C13.1292 90.2241 13.0214 91.116 13.0573 92.0078C13.129 92.9344 12.9859 93.6554 12.8065 93.6556C12.5912 93.6556 12.5192 93.7586 12.6627 93.8615C12.7703 93.9988 12.663 94.2731 12.412 94.5133C12.1608 94.7535 11.9807 95.3029 12.0166 95.7491C12.0524 96.161 11.8016 97.0876 11.4428 97.7396C10.8329 98.9063 10.8327 99.0094 11.4067 99.4212C11.9808 99.833 11.9452 99.9019 11.2275 100.451C10.3304 101.137 9.93575 102.819 10.7252 102.647C11.1558 102.545 11.1556 102.648 10.7967 103.059C10.5457 103.334 10.474 103.78 10.6175 104.02C10.761 104.26 10.761 104.363 10.6175 104.226C9.61272 103.402 9.14609 106.526 10.0791 107.624C10.4379 108.001 10.438 108.07 10.0791 108.001C9.79209 107.933 9.57663 108.344 9.54071 109.168C9.46895 109.888 9.5767 110.472 9.75607 110.472C9.89961 110.472 10.0435 110.884 10.0076 111.399C10.0076 112.223 9.97111 112.257 9.71991 111.673C9.50469 111.159 9.39761 111.365 9.28997 112.6C9.2182 113.527 9.29002 114.316 9.50534 114.385C9.72035 114.488 9.61233 114.694 9.32534 114.9C9.03838 115.105 8.96701 115.277 9.18229 115.277C9.82799 115.277 10.0074 116.513 9.57686 117.885C9.25392 118.88 9.2894 119.156 9.71991 119.43C10.007 119.602 10.0432 119.739 9.86375 119.739C9.64848 119.739 9.46918 120.048 9.46918 120.391C9.46918 120.768 9.61229 121.008 9.71991 120.906C10.1146 120.665 10.3307 121.146 10.4383 122.656C10.4742 123.411 10.6893 124.303 10.8329 124.646C11.0123 124.989 11.2272 125.779 11.299 126.431C11.4066 127.048 11.8734 128.456 12.3758 129.486C12.8781 130.515 13.2724 131.544 13.2726 131.751C13.2726 132.197 15.0664 134.976 15.4616 135.114C15.6411 135.183 15.7847 135.423 15.7847 135.663C15.7847 135.903 16.2874 136.624 16.8615 137.242C17.4712 137.859 17.9377 138.545 17.9383 138.717C17.9383 139.129 23.4998 144.414 25.1868 145.616C25.9404 146.165 26.4428 146.714 26.3351 146.886C26.228 147.057 26.4789 147.194 26.8374 147.194C27.2321 147.194 27.6273 147.401 27.735 147.675C27.8431 147.95 28.9194 148.705 30.1032 149.322C31.3233 149.94 32.2922 150.627 32.2922 150.867C32.2925 151.073 32.7235 151.416 33.2975 151.622C34.5176 152.068 36.1679 153.029 36.9932 153.784C37.3521 154.093 38.3929 154.676 39.2899 155.088C40.1869 155.465 40.9049 155.946 40.9051 156.118C40.9051 156.324 41.0844 156.461 41.2997 156.461C41.515 156.461 42.197 156.839 42.7711 157.319C43.3448 157.799 43.9902 158.108 44.1702 157.971C44.3496 157.869 44.4932 158.04 44.4932 158.349C44.4933 158.726 44.6733 158.864 44.9963 158.761C45.2475 158.658 45.7858 158.76 46.1446 159.001C47.4368 159.859 54.1111 161.712 54.7929 161.438C55.1995 161.255 55.211 161.117 54.8283 161.026C54.4695 160.923 54.183 160.648 54.183 160.408C54.1829 160.168 53.967 159.722 53.68 159.447C53.3928 159.207 52.4959 157.765 51.6348 156.255C50.7736 154.78 49.6611 152.892 49.1227 152.068C48.5846 151.245 48.1898 150.25 48.2613 149.872C48.3689 149.392 48.2615 149.254 47.9029 149.391C47.5441 149.494 47.1851 149.151 46.7545 148.293C46.4316 147.607 46.0005 146.92 45.8569 146.817C45.319 146.473 45.3548 144.621 45.8569 144.723C46.1438 144.758 46.2519 144.655 46.1446 144.484C46.0369 144.312 45.6415 144.209 45.3185 144.243C44.6011 144.346 43.7761 143.728 44.0625 143.282C44.1701 143.111 43.9552 142.768 43.5964 142.493C43.2017 142.253 43.0581 142.047 43.2733 142.047C43.4528 142.047 43.3807 141.91 43.1295 141.772C42.8784 141.6 42.6637 140.845 42.5919 140.091C42.556 139.301 42.3762 138.752 42.125 138.855C41.9456 138.924 41.4432 138.683 41.0843 138.272C40.7257 137.894 40.6179 137.586 40.8328 137.585C41.407 137.585 41.3713 137.036 40.7613 136.487C40.5101 136.212 40.0075 135.526 39.6845 134.908C39.3615 134.291 38.9309 133.81 38.7515 133.81C38.5723 133.81 38.4649 133.501 38.5008 133.158C38.5367 132.677 38.6798 132.575 38.9669 132.815C39.2539 133.055 39.5051 133.02 39.6845 132.746C39.828 132.471 39.7924 132.437 39.5053 132.574C39.2183 132.746 39.1469 132.574 39.2545 132.025C39.3621 131.339 39.254 131.201 38.4646 131.236C37.9266 131.236 37.4963 131.064 37.4601 130.893C37.4601 130.687 37.2808 130.172 37.0655 129.692C36.3119 128.044 35.5578 126.054 34.8042 123.685C34.3378 122.347 33.8359 120.94 33.6205 120.494C33.2258 119.704 33.1894 119.292 32.8306 114.659C32.6512 112.395 32.723 111.811 33.1175 111.639C33.4046 111.536 33.5846 111.193 33.5128 110.884C33.4053 110.506 33.8359 109.923 34.6612 109.305C35.4146 108.756 35.8807 108.482 35.7372 108.687C35.5937 108.928 35.6301 109.099 35.8095 109.099C35.989 109.099 36.3476 108.722 36.5987 108.242C36.9575 107.624 37.2808 107.418 37.7832 107.589C38.2495 107.726 38.3928 107.658 38.2493 107.418C37.9622 107.006 39.5773 106.525 40.3667 106.8C40.6537 106.937 40.9765 106.869 41.0843 106.663C41.2279 106.492 41.479 106.457 41.6943 106.594C41.9455 106.697 42.8785 106.766 43.7756 106.731C45.4622 106.663 48.5842 107.864 49.1943 108.825C49.5172 109.34 50.271 106.697 50.1634 105.427C50.1275 104.878 50.1993 104.26 50.3788 104.02C50.5223 103.814 50.738 102.716 50.8456 101.652C50.9533 100.554 51.2038 99.3873 51.3833 99.0438C51.5627 98.7006 51.8145 97.9795 51.8863 97.499C51.994 96.9842 52.3525 96.1949 52.6754 95.7145C52.9982 95.2343 53.2133 94.7543 53.1777 94.5824C53.1418 94.4452 53.2495 94.342 53.4646 94.3419C53.644 94.3419 53.7161 94.1015 53.6084 93.827C53.465 93.5525 53.5725 93.3122 53.7876 93.312C54.0029 93.312 54.1829 93.1064 54.183 92.8663C54.183 92.2829 55.7612 90.8416 56.0843 91.1501C56.2278 91.2531 56.3357 91.1845 56.3358 90.9788C56.3358 90.6012 59.1705 89.194 60.1754 89.0566C60.4266 89.0223 60.75 88.885 60.8577 88.7477C61.3247 88.336 64.4817 88.5078 65.4864 88.9882C66.8141 89.6746 68.5008 91.5961 68.5369 92.5228C68.5369 93.0375 68.7162 93.2433 69.0391 93.1061C69.6851 92.8658 70.2232 93.6557 69.6491 93.9645C69.3624 94.1361 69.4704 94.4105 69.9367 94.8222C70.5825 95.4055 70.618 95.5085 70.0798 95.9889C69.7435 96.3426 69.6595 96.546 69.8864 96.6549L70.0122 96.7075C70.1748 96.7953 70.2414 96.9716 70.1159 97.1217C70.0083 97.2932 70.1874 97.5336 70.4743 97.6366C70.7973 97.7396 71.0489 98.1514 71.0489 98.5289C71.0489 98.8721 71.2287 99.0776 71.4081 98.9747C71.6232 98.8723 71.7665 99.147 71.7665 99.6271C71.7665 100.279 71.6229 100.451 71.2281 100.313C70.8336 100.142 70.7616 100.245 70.9051 100.657C71.0127 100.966 70.9773 101.412 70.762 101.652C70.5109 101.927 70.5464 102.201 70.9051 102.51C71.228 102.784 71.4081 102.819 71.4081 102.578C71.4083 102.373 71.5511 102.27 71.7304 102.407C71.9457 102.51 71.946 103.025 71.7665 103.643C71.4796 104.5 71.5512 104.672 71.9457 104.5C72.2328 104.397 72.4841 104.466 72.4841 104.638C72.484 104.844 72.2327 104.981 71.9457 104.981C71.3001 104.981 71.2643 105.462 71.7665 106.388C72.2689 107.28 72.9512 107.212 74.6378 106.148C75.3914 105.668 76.1807 105.359 76.3961 105.462C76.5756 105.564 76.9698 105.427 77.2567 105.153C77.5438 104.878 78.2617 104.638 78.8358 104.638C81.4193 104.569 85.402 105.599 85.4028 106.285C85.4028 106.491 85.8696 107.109 86.4796 107.727C87.879 109.168 88.5609 110.541 88.274 111.364C88.1305 111.707 88.0584 112.326 88.1302 112.703C88.202 113.081 88.0584 113.492 87.8072 113.664C87.5202 113.87 87.5204 113.904 87.9148 113.801C88.3095 113.698 88.4532 113.904 88.4533 114.556C88.4891 115.036 88.5966 116.307 88.7401 117.337C88.9195 118.572 88.8838 118.984 88.6686 118.538C88.3456 117.886 88.3102 117.885 88.3102 118.606C88.2744 119.052 88.4891 119.395 88.7401 119.395C89.0272 119.395 89.0275 119.499 88.6686 119.704C88.2381 119.979 88.2021 120.185 88.5609 120.906C88.8119 121.42 88.8123 121.797 88.6332 121.798C88.4538 121.798 88.382 122.072 88.5256 122.381C88.705 122.93 88.669 122.896 88.2025 122.347C87.7002 121.763 87.664 121.729 87.4488 122.278C87.3053 122.621 87.3051 123.033 87.4126 123.239C87.5202 123.411 87.2693 123.651 86.8388 123.754C86.4082 123.857 86.2287 124.063 86.4081 124.166C87.054 124.543 86.4797 126.191 85.6543 126.397C85.152 126.534 85.0086 126.705 85.2597 126.843C85.8698 127.254 86.2644 128.662 85.762 128.662C85.4749 128.662 85.3675 129.04 85.4751 129.692C85.5469 130.241 85.5463 130.756 85.4028 130.79C85.2944 130.86 84.7568 131.615 84.2191 132.506C83.2862 134.016 83.2859 134.325 84.0752 134.188C84.2547 134.153 84.2549 134.325 84.1114 134.565C83.9321 134.805 83.7882 135.182 83.7522 135.423C83.7163 135.629 83.2501 136.247 82.7477 136.796C81.9224 137.654 81.8867 137.757 82.4608 137.997C82.7835 138.1 82.8552 138.237 82.64 138.237C82.3888 138.271 82.1731 138.58 82.1731 138.958C82.1731 139.404 81.922 139.644 81.4555 139.644C80.774 139.644 80.5942 139.988 80.7017 140.914C80.7376 141.154 80.4868 141.772 80.128 142.287C79.6257 143.008 79.5897 143.145 80.0203 142.904C80.379 142.733 80.3073 142.87 79.9126 143.351C79.5181 143.728 79.3387 144.243 79.4819 144.414C79.5895 144.62 79.5538 144.792 79.3388 144.793C79.1594 144.793 78.9081 144.586 78.8004 144.346C78.6928 144.14 78.6569 144.243 78.6927 144.62C78.7645 144.998 79.0158 145.272 79.2311 145.204C79.4821 145.17 79.6609 145.307 79.6611 145.513C79.6611 145.719 79.3385 145.787 78.8719 145.616C78.1543 145.41 78.1183 145.444 78.5489 145.959C78.8719 146.302 78.9075 146.508 78.6204 146.508C78.4053 146.509 78.2259 147.092 78.2259 147.915C78.2259 149.151 78.1184 149.357 77.1498 149.7C76.0734 150.077 75.7499 150.73 76.4314 151.141C76.8979 151.416 76.8982 152.342 76.3961 152.343C76.2166 152.343 76.1446 152.171 76.2522 151.999C76.3597 151.794 76.2883 151.657 76.1092 151.656C75.8939 151.656 75.714 151.793 75.7138 151.999C75.7138 152.171 75.4268 152.239 75.1039 152.102C74.7451 151.999 74.5658 152 74.7093 152.171C74.8526 152.309 74.8171 152.721 74.6378 153.064C74.3508 153.51 74.4222 153.75 74.8885 153.99C75.4268 154.299 75.3911 154.368 74.7093 154.78C74.2788 155.054 73.9195 155.603 73.9194 156.015C73.9194 156.461 73.7401 156.804 73.5248 156.804C73.3096 156.804 73.2021 157.045 73.3456 157.319C73.4533 157.594 73.3453 157.834 73.0941 157.834C72.8428 157.834 72.3768 158.314 72.0181 158.898L71.4081 159.962L72.3411 159.756C72.8434 159.619 73.5965 159.172 74.0271 158.726C74.4577 158.314 75.5704 157.525 76.4676 157.01C77.4006 156.53 78.5847 155.706 79.1588 155.191C79.6971 154.71 80.7383 154.093 81.4201 153.818C82.1019 153.544 82.9627 152.96 83.3215 152.514C83.6803 152.068 84.5418 151.382 85.2236 150.97C85.9054 150.593 86.5512 149.974 86.6588 149.597C86.7666 149.254 87.2336 148.911 87.6641 148.842C88.0947 148.773 88.4533 148.533 88.4533 148.327C88.4534 148.087 88.8485 147.641 89.3509 147.332C90.284 146.714 92.114 145.135 93.4058 143.831C93.8004 143.42 94.2666 143.077 94.4103 143.076C94.5539 143.076 95.3078 142.561 96.0255 141.909C96.779 141.257 97.5326 140.777 97.6761 140.88C97.8196 140.983 97.963 140.811 97.963 140.536C97.9631 140.228 98.2144 139.988 98.5014 139.988C98.7885 139.988 99.0399 139.816 99.0399 139.61C99.0396 139.438 98.8603 139.37 98.6453 139.507C98.3582 139.644 98.3582 139.507 98.6453 138.992C98.8965 138.615 99.2912 138.272 99.5783 138.272C100.116 138.271 100.763 137.379 100.942 136.315C101.158 135.285 102.341 132.78 102.593 132.78C102.88 132.779 104.422 130.001 104.422 129.486C104.422 129.314 104.71 128.628 105.105 127.975C105.786 126.74 106.934 121.936 106.934 120.322C106.934 119.842 107.042 119.362 107.221 119.292C107.472 119.121 107.473 107.726 107.186 105.667C106.719 102.51 103.956 94.9258 102.27 92.283C102.054 92.0084 101.587 91.1156 101.193 90.3263C100.798 89.5375 100.332 88.783 100.117 88.6793C99.9373 88.5764 99.7576 88.1644 99.7575 87.787C99.7575 87.4095 99.6138 87.1691 99.4344 87.2721C99.255 87.3749 98.9318 87.2376 98.6807 86.9631C98.4295 86.6886 98.3223 86.4482 98.4299 86.4482C98.5368 86.4475 98.2496 86.0357 97.7477 85.5214C97.2819 85.0417 96.9235 84.5621 96.9939 84.4923C97.0657 84.4237 96.6355 83.8742 96.0255 83.2565C95.4155 82.6044 94.2668 81.369 93.4773 80.4767C92.6879 79.5844 91.5751 78.4171 91.0368 77.8337C90.4989 77.2849 90.1405 76.6675 90.2477 76.4956C90.3553 76.2897 90.2117 76.2551 89.9246 76.3581C89.6017 76.4953 89.279 76.3234 89.1355 76.0146C89.0278 75.7058 88.7047 75.4659 88.4894 75.4658C87.9871 75.4658 86.2651 73.7161 86.4081 73.3039C86.444 73.1667 86.1569 73.0634 85.7982 73.0634C85.4034 73.0634 84.5422 72.5483 83.8245 71.9305C83.1428 71.3129 82.138 70.5926 81.6355 70.3865C80.9537 70.0777 80.7382 69.8029 80.8817 69.3567C81.061 68.9108 80.9175 68.7051 80.4872 68.705C80.1283 68.705 79.7331 68.8764 79.5896 69.0823C79.4102 69.3225 79.3027 69.3225 79.3027 68.9793C79.3027 68.7391 79.0874 68.6021 78.8004 68.705C78.5133 68.8079 78.0828 68.7044 77.8674 68.4299C77.6521 68.1897 77.0778 67.8811 76.6114 67.7781C76.109 67.6408 75.7138 67.4002 75.7138 67.2286C75.7134 67.0229 75.355 66.8859 74.9247 66.8858C74.0634 66.8858 72.6641 66.1995 73.4894 66.1995C73.7045 66.1994 73.919 66.0623 73.9194 65.9252C73.9194 65.7536 73.4533 65.6847 72.8433 65.7876C72.1974 65.8906 71.7665 65.7873 71.7665 65.5471C71.7662 65.307 71.2639 65.17 70.6182 65.2043C69.1112 65.2729 64.7345 64.3465 64.0873 63.8317C63.7645 63.5915 63.4775 63.5569 63.3697 63.7625C63.2621 63.9341 62.5442 64.003 61.7907 63.9001C61.073 63.7971 59.5298 63.7625 58.3456 63.7625C56.7308 63.8312 56.156 63.6942 55.7613 63.2138C55.2948 62.6304 55.2591 62.6302 55.4744 63.1792C55.6179 63.591 55.5102 63.7971 55.1513 63.7971C54.8643 63.7969 54.5414 63.4881 54.4337 63.1108ZM35.0557 160.168C34.9122 159.893 34.8404 159.928 34.8404 160.271C34.8048 160.58 35.1278 160.923 35.4865 161.026C35.9886 161.129 36.1322 161.06 35.9887 160.717C35.8811 160.442 35.6654 160.305 35.5218 160.408C35.3425 160.511 35.1276 160.374 35.0557 160.168ZM59.3501 160.236C59.0632 160.236 58.9198 160.408 59.0271 160.579C59.2424 160.888 59.9247 160.751 59.9247 160.373C59.9238 160.305 59.6725 160.236 59.3501 160.236ZM76.3961 114.694C74.9247 114.556 73.3811 115.655 72.9864 117.131C72.8787 117.611 72.6277 118.023 72.4841 118.023C72.233 118.023 72.0176 118.882 71.5512 122.381C71.4076 123.342 71.1922 123.788 70.9051 123.651C70.6542 123.514 70.6904 123.583 70.9774 123.891C71.5155 124.441 71.551 125.917 71.0128 125.917C70.7618 125.917 70.8694 126.294 71.2281 126.809C71.5511 127.324 71.6588 127.598 71.4435 127.495C71.1206 127.289 70.8696 127.735 71.1204 128.044C71.1563 128.112 70.9771 128.49 70.7259 128.902C70.403 129.554 70.4029 129.829 70.9051 130.549C71.4434 131.339 71.4436 131.408 70.8336 131.408C70.5106 131.408 70.2954 131.511 70.439 131.614C70.5463 131.717 70.5105 132.197 70.3313 132.643C70.0801 133.226 70.1159 133.467 70.4028 133.467C70.6181 133.467 70.5108 133.776 70.1521 134.153C69.5421 134.805 69.5417 134.84 70.1875 134.874C70.5822 134.874 70.6542 134.977 70.439 135.08C70.1878 135.148 69.9721 135.526 69.9721 135.869C69.9721 136.212 69.8288 136.624 69.6137 136.727C69.4343 136.83 69.2545 137.242 69.2545 137.585C69.2544 137.928 68.9313 138.34 68.5007 138.443C67.8191 138.649 67.8192 138.718 68.3215 139.267C69.0033 139.953 69.0749 140.468 68.5007 140.124C68.1781 139.953 68.1422 140.331 68.3215 141.532C68.5009 142.664 68.465 143.076 68.2138 142.904C67.9987 142.802 67.8194 142.939 67.8193 143.213C67.8193 143.522 67.9986 143.763 68.2138 143.763C68.4291 143.763 68.3216 144.003 68.0346 144.312C67.7116 144.586 67.4601 145.033 67.4601 145.273C67.4599 145.513 67.2446 145.719 67.0293 145.753C66.7776 145.754 65.8091 146.028 64.8765 146.337C63.0464 146.989 61.6114 148.602 61.1807 150.524C61.0373 151.141 60.7859 151.656 60.6423 151.656C60.4629 151.656 60.3908 151.862 60.4985 152.137C60.7138 152.72 59.6731 153.132 59.3501 152.617C59.2067 152.377 59.2428 152.343 59.494 152.48C59.7448 152.617 59.9245 152.549 59.9247 152.377C59.9247 152.171 59.6733 151.999 59.3863 151.999C58.5609 151.999 57.3767 149.048 57.1973 146.508C57.1255 145.273 56.9814 143.729 56.9096 143.076C56.6943 141.704 56.982 140.262 57.4127 140.503C57.5916 140.605 57.5201 140.227 57.305 139.679C56.8744 138.546 55.6901 138.134 54.7929 138.786C54.3264 139.095 54.2543 139.576 54.4337 140.948C54.5773 142.081 54.5052 142.733 54.2899 142.733C53.8228 142.732 52.0657 141.395 52.4962 141.36C52.6394 141.36 52.5673 141.017 52.3162 140.571C52.0652 140.159 51.85 139.576 51.814 139.301C51.7781 139.027 51.5632 138.1 51.3479 137.276C51.0968 136.487 50.989 135.698 51.0964 135.595C51.204 135.492 51.1325 135.217 50.9172 134.942C50.666 134.702 50.4506 133.982 50.3788 133.398C50.307 132.781 50.0559 132.128 49.8765 131.956C49.6612 131.751 49.5173 131.064 49.5173 130.343C49.5173 129.623 49.3742 128.97 49.1589 128.833C48.9795 128.73 48.6563 127.735 48.4051 126.603C48.1898 125.47 47.8664 124.543 47.7229 124.543C47.2922 124.542 46.5388 122.553 46.7899 121.969C46.8975 121.66 46.8621 121.524 46.6468 121.627C46.4315 121.73 46.2876 121.523 46.2876 121.145C46.2876 120.734 46.1803 120.426 46.0369 120.425C45.6781 120.425 44.8526 118.744 44.8524 118.126C44.8524 117.851 44.6372 117.576 44.3502 117.473C44.0631 117.37 43.9195 117.062 44.0271 116.787C44.1347 116.513 44.027 116.307 43.8118 116.307C43.5964 116.307 43.5249 116.066 43.6326 115.792C43.8119 115.414 43.7039 115.346 43.2733 115.483C42.9504 115.586 42.6996 115.551 42.6996 115.38C42.6989 115.037 40.295 114.831 39.7568 115.14C39.6133 115.243 39.5771 115.517 39.7206 115.723C39.8641 115.964 40.0434 116.512 40.1152 116.958C40.2229 117.713 40.1512 117.748 39.613 117.302C39.0388 116.856 39.0393 116.89 39.4699 117.576C39.7569 117.954 40.187 118.229 40.4383 118.126C41.12 117.886 41.0126 118.263 40.1875 119.052C39.793 119.429 39.4702 119.944 39.4699 120.15C39.4699 120.39 39.6492 120.322 39.8645 119.979C40.3669 119.155 40.9051 119.258 40.9051 120.219C40.9052 120.665 41.1565 121.214 41.4435 121.454C41.7306 121.695 42.053 122.381 42.1965 123.033C42.3042 123.685 42.5199 124.2 42.6634 124.2C42.807 124.201 43.094 124.921 43.381 125.814C43.6322 126.74 43.9554 127.769 44.1348 128.147C44.6371 129.313 44.8164 130.377 44.4578 130.378C44.2784 130.378 44.1348 130.206 44.1348 130.034C44.1346 129.829 43.955 129.692 43.7756 129.692C43.5246 129.692 43.5245 129.898 43.7756 130.378C43.9909 130.755 44.4577 131.064 44.8524 131.064C45.2112 131.064 45.6415 131.373 45.7492 131.751C45.8569 132.128 46.1082 132.437 46.2876 132.437C46.467 132.437 46.5391 132.677 46.4315 132.952C46.2879 133.261 46.4316 133.467 46.7545 133.467C47.1849 133.467 47.2928 133.741 47.1853 134.53C47.0417 135.388 47.1492 135.56 47.5798 135.389C48.0104 135.252 48.1179 135.32 47.9744 135.698C47.831 135.972 47.9027 136.281 48.0821 136.384C48.2973 136.521 48.4413 136.933 48.4413 137.345C48.4413 137.791 48.7642 138.34 49.1589 138.614C49.5536 138.889 49.8764 139.301 49.8765 139.541C49.8765 139.953 50.5586 141.326 50.9533 141.703C51.061 141.806 51.2043 142.184 51.2402 142.562C51.3121 142.939 51.7426 143.694 52.1732 144.278C52.6397 144.827 53.2853 145.925 53.68 146.68C54.3617 148.087 54.4335 148.224 54.5052 149.048C54.5053 149.323 55.0441 150.009 55.6182 150.592C56.4436 151.381 56.6945 151.862 56.6227 152.72C56.551 153.475 56.6946 153.887 57.0534 153.956C57.4841 154.093 57.4838 154.059 57.125 153.784C56.7303 153.544 56.7308 153.441 57.1973 153.27C57.6277 153.098 57.771 153.269 57.7711 153.887C57.7711 154.436 57.9865 154.745 58.3095 154.745C58.5965 154.745 58.8478 155.019 58.8479 155.397C58.8479 155.74 59.0992 156.221 59.3863 156.461C59.6732 156.701 59.9245 157.113 59.9247 157.387C59.9247 157.628 60.1756 158.245 60.4985 158.692C60.8214 159.172 60.965 159.55 60.8215 159.55C60.678 159.55 60.7495 159.79 61.0007 160.065C61.5032 160.648 62.7952 160.751 62.7952 160.202C62.7953 159.996 63.1184 159.378 63.5489 158.829C63.9435 158.28 64.1586 157.663 64.0512 157.457C63.9077 157.251 64.0871 156.908 64.4458 156.667C65.0917 156.187 65.4504 155.088 64.948 155.088C64.5179 155.087 64.9485 153.818 65.5226 153.338C65.8096 153.132 66.0247 152.652 66.0248 152.274C66.0248 151.931 66.2759 151.073 66.6348 150.352C66.9577 149.666 67.2447 148.979 67.2447 148.842C67.2806 148.705 67.5681 148.259 67.9269 147.881C68.2498 147.504 68.5367 146.92 68.5369 146.577C68.5369 146.062 68.6086 146.062 68.9314 146.508C69.2185 146.92 69.2546 146.851 69.0753 146.268C68.86 145.479 69.8286 143.42 70.4028 143.419C70.5464 143.419 70.6897 143.179 70.6897 142.904C70.6899 142.63 70.9055 142.39 71.1566 142.39C71.4436 142.39 71.4434 142.287 71.2281 142.115C70.9773 141.943 71.0492 141.463 71.4796 140.674C71.8025 140.022 72.0897 139.61 72.1257 139.816C72.1257 139.987 72.2693 139.919 72.4488 139.644C72.6639 139.37 72.6994 138.718 72.5918 138.203C72.4842 137.62 72.5561 137.242 72.8072 137.242C73.0225 137.242 73.2018 137.036 73.2018 136.761C73.2018 136.487 73.5967 135.801 74.0632 135.286C74.5655 134.737 74.8888 133.982 74.8531 133.604C74.7814 133.261 74.9604 132.54 75.2116 132.025C75.4986 131.51 75.7138 130.79 75.7138 130.378C75.7138 130 75.9654 129.28 76.2884 128.799C76.6113 128.353 76.7906 127.872 76.6829 127.735C76.5396 127.632 76.6113 127.254 76.7906 126.946C78.1901 124.44 79.4102 115.106 78.262 115.792C78.0826 115.895 77.8669 115.723 77.7951 115.414C77.7234 115.037 77.2572 114.797 76.3961 114.694ZM88.2379 157.663C87.9867 157.422 87.5565 157.834 87.5564 158.314C87.5564 158.52 87.736 158.486 87.9872 158.246C88.2024 158.04 88.3095 157.766 88.2379 157.663ZM23.8592 154.951C23.5723 154.848 23.3211 154.917 23.3208 155.088C23.3208 155.534 23.9668 155.843 24.1823 155.466C24.2899 155.294 24.1463 155.088 23.8592 154.951ZM52.2447 154.402C52.1371 154.402 51.9578 154.539 51.8501 154.745C51.7426 154.917 51.8141 155.088 51.9932 155.088C52.2085 155.088 52.3885 154.917 52.3886 154.745C52.3886 154.539 52.3165 154.402 52.2447 154.402ZM51.8501 153.715C51.5631 153.715 51.3117 153.853 51.3117 154.059C51.3119 154.23 51.5632 154.299 51.8501 154.196C52.137 154.059 52.3882 153.922 52.3886 153.853C52.3886 153.784 52.1372 153.715 51.8501 153.715ZM50.9172 152.652C50.1277 152.171 49.7326 152.309 50.2349 152.858C50.4861 153.132 50.8454 153.27 51.0249 153.167C51.2401 153.029 51.2041 152.823 50.9172 152.652ZM53.0346 150.627C52.8193 150.627 52.8191 150.833 53.1062 151.141C53.6085 151.725 54.0393 151.587 53.6446 151.004C53.5369 150.798 53.2499 150.627 53.0346 150.627ZM51.2756 149.94C51.0964 149.94 51.0249 150.078 51.1325 150.284C51.2402 150.455 51.4195 150.627 51.5271 150.627C51.5988 150.627 51.6708 150.455 51.6709 150.284C51.6709 150.078 51.4909 149.94 51.2756 149.94ZM47.4721 147.435C47.7233 146.783 47.5438 146.646 47.1491 147.229C47.0415 147.435 47.1846 147.847 47.5075 148.156C48.0458 148.671 48.0821 148.67 48.0821 148.121C48.082 147.744 47.9384 147.607 47.6514 147.744C47.3643 147.915 47.3286 147.812 47.4721 147.435ZM49.8042 144.414C49.6608 144.037 49.5894 144.037 49.3743 144.414C49.0513 144.861 49.3738 145.376 49.7327 145.032C49.8403 144.929 49.876 144.655 49.8042 144.414ZM44.8524 142.287C44.8524 141.326 44.6728 141.12 44.314 141.703C44.2064 141.875 44.2784 142.321 44.4578 142.63C44.7808 143.179 44.8165 143.111 44.8524 142.287ZM48.1898 142.218C48.4408 141.635 48.2258 141.532 47.9029 142.081C47.7594 142.287 47.7229 142.493 47.8306 142.596C47.9024 142.699 48.0821 142.527 48.1898 142.218ZM50.1996 141.189C49.9484 140.949 49.5174 141.36 49.5173 141.841C49.5173 142.047 49.6969 142.012 49.948 141.772C50.1631 141.567 50.2709 141.292 50.1996 141.189ZM47.7229 140.674C47.5436 140.674 47.3646 140.811 47.3645 141.017C47.3645 141.188 47.5436 141.36 47.7229 141.36C47.9382 141.36 48.0821 141.188 48.0821 141.017C48.082 140.811 47.9381 140.674 47.7229 140.674ZM46.7184 139.232C46.4314 138.958 46.3956 139.095 46.5392 139.679C46.6827 140.125 46.8261 140.296 46.9337 140.022C47.0054 139.781 46.8977 139.404 46.7184 139.232ZM42.4842 137.963C42.0895 137.963 41.9818 138.066 42.2688 138.169C42.52 138.271 42.8427 138.237 42.9503 138.134C43.0938 138.031 42.8787 137.928 42.4842 137.963ZM44.4578 136.727C44.2066 136.487 43.7756 136.899 43.7756 137.379C43.7757 137.585 43.9553 137.551 44.2063 137.311C44.4216 137.105 44.5296 136.83 44.4578 136.727ZM43.2733 135.869C43.1657 135.869 42.9864 136.007 42.8788 136.213C42.7714 136.384 42.8427 136.555 43.0218 136.555C43.237 136.555 43.4169 136.384 43.4172 136.213C43.4172 136.007 43.3451 135.869 43.2733 135.869ZM40.0437 133.982C39.4336 133.364 39.29 133.673 39.8283 134.496C40.0077 134.771 40.2594 134.874 40.4029 134.771C40.5103 134.633 40.3665 134.29 40.0437 133.982ZM40.7251 131.27C40.4382 131.167 40.1875 131.236 40.1875 131.408C40.1878 131.613 40.4384 131.75 40.7251 131.751C41.0118 131.751 41.2627 131.682 41.2636 131.614C41.2636 131.545 41.0122 131.407 40.7251 131.27ZM41.2282 128.662C41.0488 128.662 40.9051 128.799 40.9051 129.005C40.9054 129.177 41.1562 129.348 41.4789 129.348C41.7659 129.348 41.9095 129.177 41.802 129.005C41.6944 128.799 41.4434 128.662 41.2282 128.662ZM84.7575 128.181C84.5423 128.078 84.2553 128.147 84.1476 128.353C83.7887 128.868 84.2548 129.211 84.7213 128.765C84.9724 128.525 84.9726 128.319 84.7575 128.181ZM37.747 126.603C37.2087 126.603 37.1731 127.838 37.6755 128.147C37.8907 128.25 38.0339 128.181 38.0339 127.975C38.0339 127.77 38.2496 127.701 38.5008 127.804C38.7158 127.941 38.6436 127.804 38.3208 127.53C37.962 127.255 37.7827 126.946 37.9262 126.843C38.0338 126.705 37.9623 126.603 37.747 126.603ZM40.5098 127.392C39.4336 127.461 39.3623 127.804 40.4029 127.907C40.8692 127.941 41.2636 127.838 41.2636 127.666C41.2635 127.461 40.9404 127.358 40.5098 127.392ZM59.4578 99.6955C59.3502 100.245 59.4222 100.828 59.6017 101C60.104 101.515 59.9961 101.892 59.3501 101.892C58.9554 101.892 58.8835 102.098 59.0271 102.544C59.1347 102.922 59.0275 103.54 58.7764 103.952C58.4176 104.466 58.4171 104.706 58.704 104.912C59.3141 105.256 59.4938 106.902 58.9556 106.765C58.7044 106.731 58.4887 106.937 58.4887 107.212C58.4887 107.486 58.6328 107.727 58.7764 107.727C58.9198 107.727 59.0628 108.036 59.0986 108.413C59.1345 108.79 59.0274 109.099 58.884 109.099C58.7405 109.099 58.6328 109.923 58.6687 110.953C58.6686 111.982 58.5607 112.737 58.4172 112.668C57.9508 112.394 58.0946 112.977 58.6687 113.664C59.2428 114.419 58.9914 116.546 58.2379 117.267C57.7356 117.748 57.5916 118.503 58.058 118.263C58.2015 118.16 58.3097 118.572 58.3456 119.155C58.3456 119.773 58.4531 120.906 58.6325 121.695C58.8119 122.793 58.776 123.171 58.4172 123.171C58.0942 123.171 58.094 123.274 58.4887 123.514C58.8116 123.686 59.1705 123.685 59.4217 123.479C59.7087 123.274 59.9242 123.343 60.0677 123.72C60.3906 124.475 60.3189 124.784 59.9601 124.269C59.7448 123.926 59.6011 123.926 59.2425 124.337C58.5607 125.127 60.1394 124.921 60.893 124.097C61.2758 123.708 61.2758 123.583 60.893 123.72C60.5343 123.823 60.2831 123.754 60.2831 123.548C60.2832 123.342 60.3908 123.171 60.57 123.171C60.9289 123.171 61.7548 121.832 61.8983 120.974C61.9701 120.562 62.1853 119.636 62.4006 118.881C62.7594 117.507 62.652 107.762 62.2214 105.153C62.1137 104.398 61.79 102.991 61.503 102.064C61.2159 101.103 60.6781 99.9704 60.3193 99.5242L59.6732 98.7003L59.4578 99.6955ZM36.2395 122.141C36.0602 122.141 35.881 122.278 35.881 122.484C35.881 122.656 36.0601 122.828 36.2395 122.828C36.4548 122.828 36.5987 122.656 36.5987 122.484C36.5987 122.278 36.4548 122.141 36.2395 122.141ZM38.4285 120.425C37.747 120.425 37.7832 120.94 38.5008 121.627C39.1465 122.244 39.1824 122.244 39.003 121.695C38.8596 121.352 38.7516 120.906 38.7515 120.734C38.7515 120.563 38.6079 120.425 38.4285 120.425ZM37.6755 119.395C37.4961 119.395 37.3164 119.635 37.3163 119.944C37.3163 120.219 37.4961 120.356 37.6755 120.253C37.8906 120.15 38.0338 119.91 38.0339 119.704C38.0339 119.533 37.8907 119.396 37.6755 119.395ZM57.9503 114.248C57.6634 114.248 57.4127 114.385 57.4127 114.591C57.4127 114.762 57.6633 114.831 57.9503 114.728C58.2374 114.591 58.4887 114.453 58.4887 114.385C58.4884 114.316 58.2372 114.248 57.9503 114.248ZM42.8426 113.904C42.7709 113.904 42.6996 114.042 42.6996 114.248C42.6998 114.419 42.879 114.591 43.0941 114.591C43.2734 114.59 43.3447 114.419 43.2372 114.248C43.1295 114.042 42.9503 113.904 42.8426 113.904ZM41.9812 113.047C41.9812 112.36 40.8693 112.394 39.9722 113.08C39.3621 113.561 39.3619 113.596 39.936 113.424C40.4025 113.287 40.5462 113.389 40.4744 113.801C40.4026 114.144 40.6537 114.454 40.9767 114.522C41.4431 114.591 41.5509 114.488 41.4074 114.11C41.2998 113.801 41.3714 113.561 41.5866 113.561C41.8018 113.561 41.981 113.321 41.9812 113.047ZM118.885 109.992C118.382 109.786 118.346 109.82 118.669 110.163C118.921 110.403 119.208 110.507 119.315 110.404C119.423 110.301 119.243 110.095 118.885 109.992ZM97.9269 84.3893C97.7477 84.3895 97.6763 84.5263 97.7838 84.7321C97.8915 84.9037 98.0707 85.0755 98.1784 85.0756C98.2502 85.0756 98.3222 84.9037 98.3222 84.7321C98.3222 84.5262 98.1422 84.3893 97.9269 84.3893ZM79.0158 67.0918C78.8364 66.9889 78.6927 67.1262 78.6927 67.4008C78.6928 67.6753 78.8364 67.9157 79.0158 67.9157C79.1592 67.9155 79.3025 67.7781 79.3027 67.6067C79.3027 67.4009 79.1592 67.1948 79.0158 67.0918ZM31.0362 66.4055C30.7493 66.3027 30.498 66.3709 30.4978 66.5423C30.4978 66.7482 30.7492 66.8858 31.0362 66.8858C31.3232 66.8858 31.5746 66.8169 31.5746 66.7483C31.574 66.6796 31.3229 66.5426 31.0362 66.4055ZM36.7779 65.1697C36.4909 65.1698 36.2395 65.3074 36.2395 65.5132C36.2397 65.6846 36.491 65.7529 36.7779 65.65C37.0647 65.5129 37.3158 65.376 37.3163 65.3073C37.3163 65.2386 37.065 65.1697 36.7779 65.1697ZM70.1159 64.518C69.7212 64.518 69.6135 64.621 69.9006 64.7239C70.1516 64.8268 70.4742 64.7922 70.582 64.6894C70.7256 64.5864 70.5106 64.4837 70.1159 64.518ZM74.0632 64.518C73.6685 64.518 73.5608 64.621 73.8479 64.7239C74.0991 64.8269 74.4224 64.7923 74.5301 64.6894C74.6733 64.5864 74.4578 64.4837 74.0632 64.518ZM36.2395 63.7971C36.0602 63.7973 35.8812 63.9343 35.881 64.1399C35.881 64.3114 36.0601 64.4832 36.2395 64.4834C36.4548 64.4834 36.5987 64.3115 36.5987 64.1399C36.5985 63.9341 36.4547 63.7971 36.2395 63.7971ZM43.6679 63.7287C43.5603 63.4542 43.4526 63.5224 43.4526 63.8655C43.4167 64.5519 43.9554 64.6892 44.3502 64.0715C44.4936 63.8657 44.4574 63.7967 44.2063 63.9339C44.027 64.0368 43.7398 63.9345 43.6679 63.7287ZM68.1777 63.8655C67.6756 63.8655 67.4966 63.934 67.7477 64.0369C67.9631 64.1055 68.3934 64.1055 68.6446 64.0369C68.8596 63.934 68.6799 63.8655 68.1777 63.8655ZM38.3931 63.4197C38.3931 62.699 38.1777 62.596 37.8547 63.1108C37.7111 63.3166 37.4595 63.3851 37.2801 63.2822C37.1008 63.1451 36.9579 63.2136 36.9579 63.3852C36.9579 63.5568 37.2807 63.7971 37.6755 63.9001C38.2135 64.0372 38.393 63.8999 38.3931 63.4197ZM66.384 63.5227C65.8816 63.5227 65.7021 63.5911 65.9533 63.6941C66.1686 63.7627 66.599 63.7627 66.8501 63.6941C67.0654 63.5912 66.8862 63.5227 66.384 63.5227ZM40.7251 62.4245C40.4381 62.0126 40.1875 61.9781 40.1875 62.3899C40.1875 62.5614 39.8645 62.7673 39.4699 62.8702C39.0752 62.9732 38.7515 63.2138 38.7515 63.4197C38.7518 63.694 39.1467 63.6252 39.8283 63.2822C40.4383 62.9733 40.8327 62.5961 40.7251 62.4245ZM47.7229 62.5959C47.5435 62.4931 47.3645 62.6304 47.3645 62.9048C47.3645 63.2134 47.5436 63.4533 47.7229 63.4536C47.9382 63.4536 48.0821 63.3162 48.0821 63.1446C48.0819 62.9388 47.9381 62.6988 47.7229 62.5959ZM68.8961 62.7673C68.7167 62.7673 68.537 62.9388 68.5369 63.1446C68.5369 63.3162 68.7166 63.3851 68.8961 63.2822C69.1111 63.1792 69.2543 63.0078 69.2545 62.9048C69.2545 62.8362 69.1112 62.7673 68.8961 62.7673ZM44.5655 61.772C44.422 61.8063 43.8832 61.9093 43.3449 61.978C42.8425 62.0467 42.197 62.3559 41.9458 62.6304C41.5871 63.0765 41.6589 63.0761 42.4842 62.7673C43.0225 62.5957 43.8837 62.4245 44.3502 62.4245C44.8524 62.4244 45.1393 62.2868 45.0316 62.0809C44.924 61.8752 44.7091 61.7721 44.5655 61.772ZM65.5226 62.2869C65.8814 61.3946 65.5585 60.9829 64.805 61.4976C64.2309 61.9094 64.2304 61.9782 64.7326 62.3899C65.1992 62.7674 65.3431 62.7674 65.5226 62.2869ZM50.9533 62.0809C50.774 62.0809 50.5942 62.2525 50.5941 62.4583C50.5941 62.6299 50.7739 62.6988 50.9533 62.5959C51.1683 62.493 51.3115 62.3215 51.3117 62.2185C51.3117 62.1499 51.1684 62.081 50.9533 62.0809ZM72.951 62.2523C72.6998 61.6004 71.7666 61.326 71.7665 61.875C71.7665 62.1495 72.0899 62.4245 72.4488 62.5275C72.915 62.6303 73.0945 62.5611 72.951 62.2523ZM62.8313 60.7083C61.7906 60.1935 60.7497 60.2965 60.4985 60.9143C60.3908 61.1886 60.1399 61.3258 59.9247 61.2233C59.7094 61.1203 59.6732 61.2576 59.7809 61.5322C60.0322 62.1839 60.8929 62.2525 61.1084 61.6352C61.216 61.3264 61.3597 61.326 61.826 61.669C62.3284 62.0808 62.508 62.0809 62.9744 61.6006C63.4767 61.1202 63.477 61.0514 62.8313 60.7083ZM47.5075 61.772C47.1131 61.7721 47.0059 61.875 47.2929 61.978C47.5441 62.0808 47.8668 62.0463 47.9744 61.9434C48.1176 61.8405 47.9021 61.7377 47.5075 61.772ZM54.9006 61.463C54.9004 60.8455 53.9311 60.9829 53.68 61.6006C53.5006 62.0466 53.5368 62.0811 53.9315 61.8066C54.2186 61.5663 54.5414 61.4979 54.6491 61.6352C54.7926 61.738 54.9006 61.6689 54.9006 61.463ZM58.9909 61.3601C58.7756 60.9829 58.3455 60.9486 58.0226 61.2917C57.5561 61.7378 57.7711 62.0119 58.4887 61.8404C58.8834 61.7374 59.0986 61.5317 58.9909 61.3601ZM56.4435 61.2571C55.9411 61.0512 55.9052 61.086 56.2282 61.4292C56.4793 61.6693 56.7666 61.772 56.8742 61.669C56.9815 61.566 56.8022 61.36 56.4435 61.2571ZM51.1325 61.0511C50.1995 61.0854 50.1276 61.1203 50.7018 61.4292C51.2041 61.7037 51.4916 61.7037 51.7786 61.4292C52.0657 61.1547 51.886 61.0511 51.1325 61.0511ZM52.927 61.0511C52.6399 61.0511 52.3886 61.1887 52.3886 61.3946C52.3886 61.5662 52.6399 61.6352 52.927 61.5322C53.214 61.3949 53.4646 61.2573 53.4646 61.1887C53.4646 61.1201 53.2139 61.0512 52.927 61.0511Z" fill="#44369D"/>
<path d="M30.8562 23.6433C30.8562 21.9616 37.1006 26.1827 39.2538 29.3058C39.7562 30.0609 40.7248 31.365 41.4066 32.1886C42.1242 33.1152 42.5187 33.9387 42.4111 34.3505C42.3035 34.7624 42.4117 34.9687 42.6988 34.9C42.9502 34.8319 43.9545 36.3075 45.0308 38.2977C46.0715 40.254 46.7893 41.8323 46.6099 41.8323C46.1796 41.8325 46.1796 42.7587 46.6099 42.9305C46.7535 42.9648 47.0409 43.4115 47.1845 43.8919C47.3279 44.372 47.3277 44.6465 47.1845 44.5098C46.8615 44.201 44.6727 45.2646 43.4526 46.2598C42.986 46.6717 42.3395 46.9807 42.0165 46.9807C41.5144 46.9807 41.5147 47.049 41.9812 47.3235C42.4476 47.598 42.4471 47.667 41.9089 47.667C41.5861 47.6669 41.1919 47.4954 41.0482 47.2896C40.9047 47.0494 40.7246 47.0151 40.4375 47.2896C40.1866 47.5298 40.187 47.7697 40.5098 48.1128C40.9762 48.6961 40.6891 49.7256 40.0075 49.7259C39.7563 49.7259 39.3611 49.4856 39.1099 49.211C38.8588 48.9366 38.4642 48.697 38.2131 48.6968C37.7107 48.6968 35.4145 46.2258 35.3065 45.5735C35.2706 45.2989 34.7677 44.3037 34.1935 43.377C33.6194 42.4161 32.005 39.4301 30.6054 36.6846C28.6677 32.9096 27.9141 31.0218 27.4835 28.8255C26.7657 25.2219 26.7655 24.9467 27.555 25.0497C28.3444 25.1525 30.8548 24.0896 30.8562 23.6433Z" fill="#44369D"/>
<path fill-rule="evenodd" clip-rule="evenodd" d="M71.6573 0.339637C72.4826 -0.140821 72.8774 -0.105939 73.6309 0.408794C74.3486 0.957901 74.8873 2.70818 74.3132 2.70826C73.739 2.70826 73.8111 3.8062 74.457 4.6642C74.9234 5.31615 74.9235 5.45388 74.457 5.9C74.0623 6.3118 74.026 6.48334 74.3847 6.58631C74.6 6.68927 74.4925 6.79228 74.0978 6.79228C73.4878 6.8266 73.488 6.89508 73.9186 7.16963C74.3849 7.4441 74.3845 7.51241 73.8463 7.51241C73.4518 7.51253 73.2728 7.75342 73.3087 8.19947C73.3446 8.64538 73.5237 8.85088 73.8824 8.71363C74.2771 8.57639 74.3132 8.61111 73.9186 9.05716C73.6674 9.33172 73.2365 9.57208 72.9495 9.57208C72.5547 9.57208 72.4829 9.70946 72.7341 9.98402C73.4158 10.8763 73.2006 11.9056 72.2318 12.1459C71.6578 12.2832 71.4063 12.5234 71.5496 12.8322C71.6572 13.1067 71.5858 13.4155 71.4065 13.5185C71.1914 13.6557 71.0475 13.896 71.0473 14.1019C71.0473 14.3421 71.2628 14.308 71.5858 14.0335C72.0523 13.6559 72.1242 13.7592 72.1242 14.48C72.1241 14.9603 71.837 15.5433 71.5142 15.715C71.1554 15.9209 71.0118 16.0924 71.1912 16.0924C71.3704 16.0925 71.2984 16.3328 71.0473 16.6073C70.7962 16.8818 70.6891 17.328 70.7966 17.6025C70.9043 17.8428 70.7965 18.2551 70.5812 18.461C70.3661 18.6667 70.2941 18.838 70.4013 18.8384C70.5089 18.8384 70.3302 19.7996 69.9713 20.9664C69.4332 22.6133 69.3969 22.9566 69.7913 22.4766C70.2937 21.8245 70.3297 21.8585 70.3297 22.9224C70.3297 23.5401 70.1861 23.9522 70.0067 23.8492C69.8273 23.7463 69.576 23.8833 69.4683 24.192C69.3606 24.4666 69.3968 24.6039 69.6121 24.5009C69.8273 24.3638 69.7912 24.6387 69.576 25.1534C69.289 25.7022 68.9663 25.9083 68.6076 25.7713C68.2129 25.6341 68.1051 25.7368 68.2846 26.1487C68.428 26.5604 68.3198 26.7323 67.8892 26.7666C67.5307 26.7667 67.4592 26.8696 67.7462 26.9726C68.3559 27.2129 68.2843 28.1046 67.6385 28.1046C67.1361 28.1046 67.1362 28.2076 67.6385 28.8939C68.1409 29.649 68.1406 29.8551 67.6023 31.022C67.2435 31.8457 67.1004 32.807 67.2439 33.562C67.3873 34.4196 67.2794 34.8656 66.8132 35.1744C66.275 35.5862 66.2747 35.6896 66.7409 35.9983C67.1715 36.3072 67.1717 36.3413 66.5617 36.2727C65.9877 36.2041 65.88 36.3416 65.9517 36.9935C65.9876 37.4397 65.844 38.0232 65.6287 38.2977C65.3775 38.538 65.162 39.2934 65.0903 39.9455C64.9467 41.4894 64.6958 41.8668 64.0142 41.5925C63.5478 41.4209 63.5474 41.3523 63.9419 41.1121C64.2289 40.9406 64.2651 40.8033 64.0142 40.8032C63.5118 40.8032 62.758 41.6271 62.8297 42.039C62.9732 42.8282 62.7578 43.2742 62.2913 43.1026C61.6814 42.8626 60.8202 44.3378 61.1068 45.0586C61.5016 45.9852 60.3534 45.6765 59.6716 44.6812C59.1334 43.9262 59.026 42.9306 58.9901 38.9841C58.9543 36.3415 59.0976 33.5613 59.277 32.772C59.4564 32.0168 59.6362 30.5067 59.6362 29.4772C59.6721 28.4478 59.815 27.2125 59.9585 26.732C60.102 26.2515 60.3539 25.1876 60.4615 24.3296C60.7845 21.6526 61.3223 18.0145 61.5376 17.1222C61.6452 16.6417 61.8968 15.3373 62.1121 14.2048C62.3274 13.0724 62.6865 11.9742 62.8659 11.734C63.0452 11.4938 63.117 11.1506 62.9736 10.9447C62.866 10.7731 62.9373 10.6013 63.1166 10.6012C63.3319 10.6012 63.5112 10.1894 63.5112 9.70889C63.5113 9.22862 63.6551 8.95423 63.8704 9.05716C64.0857 9.1601 64.1219 9.02272 64.0142 8.74821C63.9066 8.43933 63.9781 8.19947 64.1935 8.19947C64.4087 8.1994 64.5524 7.99315 64.5165 7.75295C64.4447 7.54703 64.6601 7.37536 64.9472 7.444C65.3417 7.54687 65.3776 7.4783 65.0549 7.16963C64.5166 6.62051 65.1625 4.76718 65.8802 4.76718C66.1672 4.76707 66.3825 4.52676 66.3825 4.25226C66.3825 3.97778 66.5618 3.73743 66.777 3.73735C66.9923 3.73735 67.1 3.42876 66.9924 3.08562C66.8847 2.60516 67.0641 2.36445 67.6023 2.22717C67.9968 2.12429 68.4272 2.05588 68.5353 2.05578C68.6071 2.05578 68.7868 1.81565 68.8945 1.47246C69.038 1.16366 69.5401 0.854891 70.0782 0.78615C70.5806 0.751834 71.2984 0.545534 71.6573 0.339637ZM69.756 2.0212C69.4689 2.0212 69.3252 2.15881 69.4329 2.36473C69.5406 2.53626 69.7914 2.70818 70.0067 2.70826C70.1861 2.70826 70.3297 2.53633 70.3297 2.36473C70.3297 2.15888 70.0788 2.0213 69.756 2.0212Z" fill="#44369D"/>
<path d="M99.0383 18.0836C101.227 17.3286 101.55 17.3286 101.55 18.1866C101.55 18.7011 101.73 18.8386 102.089 18.7015C102.412 18.5986 102.627 18.7011 102.627 19.0097C102.627 19.2842 102.807 19.5245 103.022 19.5247C103.237 19.5247 103.668 19.7999 103.991 20.1087C104.457 20.5203 104.493 20.6916 104.135 20.8289C103.884 20.8975 103.345 21.3094 102.95 21.7211C102.556 22.0986 101.946 22.4419 101.623 22.442C101.264 22.442 100.977 22.7513 100.905 23.1975C100.833 23.7464 100.617 23.8835 100.187 23.7462C99.8639 23.6434 99.6844 23.6436 99.792 23.7808C99.9355 23.9181 99.6485 24.4325 99.1821 24.9129C98.7156 25.3934 98.3207 25.943 98.3207 26.0803C98.3198 26.4583 96.5625 28.1046 96.1678 28.1046C96.0243 28.1046 95.8089 28.2081 95.7371 28.3797C95.5208 28.8607 92.3285 31.193 91.8975 31.1934C91.6464 31.1934 91.5386 31.3309 91.646 31.5023C91.7536 31.6739 91.61 31.983 91.3229 32.2232C91.036 32.4634 90.7855 32.8066 90.7853 33.0125C90.7853 33.2184 88.4523 35.587 85.6174 38.2639C82.7829 40.9405 80.3429 43.4796 80.1987 43.8919C79.9834 44.5782 79.2301 44.7158 79.2657 44.0641C79.2657 43.8582 79.0144 43.5835 78.7273 43.4462C78.4044 43.2746 78.2966 42.8968 78.4043 42.5193C78.5119 42.1763 78.4763 41.7986 78.2612 41.6955C77.9024 41.4895 78.0098 38.538 78.4404 37.3025C78.584 36.8907 78.9072 36.3419 79.1942 36.0674C79.4813 35.7929 79.8042 35.1402 79.9118 34.5911C80.0195 34.0422 80.2347 33.6989 80.4141 33.8018C80.5935 33.9047 80.6293 33.7335 80.5218 33.459C80.3783 33.116 80.4857 32.9097 80.7725 32.9095C81.0237 32.9095 81.1314 32.8065 80.9879 32.7036C80.7375 32.4287 81.5985 31.5709 83.1769 30.5417C84.2533 29.821 84.8638 28.7917 83.8953 29.3404C83.6441 29.4777 83.7515 29.2714 84.1821 28.8939C84.5768 28.5164 85.1147 27.7275 85.3659 27.1785C85.8682 25.9773 88.2007 24.0894 87.7702 25.2218C87.6267 25.6336 87.9497 25.4278 88.5955 24.7415C89.1697 24.1581 89.8162 23.6433 90.0315 23.6433C90.2472 23.6428 91.0362 23.0253 91.7537 22.2706C92.4713 21.4814 93.2609 20.932 93.5481 21.0348C93.7991 21.1377 94.0147 21.0694 94.015 20.898C94.015 20.4862 96.9928 18.8044 99.0383 18.0836Z" fill="#44369D"/>
</svg>
