<svg width="1231" height="692" viewBox="0 0 1231 692" fill="none" xmlns="http://www.w3.org/2000/svg">
<path d="M655.726 34.6414C654.912 34.7925 654.374 35.5753 654.525 36.3898C654.676 37.2043 655.459 37.7421 656.274 37.5911L656 36.1162L655.726 34.6414ZM1223.6 85.7543L1225.02 85.2756L1223.6 85.7543ZM129.626 412.003L129.943 413.469L129.626 412.003ZM433.287 680.953C433.811 680.311 433.716 679.367 433.075 678.842L422.622 670.298C421.981 669.774 421.036 669.869 420.512 670.511C419.987 671.152 420.082 672.097 420.724 672.621L430.015 680.216L422.42 689.507C421.896 690.148 421.991 691.093 422.632 691.617C423.274 692.142 424.219 692.047 424.743 691.405L433.287 680.953ZM432.125 680.004L431.975 678.511C430.598 678.65 429.224 678.786 427.854 678.919L428 680.412L428.146 681.905C429.518 681.771 430.895 681.635 432.275 681.496L432.125 680.004ZM419.818 681.189L419.68 679.695C416.971 679.944 414.276 680.185 411.597 680.416L411.726 681.91L411.855 683.405C414.54 683.173 417.24 682.932 419.955 682.682L419.818 681.189ZM403.726 682.578L403.605 681.083C400.956 681.296 398.323 681.501 395.704 681.696L395.816 683.192L395.927 684.688C398.552 684.492 401.191 684.287 403.846 684.073L403.726 682.578ZM387.995 683.753L387.893 682.257C385.194 682.443 382.511 682.619 379.844 682.785L379.938 684.282L380.031 685.779C382.704 685.612 385.393 685.436 388.098 685.25L387.995 683.753ZM371.743 684.768L371.659 683.27C368.948 683.422 366.254 683.564 363.577 683.696L363.651 685.194L363.725 686.692C366.409 686.56 369.109 686.418 371.827 686.266L371.743 684.768ZM355.661 685.562L355.597 684.063C352.954 684.176 350.328 684.279 347.719 684.372L347.773 685.871L347.826 687.37C350.442 687.277 353.075 687.173 355.725 687.06L355.661 685.562ZM339.948 686.124L339.905 684.625C337.135 684.705 334.384 684.774 331.652 684.832L331.684 686.332L331.716 687.831C334.455 687.773 337.214 687.704 339.991 687.624L339.948 686.124ZM323.537 686.474L323.517 684.974C320.824 685.011 318.151 685.037 315.497 685.052L315.505 686.552L315.514 688.052C318.176 688.037 320.857 688.011 323.557 687.974L323.537 686.474ZM307.589 686.566L307.592 685.066C304.977 685.061 302.38 685.045 299.803 685.018L299.787 686.518L299.772 688.018C302.358 688.045 304.962 688.061 307.586 688.066L307.589 686.566ZM291.541 686.398L291.57 684.898C288.835 684.846 286.123 684.782 283.432 684.706L283.39 686.206L283.348 687.705C286.047 687.781 288.769 687.845 291.513 687.897L291.541 686.398ZM275.37 685.943L275.426 684.445C272.779 684.346 270.154 684.235 267.55 684.114L267.48 685.612L267.41 687.111C270.023 687.233 272.657 687.343 275.314 687.442L275.37 685.943ZM259.608 685.206L259.693 683.709C256.928 683.553 254.188 683.384 251.473 683.202L251.373 684.698L251.272 686.195C253.998 686.378 256.748 686.547 259.524 686.704L259.608 685.206ZM243.287 684.113L243.403 682.618C240.739 682.41 238.099 682.19 235.484 681.958L235.351 683.452L235.218 684.946C237.844 685.179 240.495 685.4 243.171 685.608L243.287 684.113ZM227.564 682.716L227.714 681.223C224.983 680.949 222.279 680.662 219.604 680.361L219.436 681.851L219.268 683.342C221.956 683.644 224.671 683.933 227.415 684.208L227.564 682.716ZM211.341 680.888L211.528 679.4C208.864 679.065 206.23 678.717 203.623 678.356L203.417 679.842L203.211 681.327C205.83 681.691 208.478 682.041 211.154 682.376L211.341 680.888ZM195.664 678.714L195.89 677.231C193.185 676.819 190.512 676.392 187.871 675.95L187.623 677.43L187.376 678.909C190.032 679.353 192.719 679.782 195.438 680.197L195.664 678.714ZM179.596 676.025L179.866 674.549C177.231 674.068 174.629 673.571 172.059 673.059L171.766 674.53L171.473 676.001C174.059 676.516 176.676 677.016 179.327 677.501L179.596 676.025ZM164.132 672.947L164.448 671.48C161.732 670.894 159.055 670.291 156.415 669.672L156.072 671.132L155.73 672.593C158.387 673.216 161.082 673.823 163.815 674.413L164.132 672.947ZM148.221 669.214L148.591 667.76C146.021 667.107 143.489 666.437 140.994 665.752L140.597 667.199L140.199 668.645C142.713 669.335 145.264 670.01 147.852 670.668L148.221 669.214ZM132.858 664.989L133.285 663.551C130.654 662.77 128.068 661.971 125.525 661.155L125.067 662.583L124.608 664.012C127.173 664.835 129.78 665.64 132.431 666.427L132.858 664.989ZM117.537 660.073L118.028 658.655C115.494 657.777 113.006 656.882 110.564 655.969L110.038 657.374L109.513 658.779C111.979 659.701 114.49 660.604 117.046 661.49L117.537 660.073ZM102.42 654.411L102.982 653.021C100.505 652.019 98.0793 650.999 95.7034 649.961L95.1029 651.335L94.5023 652.71C96.904 653.759 99.3554 654.79 101.857 655.802L102.42 654.411ZM87.8085 648.019L88.4497 646.663C85.9742 645.493 83.5575 644.302 81.199 643.092L80.5141 644.426L79.8293 645.761C82.2172 646.986 84.663 648.191 87.1673 649.375L87.8085 648.019ZM73.5681 640.714L74.2976 639.404C71.8998 638.069 69.5679 636.714 67.3011 635.338L66.523 636.621L65.7449 637.903C68.0445 639.298 70.4089 640.673 72.8387 642.025L73.5681 640.714ZM59.7522 632.328L60.5808 631.078C58.3459 629.597 56.1815 628.096 54.0866 626.575L53.2055 627.789L52.3244 629.003C54.4545 630.549 56.654 632.075 58.9237 633.579L59.7522 632.328ZM46.7482 622.869L47.6854 621.698C45.6162 620.042 43.6243 618.366 41.7086 616.672L40.7149 617.796L39.7211 618.919C41.6745 620.647 43.7041 622.354 45.811 624.04L46.7482 622.869ZM34.7451 612.218L35.7994 611.151C33.9166 609.291 32.1204 607.411 30.4092 605.514L29.2953 606.518L28.1814 607.523C29.9318 609.464 31.7679 611.385 33.6908 613.285L34.7451 612.218ZM24.0247 600.288L25.2007 599.357C23.5557 597.28 22.0074 595.184 20.554 593.073L19.3185 593.924L18.083 594.774C19.5749 596.941 21.163 599.09 22.8487 601.219L24.0247 600.288ZM14.9544 587.066L16.2488 586.308C14.9057 584.014 13.6694 581.706 12.5377 579.385L11.1895 580.042L9.84119 580.699C11.0066 583.09 12.279 585.465 13.66 587.824L14.9544 587.066ZM7.94746 572.654L9.34447 572.107C8.37596 569.63 7.52183 567.142 6.77969 564.647L5.34193 565.075L3.90417 565.502C4.67031 568.078 5.55167 570.645 6.55045 573.2L7.94746 572.654ZM3.38719 557.297L4.85636 556.995C4.32114 554.396 3.90362 551.792 3.60126 549.186L2.11126 549.359L0.621259 549.532C0.933698 552.224 1.3651 554.915 1.91801 557.6L3.38719 557.297ZM1.53637 541.366L3.03577 541.324C2.96159 538.685 3.00305 536.048 3.15763 533.418L1.66022 533.33L0.162799 533.242C0.00316846 535.958 -0.0396913 538.682 0.0369598 541.408L1.53637 541.366ZM2.47168 525.347L3.95626 525.562C4.33281 522.957 4.8192 520.361 5.41298 517.779L3.95113 517.442L2.48928 517.106C1.87728 519.768 1.37563 522.445 0.987111 525.133L2.47168 525.347ZM6.05626 509.711L7.48698 510.162C8.27716 507.653 9.16882 505.16 10.1597 502.688L8.76733 502.13L7.37499 501.572C6.35633 504.114 5.43896 506.678 4.62554 509.26L6.05626 509.711ZM12.0179 494.804L13.3663 495.461C14.5152 493.103 15.7554 490.767 17.0849 488.458L15.7848 487.709L14.4848 486.961C13.1216 489.329 11.849 491.726 10.6694 494.147L12.0179 494.804ZM20.0281 480.871L21.2763 481.703C22.727 479.526 24.2588 477.376 25.8698 475.257L24.6756 474.349L23.4815 473.442C21.8335 475.61 20.2656 477.81 18.7799 480.039L20.0281 480.871ZM29.7572 468.066L30.8951 469.043C32.5954 467.064 34.3672 465.115 36.2088 463.2L35.1276 462.16L34.0464 461.121C32.1664 463.076 30.3567 465.066 28.6193 467.089L29.7572 468.066ZM40.8906 456.487L41.9136 457.584C43.8234 455.803 45.7965 454.056 47.8314 452.346L46.8661 451.197L45.9009 450.049C43.8271 451.793 41.8154 453.574 39.8676 455.39L40.8906 456.487ZM53.1795 446.156L54.0861 447.351C56.1703 445.769 58.3107 444.224 60.5058 442.718L59.6571 441.481L58.8083 440.244C56.5743 441.777 54.3953 443.35 52.2729 444.961L53.1795 446.156ZM66.4241 437.066L67.2145 438.341C69.4393 436.962 71.7139 435.62 74.037 434.319L73.3039 433.01L72.5709 431.702C70.2094 433.025 67.8965 434.388 65.6337 435.791L66.4241 437.066ZM80.4465 429.212L81.1219 430.552C83.4579 429.374 85.8378 428.235 88.2605 427.137L87.6414 425.771L87.0224 424.405C84.562 425.519 82.1445 426.676 79.7711 427.873L80.4465 429.212ZM95.0935 422.578L95.6559 423.969C98.0778 422.99 100.539 422.05 103.037 421.152L102.53 419.741L102.023 418.329C99.4874 419.24 96.9898 420.194 94.5312 421.188L95.0935 422.578ZM110.19 417.156L110.642 418.587C113.143 417.796 115.679 417.047 118.249 416.34L117.851 414.893L117.453 413.447C114.847 414.164 112.275 414.924 109.738 415.726L110.19 417.156ZM125.653 412.902L125.997 414.361C127.304 414.053 128.62 413.756 129.943 413.469L129.626 412.003L129.309 410.537C127.967 410.827 126.634 411.129 125.308 411.442L125.653 412.902ZM129.626 412.003L129.943 413.469C130.931 413.255 132.025 413.039 133.222 412.821L132.953 411.346L132.685 409.87C131.462 410.092 130.335 410.315 129.309 410.537L129.626 412.003ZM141.401 410.009L141.61 411.494C143.864 411.177 146.311 410.856 148.943 410.53L148.759 409.042L148.576 407.553C145.929 407.88 143.466 408.203 141.192 408.524L141.401 410.009ZM157.096 408.065L157.263 409.555C159.715 409.281 162.288 409.004 164.978 408.723L164.822 407.232L164.666 405.74C161.971 406.021 159.39 406.299 156.93 406.574L157.096 408.065ZM172.698 406.431L172.846 407.924C175.569 407.654 178.391 407.381 181.31 407.104L181.168 405.611L181.027 404.117C178.104 404.395 175.277 404.669 172.55 404.939L172.698 406.431ZM188.744 404.903L188.882 406.397C191.441 406.161 194.064 405.922 196.751 405.681L196.617 404.187L196.482 402.693C193.794 402.935 191.168 403.173 188.607 403.409L188.744 404.903ZM204.868 403.453L204.999 404.948C207.608 404.718 210.27 404.485 212.984 404.25L212.854 402.756L212.725 401.261C210.01 401.497 207.347 401.729 204.736 401.959L204.868 403.453ZM220.587 402.089L220.715 403.584C223.336 403.359 226.001 403.132 228.708 402.902L228.582 401.407L228.455 399.913C225.746 400.143 223.08 400.37 220.458 400.595L220.587 402.089ZM236.833 400.709L236.959 402.204C239.566 401.984 242.21 401.761 244.889 401.536L244.763 400.041L244.638 398.547C241.958 398.772 239.314 398.994 236.706 399.214L236.833 400.709ZM252.534 399.39L252.659 400.884C255.281 400.665 257.934 400.443 260.618 400.218L260.493 398.723L260.368 397.228C257.684 397.453 255.031 397.675 252.408 397.895L252.534 399.39ZM268.637 398.042L268.762 399.537C271.456 399.311 274.18 399.083 276.931 398.852L276.806 397.358L276.681 395.863C273.929 396.093 271.206 396.321 268.512 396.547L268.637 398.042ZM284.541 396.709L284.667 398.203C287.269 397.985 289.896 397.764 292.545 397.541L292.419 396.046L292.293 394.551C289.644 394.774 287.018 394.995 284.416 395.214L284.541 396.709ZM300.434 395.369L300.561 396.864C303.256 396.636 305.973 396.405 308.712 396.172L308.585 394.678L308.458 393.183C305.719 393.416 303.002 393.646 300.308 393.874L300.434 395.369ZM316.639 393.991L316.767 395.485C319.345 395.265 321.943 395.042 324.558 394.817L324.429 393.323L324.301 391.828C321.686 392.053 319.089 392.276 316.511 392.496L316.639 393.991ZM332.327 392.641L332.456 394.135C335.106 393.906 337.774 393.674 340.459 393.44L340.328 391.946L340.198 390.451C337.514 390.685 334.847 390.917 332.197 391.146L332.327 392.641ZM348.432 391.236L348.563 392.73C351.255 392.494 353.962 392.255 356.685 392.014L356.553 390.52L356.421 389.025C353.698 389.267 350.991 389.505 348.3 389.742L348.432 391.236ZM364.353 389.826L364.486 391.32C367.101 391.086 369.729 390.85 372.37 390.613L372.236 389.119L372.101 387.625C369.46 387.863 366.833 388.098 364.219 388.332L364.353 389.826ZM380.198 388.398L380.334 389.892C383.002 389.649 385.682 389.405 388.376 389.158L388.239 387.664L388.102 386.17C385.409 386.417 382.729 386.662 380.062 386.904L380.198 388.398ZM396.355 386.916L396.493 388.409C399.129 388.165 401.777 387.918 404.436 387.67L404.296 386.176L404.156 384.683C401.499 384.931 398.852 385.178 396.216 385.422L396.355 386.916ZM412.154 385.438L412.295 386.931C414.925 386.682 417.565 386.432 420.216 386.179L420.073 384.686L419.931 383.192C417.281 383.445 414.642 383.696 412.012 383.944L412.154 385.438ZM428.053 383.92L428.197 385.413C430.867 385.156 433.547 384.896 436.236 384.634L436.091 383.141L435.945 381.648C433.257 381.91 430.578 382.17 427.909 382.427L428.053 383.92ZM444.185 382.348L444.332 383.84C446.956 383.582 449.589 383.321 452.23 383.058L452.081 381.565L451.933 380.072C449.293 380.335 446.661 380.596 444.038 380.855L444.185 382.348ZM459.964 380.775L460.115 382.268C462.751 382.002 465.395 381.735 468.046 381.465L467.894 379.972L467.742 378.48C465.092 378.75 462.449 379.018 459.814 379.283L459.964 380.775ZM475.868 379.155L476.022 380.647C478.688 380.373 481.361 380.096 484.04 379.816L483.885 378.325L483.729 376.833C481.051 377.112 478.379 377.389 475.714 377.663L475.868 379.155ZM491.943 377.48L492.1 378.971C494.734 378.694 497.375 378.414 500.021 378.131L499.862 376.64L499.702 375.148C497.057 375.43 494.418 375.71 491.786 375.988L491.943 377.48ZM507.755 375.792L507.916 377.283C510.554 376.999 513.197 376.711 515.846 376.422L515.683 374.931L515.52 373.44C512.872 373.729 510.231 374.016 507.594 374.301L507.755 375.792ZM523.642 374.056L523.807 375.547C526.466 375.252 529.13 374.956 531.799 374.657L531.632 373.166L531.465 371.676C528.798 371.974 526.135 372.271 523.477 372.565L523.642 374.056ZM539.651 372.262L539.82 373.753C542.47 373.452 545.123 373.15 547.781 372.844L547.61 371.354L547.439 369.864C544.783 370.169 542.13 370.472 539.482 370.772L539.651 372.262ZM555.509 370.441L555.683 371.931C558.32 371.624 560.962 371.315 563.607 371.004L563.432 369.514L563.256 368.024C560.613 368.336 557.973 368.645 555.336 368.951L555.509 370.441ZM571.375 368.572L571.553 370.062C574.205 369.746 576.861 369.427 579.519 369.105L579.339 367.616L579.159 366.127C576.502 366.448 573.848 366.767 571.198 367.083L571.375 368.572ZM587.321 366.645L587.503 368.134C590.163 367.809 592.825 367.48 595.49 367.15L595.306 365.661L595.121 364.173C592.458 364.503 589.797 364.831 587.139 365.156L587.321 366.645ZM603.211 364.674L603.398 366.162C606.036 365.831 608.677 365.497 611.319 365.16L611.13 363.672L610.94 362.184C608.299 362.52 605.66 362.854 603.024 363.186L603.211 364.674ZM619.06 362.655L619.253 364.142C621.899 363.801 624.547 363.457 627.196 363.11L627.002 361.623L626.807 360.135C624.159 360.482 621.513 360.826 618.868 361.167L619.06 362.655ZM634.952 360.575L635.149 362.062C637.802 361.71 640.455 361.355 643.11 360.998L642.91 359.512L642.71 358.025C640.057 358.382 637.405 358.736 634.755 359.088L634.952 360.575ZM650.841 358.438L651.044 359.924C653.684 359.564 656.325 359.201 658.966 358.836L658.76 357.35L658.555 355.864C655.915 356.229 653.276 356.591 650.638 356.951L650.841 358.438ZM666.683 356.246L666.892 357.732C669.534 357.361 672.176 356.988 674.819 356.612L674.608 355.127L674.396 353.642C671.756 354.017 669.115 354.39 666.475 354.761L666.683 356.246ZM682.532 353.991L682.746 355.476C685.389 355.094 688.031 354.71 690.673 354.324L690.455 352.839L690.238 351.355C687.598 351.742 684.958 352.126 682.318 352.507L682.532 353.991ZM698.378 351.671L698.598 353.155C701.242 352.762 703.885 352.366 706.527 351.968L706.303 350.485L706.08 349.002C703.44 349.4 700.799 349.795 698.157 350.187L698.378 351.671ZM714.223 349.282L714.45 350.765C717.09 350.361 719.729 349.954 722.366 349.544L722.136 348.062L721.906 346.58C719.271 346.989 716.634 347.396 713.996 347.799L714.223 349.282ZM730.041 346.825L730.274 348.307C732.909 347.892 735.541 347.474 738.172 347.052L737.935 345.571L737.698 344.09C735.07 344.511 732.439 344.929 729.807 345.344L730.041 346.825ZM745.818 344.3L746.059 345.78C748.701 345.351 751.341 344.919 753.978 344.483L753.734 343.003L753.489 341.523C750.854 341.958 748.217 342.39 745.578 342.819L745.818 344.3ZM761.656 341.686L761.904 343.165C764.543 342.722 767.18 342.277 769.813 341.828L769.562 340.35L769.31 338.871C766.678 339.319 764.044 339.764 761.407 340.206L761.656 341.686ZM777.45 338.995L777.706 340.473C780.334 340.018 782.958 339.561 785.579 339.1L785.32 337.622L785.06 336.145C782.441 336.605 779.819 337.063 777.194 337.517L777.45 338.995ZM793.169 336.231L793.433 337.707C796.056 337.238 798.677 336.766 801.293 336.291L801.025 334.815L800.757 333.339C798.143 333.814 795.526 334.286 792.905 334.754L793.169 336.231ZM808.952 333.363L809.224 334.838C811.864 334.351 814.499 333.86 817.13 333.365L816.853 331.891L816.576 330.417C813.948 330.911 811.316 331.401 808.679 331.888L808.952 333.363ZM824.727 330.399L825.008 331.873C827.629 331.372 830.246 330.868 832.858 330.36L832.571 328.888L832.285 327.415C829.677 327.922 827.063 328.426 824.445 328.926L824.727 330.399ZM840.386 327.355L840.677 328.827C843.278 328.313 845.874 327.795 848.464 327.273L848.168 325.803L847.872 324.332C845.285 324.853 842.693 325.37 840.095 325.884L840.386 327.355ZM856.08 324.197L856.381 325.666C859.02 325.125 861.653 324.581 864.28 324.033L863.973 322.564L863.667 321.096C861.044 321.643 858.414 322.187 855.779 322.727L856.08 324.197ZM871.829 320.91L872.141 322.378C874.754 321.822 877.361 321.263 879.961 320.7L879.644 319.234L879.327 317.768C876.73 318.33 874.127 318.889 871.517 319.443L871.829 320.91ZM887.417 317.536L887.74 319.001C890.326 318.431 892.905 317.856 895.476 317.279L895.147 315.815L894.818 314.352C892.251 314.929 889.676 315.502 887.094 316.071L887.417 317.536ZM903.001 314.033L903.336 315.495C905.972 314.891 908.6 314.283 911.219 313.67L910.878 312.21L910.537 310.749C907.922 311.36 905.298 311.968 902.666 312.571L903.001 314.033ZM918.703 310.362L919.051 311.821C921.653 311.201 924.246 310.576 926.83 309.947L926.475 308.49L926.121 307.033C923.541 307.66 920.953 308.284 918.356 308.903L918.703 310.362ZM934.192 306.593L934.553 308.049C937.118 307.411 939.674 306.77 942.22 306.125L941.851 304.671L941.482 303.217C938.941 303.861 936.391 304.501 933.83 305.137L934.192 306.593ZM949.662 302.668L950.038 304.12C952.665 303.44 955.281 302.755 957.885 302.065L957.501 300.615L957.117 299.165C954.518 299.853 951.907 300.537 949.286 301.216L949.662 302.668ZM965.272 298.533L965.665 299.981C968.246 299.282 970.816 298.578 973.374 297.869L972.973 296.424L972.573 294.978C970.021 295.685 967.456 296.388 964.88 297.085L965.272 298.533ZM980.602 294.286L981.012 295.729C983.545 295.011 986.067 294.288 988.575 293.56L988.157 292.12L987.739 290.679C985.237 291.405 982.721 292.126 980.193 292.843L980.602 294.286ZM995.974 289.824L996.402 291.262C999.006 290.487 1001.6 289.708 1004.17 288.923L1003.73 287.488L1003.3 286.053C1000.73 286.836 998.145 287.614 995.547 288.386L995.974 289.824ZM1011.41 285.12L1011.85 286.551C1014.4 285.755 1016.93 284.954 1019.45 284.147L1018.99 282.719L1018.53 281.291C1016.02 282.095 1013.5 282.894 1010.96 283.688L1011.41 285.12ZM1026.47 280.286L1026.94 281.71C1029.49 280.872 1032.02 280.028 1034.53 279.178L1034.05 277.757L1033.57 276.336C1031.06 277.184 1028.54 278.025 1026 278.861L1026.47 280.286ZM1041.77 275.107L1042.26 276.524C1044.82 275.633 1047.36 274.735 1049.88 273.831L1049.38 272.419L1048.87 271.007C1046.36 271.908 1043.83 272.802 1041.28 273.691L1041.77 275.107ZM1056.87 269.694L1057.39 271.101C1059.87 270.184 1062.33 269.261 1064.78 268.332L1064.24 266.93L1063.71 265.528C1061.28 266.454 1058.82 267.373 1056.35 268.287L1056.87 269.694ZM1071.61 264.082L1072.16 265.479C1074.73 264.47 1077.27 263.453 1079.79 262.429L1079.23 261.039L1078.66 259.65C1076.15 260.669 1073.62 261.681 1071.06 262.686L1071.61 264.082ZM1086.7 257.951L1087.29 259.334C1089.76 258.295 1092.21 257.248 1094.63 256.193L1094.03 254.818L1093.43 253.443C1091.02 254.492 1088.58 255.534 1086.12 256.568L1086.7 257.951ZM1101.2 251.639L1101.82 253.006C1104.26 251.903 1106.68 250.792 1109.07 249.672L1108.43 248.314L1107.79 246.956C1105.42 248.069 1103.02 249.175 1100.58 250.272L1101.2 251.639ZM1115.83 244.772L1116.49 246.12C1118.93 244.926 1121.35 243.724 1123.73 242.511L1123.04 241.175L1122.36 239.838C1120 241.043 1117.6 242.238 1115.17 243.424L1115.83 244.772ZM1130.06 237.523L1130.76 238.847C1133.08 237.616 1135.36 236.375 1137.6 235.125L1136.87 233.815L1136.14 232.504C1133.91 233.745 1131.65 234.976 1129.35 236.198L1130.06 237.523ZM1144.02 229.736L1144.78 231.031C1147.15 229.642 1149.48 228.241 1151.77 226.829L1150.98 225.552L1150.2 224.276C1147.93 225.675 1145.62 227.064 1143.26 228.442L1144.02 229.736ZM1157.69 221.3L1158.51 222.557C1160.71 221.121 1162.87 219.673 1164.99 218.213L1164.14 216.979L1163.29 215.744C1161.19 217.188 1159.05 218.621 1156.87 220.043L1157.69 221.3ZM1170.8 212.233L1171.69 213.44C1173.91 211.803 1176.08 210.151 1178.19 208.485L1177.26 207.307L1176.33 206.13C1174.25 207.775 1172.11 209.407 1169.91 211.025L1170.8 212.233ZM1183.39 202.296L1184.36 203.439C1186.37 201.73 1188.32 200.007 1190.21 198.267L1189.2 197.163L1188.18 196.058C1186.32 197.77 1184.4 199.468 1182.42 201.152L1183.39 202.296ZM1195.16 191.432L1196.22 192.489C1198.15 190.544 1200.01 188.579 1201.79 186.596L1200.67 185.594L1199.56 184.592C1197.81 186.537 1195.99 188.465 1194.09 190.376L1195.16 191.432ZM1205.74 179.646L1206.9 180.586C1208.63 178.436 1210.28 176.264 1211.83 174.07L1210.6 173.204L1209.38 172.337C1207.86 174.479 1206.26 176.602 1204.57 178.705L1205.74 179.646ZM1215.04 166.46L1216.32 167.241C1217.73 164.94 1219.03 162.616 1220.24 160.267L1218.9 159.582L1217.57 158.897C1216.4 161.179 1215.13 163.439 1213.76 165.679L1215.04 166.46ZM1222.26 152.342L1223.65 152.918C1224.7 150.391 1225.63 147.837 1226.46 145.256L1225.03 144.801L1223.6 144.347C1222.8 146.844 1221.9 149.317 1220.88 151.767L1222.26 152.342ZM1227.1 137.106L1228.57 137.431C1229.15 134.811 1229.61 132.164 1229.95 129.49L1228.47 129.3L1226.98 129.109C1226.65 131.691 1226.2 134.249 1225.64 136.781L1227.1 137.106ZM1229.12 121.36L1230.62 121.415C1230.72 118.697 1230.69 115.953 1230.54 113.184L1229.05 113.264L1227.55 113.344C1227.69 116.025 1227.71 118.678 1227.62 121.305L1229.12 121.36ZM1228.3 105.445L1229.78 105.24C1229.42 102.632 1228.95 100.003 1228.38 97.3516L1226.91 97.6715L1225.44 97.9914C1226.01 100.568 1226.46 103.12 1226.81 105.649L1228.3 105.445ZM1224.87 89.7604L1226.31 89.3325C1225.9 87.9856 1225.48 86.6333 1225.02 85.2756L1223.6 85.7543L1222.18 86.2331C1222.62 87.5576 1223.04 88.876 1223.43 90.1882L1224.87 89.7604ZM1223.6 85.7543L1225.02 85.2756C1224.58 83.9597 1224.1 82.6616 1223.59 81.3812L1222.2 81.9356L1220.8 82.4901C1221.29 83.7205 1221.75 84.9681 1222.18 86.2331L1223.6 85.7543ZM1218.82 74.6088L1220.14 73.9087C1218.86 71.4807 1217.45 69.1234 1215.92 66.8355L1214.67 67.6702L1213.43 68.5049C1214.9 70.7075 1216.26 72.975 1217.49 75.3088L1218.82 74.6088ZM1209.86 61.2031L1211.02 60.2497C1209.29 58.1472 1207.44 56.1102 1205.49 54.1371L1204.42 55.1923L1203.36 56.2475C1205.25 58.1579 1207.03 60.1272 1208.7 62.1565L1209.86 61.2031ZM1198.51 49.7009L1199.49 48.5615C1197.45 46.814 1195.31 45.1222 1193.09 43.4849L1192.2 44.6929L1191.31 45.901C1193.48 47.4966 1195.55 49.1427 1197.54 50.8403L1198.51 49.7009ZM1185.48 40.0869L1186.28 38.8229C1184.04 37.3888 1181.72 36.0012 1179.32 34.6589L1178.59 35.9673L1177.86 37.2757C1180.2 38.5911 1182.48 39.9493 1184.67 41.351L1185.48 40.0869ZM1171.42 32.1929L1172.09 30.8486C1169.69 29.6588 1167.22 28.5087 1164.69 27.3974L1164.08 28.7707L1163.48 30.144C1165.97 31.2378 1168.4 32.3686 1170.76 33.5373L1171.42 32.1929ZM1156.64 25.6832L1157.19 24.2866C1154.68 23.303 1152.12 22.3534 1149.5 21.4372L1149.01 22.8528L1148.51 24.2684C1151.09 25.1731 1153.62 26.11 1156.1 27.0798L1156.64 25.6832ZM1141.39 20.3238L1141.84 18.8929C1139.27 18.0825 1136.64 17.3015 1133.98 16.5493L1133.57 17.9928L1133.16 19.4364C1135.8 20.181 1138.39 20.9535 1140.94 21.7547L1141.39 20.3238ZM1125.83 15.9192L1126.2 14.4654C1123.58 13.8007 1120.93 13.1616 1118.23 12.5475L1117.9 14.0099L1117.57 15.4723C1120.24 16.0812 1122.87 16.7146 1125.46 17.373L1125.83 15.9192ZM1110.06 12.3121L1110.36 10.8427C1107.72 10.3012 1105.05 9.78216 1102.35 9.28499L1102.07 10.7602L1101.8 12.2355C1104.49 12.7291 1107.14 13.2443 1109.76 13.7814L1110.06 12.3121ZM1094.14 9.37808L1094.38 7.89803C1091.74 7.46152 1089.06 7.04475 1086.35 6.64731L1086.14 8.13136L1085.92 9.61541C1088.61 10.0104 1091.27 10.4245 1093.9 10.8581L1094.14 9.37808ZM1078.12 7.01932L1078.31 5.53196C1075.66 5.1855 1072.98 4.8566 1070.29 4.54489L1070.11 6.03499L1069.94 7.52508C1072.63 7.83512 1075.29 8.16221 1077.92 8.50669L1078.12 7.01932ZM1062.02 5.1582L1062.17 3.66584C1059.52 3.39733 1056.85 3.14456 1054.16 2.90719L1054.02 4.40139L1053.89 5.89559C1056.57 6.13184 1059.23 6.3834 1061.87 6.65057L1062.02 5.1582ZM1045.91 3.73673L1046.03 2.24102C1043.36 2.03902 1040.68 1.85141 1037.98 1.6779L1037.88 3.17481L1037.79 4.67173C1040.47 4.84452 1043.15 5.03133 1045.8 5.23244L1045.91 3.73673ZM1029.8 2.70019L1029.88 1.20232C1027.19 1.05872 1024.48 0.928506 1021.76 0.811398L1021.7 2.31001L1021.63 3.80863C1024.35 3.9253 1027.04 4.05502 1029.72 4.19806L1029.8 2.70019ZM1013.65 2.00333L1013.7 0.504164C1011 0.414201 1008.29 0.336599 1005.56 0.271091L1005.53 1.77066L1005.49 3.27023C1008.21 3.33552 1010.91 3.41285 1013.6 3.5025L1013.65 2.00333ZM997.469 1.6127L997.492 0.112871C994.804 0.0718344 992.104 0.0420864 989.393 0.0233794L989.383 1.52334L989.372 3.02331C992.075 3.04196 994.766 3.07162 997.446 3.11252L997.469 1.6127ZM981.261 1.5001L981.259 0.000100136C978.581 0.00308597 975.894 0.0164387 973.197 0.0399261L973.21 1.53987L973.223 3.03981C975.913 3.01639 978.593 3.00308 981.262 3.0001L981.261 1.5001ZM965.103 1.64037L965.079 0.14056C962.388 0.183687 959.69 0.236537 956.983 0.298885L957.017 1.79849L957.052 3.29809C959.752 3.2359 962.444 3.18319 965.127 3.14017L965.103 1.64037ZM948.947 2.01163L948.902 0.512296C946.201 0.592636 943.493 0.682106 940.778 0.780485L940.832 2.2795L940.887 3.77852C943.595 3.68037 946.297 3.59111 948.991 3.51097L948.947 2.01163ZM932.773 2.59673L932.709 1.09808C930.019 1.21227 927.323 1.33491 924.622 1.46579L924.694 2.96404L924.767 4.46228C927.462 4.33168 930.152 4.20931 932.836 4.09538L932.773 2.59673ZM916.594 3.38021L916.513 1.88241C913.83 2.02799 911.143 2.18143 908.451 2.34253L908.541 3.83985L908.63 5.33717C911.316 5.1764 913.998 5.02327 916.675 4.878L916.594 3.38021ZM900.463 4.34542L900.365 2.8486C897.673 3.02433 894.978 3.20748 892.28 3.39783L892.385 4.89412L892.491 6.3904C895.184 6.2004 897.874 6.01761 900.561 5.84223L900.463 4.34542ZM884.329 5.48308L884.216 3.98735C881.526 4.19087 878.833 4.40132 876.138 4.61852L876.259 6.11368L876.379 7.60883C879.069 7.39202 881.757 7.18194 884.443 6.97881L884.329 5.48308ZM868.198 6.78288L868.07 5.28832C865.384 5.51772 862.697 5.75361 860.01 5.99578L860.144 7.48973L860.279 8.98368C862.962 8.74192 865.644 8.50644 868.325 8.27744L868.198 6.78288ZM852.086 8.23429L851.944 6.74097C849.259 6.99521 846.573 7.25554 843.887 7.52174L844.035 9.01443L844.183 10.5071C846.865 10.2413 849.546 9.98144 852.227 9.72762L852.086 8.23429ZM835.989 9.82956L835.835 8.33753C833.151 8.6152 830.468 8.89856 827.787 9.1874L827.948 10.6788L828.108 12.1701C830.786 11.8817 833.464 11.5988 836.143 11.3216L835.989 9.82956ZM819.902 11.5623L819.735 10.0716C817.053 10.3717 814.372 10.6771 811.695 10.9876L811.867 12.4776L812.04 13.9676C814.714 13.6576 817.391 13.3526 820.069 13.053L819.902 11.5623ZM803.84 13.4244L803.661 11.9351C800.976 12.2572 798.294 12.5841 795.616 12.9159L795.8 14.4045L795.985 15.8932C798.659 15.5619 801.337 15.2353 804.018 14.9138L803.84 13.4244ZM787.782 15.4132L787.592 13.9252C784.912 14.2674 782.237 14.6142 779.566 14.9654L779.761 16.4526L779.957 17.9398C782.624 17.5891 785.296 17.2428 787.972 16.9011L787.782 15.4132ZM771.733 17.5233L771.532 16.0368C768.859 16.3982 766.191 16.7639 763.529 17.1335L763.735 18.6193L763.942 20.105C766.6 19.7358 769.264 19.3707 771.934 19.0097L771.733 17.5233ZM755.714 19.7477L755.503 18.2627C752.824 18.6445 750.151 19.0302 747.485 19.4195L747.702 20.9038L747.919 22.388C750.581 21.9992 753.25 21.614 755.926 21.2327L755.714 19.7477ZM739.732 22.082L739.511 20.5985C736.824 21.0004 734.145 21.4059 731.475 21.8148L731.702 23.2975L731.929 24.7802C734.596 24.3719 737.271 23.9669 739.954 23.5655L739.732 22.082ZM723.714 24.5344L723.482 23.0524C720.814 23.47 718.156 23.8908 715.508 24.3145L715.745 25.7957L715.982 27.2768C718.627 26.8537 721.282 26.4334 723.946 26.0163L723.714 24.5344ZM707.727 27.0923L707.485 25.612C704.822 26.0473 702.169 26.4855 699.527 26.9262L699.774 28.4058L700.02 29.8853C702.659 29.4451 705.309 29.0075 707.969 28.5727L707.727 27.0923ZM691.784 29.7523L691.532 28.2736C688.856 28.7291 686.193 29.187 683.543 29.6471L683.799 31.125L684.056 32.6029C686.703 32.1433 689.363 31.686 692.035 31.231L691.784 29.7523ZM675.89 32.5115L675.629 31.0344C672.937 31.5108 670.26 31.9892 667.598 32.4694L667.865 33.9456L668.131 35.4218C670.789 34.9422 673.463 34.4643 676.152 33.9885L675.89 32.5115ZM659.931 35.3904L659.66 33.9151C658.345 34.1568 657.034 34.3989 655.726 34.6414L656 36.1162L656.274 37.5911C657.579 37.3489 658.889 37.1071 660.202 36.8656L659.931 35.3904Z" fill="#7965C1"/>
</svg>
