<svg width="366" height="1327" viewBox="0 0 366 1327" fill="none" xmlns="http://www.w3.org/2000/svg">
<path d="M144.164 0C143.612 0 143.164 0.447715 143.164 1C143.164 1.55228 143.612 2 144.164 2V1V0ZM204.594 81.8846L203.596 81.9448L204.594 81.8846ZM90.1849 371.835L89.4126 371.2L90.1849 371.835ZM2.38838 597.148L3.3859 597.078L2.38838 597.148ZM364.726 847.755L363.727 847.806L364.726 847.755ZM73.7194 1195.76L74.7178 1195.82L73.7194 1195.76ZM330.489 1326.82C330.944 1327.14 331.567 1327.02 331.88 1326.57L336.98 1319.15C337.293 1318.7 337.178 1318.07 336.723 1317.76C336.268 1317.45 335.645 1317.56 335.332 1318.02L330.798 1324.61L324.207 1320.08C323.752 1319.76 323.129 1319.88 322.816 1320.33C322.504 1320.79 322.619 1321.41 323.074 1321.72L330.489 1326.82ZM144.164 1V2C144.806 2 145.447 2.01599 146.085 2.04771L146.135 1.04894L146.184 0.0501717C145.513 0.0168126 144.839 0 144.164 0V1ZM150.051 1.4375L149.904 2.4266C151.169 2.61492 152.425 2.86465 153.671 3.17388L153.912 2.20331L154.153 1.23275C152.846 0.908457 151.527 0.646261 150.198 0.448409L150.051 1.4375ZM157.686 3.32653L157.357 4.27109C158.562 4.68979 159.755 5.1643 160.936 5.69284L161.345 4.78011L161.753 3.86737C160.521 3.31589 159.274 2.82003 158.014 2.38198L157.686 3.32653ZM164.868 6.53322L164.387 7.40999C165.505 8.0235 166.61 8.6861 167.701 9.39615L168.247 8.55812L168.792 7.72009C167.661 6.98333 166.512 6.2948 165.348 5.65646L164.868 6.53322ZM171.469 10.8232L170.866 11.621C171.884 12.3904 172.887 13.2021 173.874 14.0545L174.528 13.2977L175.181 12.541C174.163 11.6609 173.126 10.8218 172.072 10.0255L171.469 10.8232ZM177.427 15.9618L176.729 16.6775C177.645 17.572 178.546 18.5028 179.429 19.4684L180.167 18.7935L180.905 18.1186C179.997 17.1257 179.07 16.1677 178.125 15.2461L177.427 15.9618ZM182.748 21.7729L181.975 22.4076C182.789 23.3983 183.586 24.4199 184.364 25.4711L185.168 24.8759L185.971 24.2807C185.173 23.2032 184.356 22.1553 183.521 21.1382L182.748 21.7729ZM187.434 28.0937L186.603 28.6502C187.319 29.7182 188.016 30.8126 188.695 31.9323L189.55 31.4137L190.406 30.8952C189.711 29.7502 188.997 28.6305 188.265 27.5372L187.434 28.0937ZM191.519 34.8242L190.643 35.3056C191.263 36.4347 191.865 37.5864 192.448 38.7597L193.343 38.3148L194.239 37.8699C193.644 36.6723 193.029 35.4963 192.396 34.3428L191.519 34.8242ZM195.025 41.8763L194.113 42.2854C194.64 43.4628 195.15 44.6595 195.639 45.8746L196.567 45.5007L197.494 45.1268C196.995 43.8882 196.476 42.6681 195.937 41.4672L195.025 41.8763ZM197.971 49.1804L197.031 49.5197C197.469 50.7349 197.888 51.9666 198.288 53.214L199.24 52.9089L200.192 52.6038C199.785 51.3336 199.358 50.0791 198.912 48.8412L197.971 49.1804ZM200.375 56.6801L199.413 56.9515C199.764 58.196 200.095 59.4546 200.407 60.7265L201.378 60.4884L202.35 60.2503C202.032 58.9562 201.695 57.6754 201.338 56.4087L200.375 56.6801ZM202.251 64.3285L201.272 64.5336C201.537 65.8001 201.783 67.0785 202.009 68.3681L202.994 68.1957L203.979 68.0233C203.749 66.7118 203.499 65.4117 203.23 64.1235L202.251 64.3285ZM203.609 72.0852L202.619 72.2253C202.8 73.5073 202.962 74.7993 203.103 76.1007L204.097 75.9928L205.092 75.8848C204.948 74.562 204.784 73.2485 204.599 71.9452L203.609 72.0852ZM204.46 79.9141L203.463 79.9902C203.512 80.6396 203.557 81.2912 203.596 81.9448L204.594 81.8846L205.592 81.8245C205.552 81.1603 205.507 80.4981 205.457 79.8381L204.46 79.9141ZM204.594 81.8846L203.596 81.9448C203.635 82.5994 203.672 83.2552 203.706 83.9121L204.704 83.8609L205.703 83.8096C205.669 83.1468 205.632 82.4851 205.592 81.8245L204.594 81.8846ZM204.873 87.8328L203.874 87.8665C203.918 89.184 203.951 90.5056 203.973 91.8314L204.973 91.8148L205.973 91.7982C205.951 90.4612 205.917 89.1281 205.873 87.7991L204.873 87.8328ZM205.006 95.7854H204.006C204.006 97.106 203.995 98.4305 203.974 99.7588L204.973 99.775L205.973 99.7912C205.995 98.4523 206.006 97.117 206.006 95.7854H205.006ZM204.878 103.739L203.878 103.707C203.836 105.027 203.784 106.35 203.721 107.677L204.72 107.724L205.719 107.771C205.782 106.435 205.835 105.101 205.877 103.771L204.878 103.739ZM204.503 111.687L203.505 111.625C203.423 112.941 203.331 114.26 203.229 115.582L204.227 115.659L205.224 115.736C205.326 114.404 205.418 113.075 205.501 111.749L204.503 111.687ZM203.894 119.622L202.898 119.531C202.778 120.843 202.65 122.157 202.511 123.474L203.506 123.578L204.5 123.683C204.64 122.357 204.769 121.033 204.89 119.713L203.894 119.622ZM203.063 127.539L202.07 127.421C201.915 128.727 201.751 130.036 201.578 131.346L202.57 131.477L203.561 131.608C203.735 130.289 203.9 128.972 204.056 127.657L203.063 127.539ZM202.023 135.428L201.033 135.285C200.844 136.586 200.647 137.89 200.441 139.196L201.429 139.351L202.417 139.507C202.624 138.193 202.823 136.882 203.012 135.572L202.023 135.428ZM200.785 143.281L199.799 143.113C199.578 144.413 199.348 145.715 199.11 147.018L200.094 147.198L201.078 147.377C201.317 146.066 201.548 144.756 201.771 143.448L200.785 143.281ZM199.358 151.104L198.376 150.913C198.124 152.211 197.863 153.51 197.595 154.811L198.574 155.014L199.554 155.216C199.824 153.907 200.086 152.6 200.339 151.294L199.358 151.104ZM197.751 158.895L196.774 158.682C196.492 159.973 196.203 161.266 195.906 162.56L196.881 162.783L197.856 163.007C198.154 161.706 198.445 160.406 198.728 159.107L197.751 158.895ZM195.972 166.651L195 166.417C194.691 167.7 194.375 168.984 194.051 170.269L195.021 170.513L195.991 170.757C196.316 169.466 196.634 168.175 196.944 166.885L195.972 166.651ZM194.029 174.372L193.062 174.118C192.727 175.392 192.385 176.667 192.037 177.943L193.001 178.207L193.966 178.47C194.316 177.188 194.66 175.907 194.996 174.626L194.029 174.372ZM191.931 182.046L190.969 181.773C190.609 183.041 190.242 184.31 189.868 185.579L190.828 185.862L191.787 186.144C192.163 184.869 192.531 183.594 192.893 182.319L191.931 182.046ZM189.686 189.673L188.73 189.381C188.344 190.646 187.952 191.911 187.553 193.176L188.507 193.477L189.461 193.777C189.861 192.506 190.255 191.235 190.643 189.964L189.686 189.673ZM187.297 197.26L186.346 196.95C185.937 198.209 185.521 199.467 185.1 200.726L186.048 201.043L186.996 201.361C187.42 200.097 187.837 198.833 188.248 197.569L187.297 197.26ZM184.769 204.805L183.824 204.479C183.393 205.728 182.956 206.977 182.513 208.225L183.455 208.56L184.398 208.894C184.843 207.64 185.282 206.385 185.714 205.131L184.769 204.805ZM182.108 212.307L181.168 211.965C180.716 213.205 180.259 214.444 179.795 215.683L180.732 216.034L181.668 216.384C182.134 215.14 182.594 213.895 183.047 212.65L182.108 212.307ZM179.321 219.758L178.387 219.4C177.914 220.633 177.436 221.866 176.951 223.098L177.882 223.464L178.813 223.83C179.299 222.592 179.78 221.354 180.255 220.116L179.321 219.758ZM176.412 227.159L175.484 226.786C174.99 228.014 174.49 229.241 173.985 230.468L174.91 230.848L175.835 231.229C176.342 229.998 176.843 228.765 177.34 227.532L176.412 227.159ZM173.383 234.515L172.461 234.127C171.948 235.346 171.429 236.565 170.905 237.782L171.823 238.178L172.742 238.573C173.268 237.351 173.789 236.127 174.304 234.903L173.383 234.515ZM170.237 241.825L169.321 241.423C168.789 242.633 168.252 243.842 167.71 245.05L168.623 245.459L169.535 245.868C170.079 244.656 170.618 243.442 171.152 242.228L170.237 241.825ZM166.978 249.086L166.069 248.67C165.519 249.871 164.964 251.071 164.404 252.27L165.31 252.693L166.216 253.116C166.778 251.913 167.335 250.708 167.888 249.503L166.978 249.086ZM163.613 256.292L162.71 255.862C162.142 257.056 161.568 258.25 160.99 259.442L161.889 259.878L162.789 260.315C163.37 259.119 163.945 257.921 164.516 256.722L163.613 256.292ZM160.141 263.449L159.244 263.006C158.658 264.192 158.067 265.377 157.471 266.561L158.364 267.01L159.257 267.46C159.855 266.272 160.449 265.083 161.037 263.892L160.141 263.449ZM156.563 270.556L155.673 270.1C155.07 271.278 154.462 272.453 153.85 273.627L154.737 274.09L155.623 274.552C156.238 273.374 156.848 272.194 157.453 271.012L156.563 270.556ZM152.884 277.612L152.001 277.143C151.381 278.312 150.756 279.478 150.128 280.643L151.008 281.118L151.888 281.593C152.519 280.424 153.145 279.253 153.767 278.081L152.884 277.612ZM149.106 284.612L148.23 284.131C147.593 285.291 146.952 286.45 146.307 287.606L147.18 288.093L148.053 288.58C148.701 287.42 149.344 286.258 149.983 285.093L149.106 284.612ZM145.23 291.56L144.36 291.066C143.707 292.218 143.05 293.367 142.389 294.514L143.255 295.013L144.122 295.513C144.785 294.362 145.444 293.209 146.1 292.053L145.23 291.56ZM141.257 298.453L140.394 297.948C139.725 299.09 139.052 300.23 138.375 301.367L139.235 301.879L140.094 302.39C140.773 301.249 141.448 300.105 142.12 298.958L141.257 298.453ZM137.189 305.29L136.333 304.773C135.648 305.906 134.959 307.037 134.267 308.165L135.119 308.688L135.971 309.211C136.666 308.079 137.357 306.944 138.045 305.807L137.189 305.29ZM133.027 312.07L132.178 311.541C131.478 312.665 130.774 313.786 130.066 314.905L130.911 315.439L131.756 315.974C132.466 314.852 133.173 313.727 133.876 312.599L133.027 312.07ZM128.771 318.794L127.93 318.253C127.215 319.367 126.496 320.477 125.774 321.584L126.611 322.13L127.449 322.677C128.173 321.566 128.895 320.452 129.613 319.335L128.771 318.794ZM124.424 325.457L123.59 324.905C122.859 326.009 122.125 327.11 121.387 328.208L122.217 328.766L123.047 329.324C123.787 328.222 124.524 327.117 125.258 326.01L124.424 325.457ZM119.987 332.059L119.16 331.495C118.413 332.59 117.663 333.681 116.909 334.769L117.732 335.339L118.554 335.908C119.31 334.816 120.063 333.721 120.813 332.622L119.987 332.059ZM115.457 338.598L114.639 338.023C113.877 339.108 113.111 340.189 112.342 341.266L113.156 341.847L113.971 342.428C114.742 341.346 115.51 340.262 116.275 339.173L115.457 338.598ZM110.835 345.077L110.025 344.491C109.248 345.563 108.469 346.631 107.687 347.695L108.493 348.288L109.298 348.88C110.083 347.812 110.866 346.739 111.645 345.664L110.835 345.077ZM106.122 351.489L105.321 350.891C104.529 351.952 103.735 353.009 102.937 354.062L103.735 354.666L104.532 355.269C105.332 354.213 106.129 353.152 106.924 352.087L106.122 351.489ZM101.321 357.83L100.528 357.221C99.7199 358.272 98.9091 359.319 98.0957 360.362L98.8841 360.977L99.6726 361.592C100.489 360.545 101.303 359.494 102.114 358.439L101.321 357.83ZM96.4305 364.098L95.6466 363.477C94.8219 364.518 93.9946 365.555 93.1646 366.587L93.9439 367.214L94.7232 367.84C95.5563 366.805 96.3867 365.764 97.2144 364.719L96.4305 364.098ZM91.4417 370.302L90.6671 369.669C90.2496 370.181 89.8314 370.691 89.4126 371.2L90.1849 371.835L90.9571 372.471C91.3775 371.96 91.7972 371.448 92.2164 370.934L91.4417 370.302ZM90.1849 371.835L89.4126 371.2C88.9745 371.733 88.5381 372.263 88.1034 372.791L88.8753 373.426L89.6472 374.062C90.0821 373.534 90.5188 373.004 90.9571 372.471L90.1849 371.835ZM86.2862 376.567L85.5148 375.931C84.6563 376.971 83.8044 378.003 82.9592 379.026L83.7302 379.663L84.5011 380.3C85.3465 379.276 86.1986 378.244 87.0575 377.203L86.2862 376.567ZM81.1199 382.821L80.3492 382.184C79.4863 383.228 78.6307 384.262 77.7821 385.289L78.5528 385.926L79.3235 386.563C80.172 385.537 81.0277 384.502 81.8906 383.458L81.1199 382.821ZM75.956 389.067L75.1851 388.43C74.318 389.48 73.4586 390.52 72.6068 391.552L73.3781 392.189L74.1494 392.825C75.0008 391.794 75.8599 390.753 76.7269 389.704L75.956 389.067ZM70.7997 395.317L70.0277 394.681C69.159 395.736 68.2985 396.783 67.4464 397.821L68.2194 398.455L68.9923 399.09C69.8437 398.052 70.7035 397.007 71.5716 395.952L70.7997 395.317ZM65.6589 401.581L64.8846 400.948C64.0175 402.009 63.1592 403.061 62.3098 404.106L63.0857 404.737L63.8616 405.368C64.7097 404.324 65.5669 403.273 66.4331 402.214L65.6589 401.581ZM60.545 407.871L59.7671 407.243C58.905 408.31 58.0525 409.369 57.2095 410.421L57.9898 411.046L58.7701 411.671C59.6114 410.622 60.4623 409.565 61.3228 408.5L60.545 407.871ZM55.4729 414.2L54.6898 413.579C53.8369 414.653 52.9942 415.719 52.1616 416.779L52.9481 417.397L53.7345 418.015C54.5647 416.958 55.4052 415.894 56.256 414.822L55.4729 414.2ZM50.4618 420.582L49.6716 419.969C48.8323 421.052 48.0038 422.127 47.1862 423.197L47.9808 423.805L48.7753 424.412C49.5899 423.346 50.4155 422.274 51.252 421.195L50.4618 420.582ZM45.535 427.031L44.7356 426.431C43.9148 427.523 43.1055 428.609 42.3077 429.691L43.1126 430.285L43.9174 430.878C44.7115 429.801 45.5171 428.72 46.3344 427.632L45.535 427.031ZM40.7204 433.563L39.9095 432.978C39.1125 434.082 38.3276 435.183 37.5548 436.279L38.3723 436.855L39.1897 437.431C39.958 436.341 40.7385 435.247 41.5312 434.149L40.7204 433.563ZM36.0497 440.195L35.2251 439.63C34.4558 440.751 33.6994 441.87 32.9557 442.987L33.7881 443.541L34.6205 444.095C35.3589 442.986 36.1101 441.875 36.8744 440.761L36.0497 440.195ZM31.5584 446.945L30.7177 446.403C29.9794 447.549 29.2545 448.695 28.543 449.84L29.3925 450.367L30.2419 450.895C30.9474 449.76 31.6664 448.623 32.3991 447.486L31.5584 446.945ZM27.2842 453.828L26.4255 453.316C25.7256 454.488 25.0397 455.662 24.3679 456.837L25.2361 457.334L26.1043 457.83C26.7696 456.666 27.4491 455.503 28.1428 454.341L27.2842 453.828ZM23.2627 460.867L22.3847 460.389C21.7317 461.586 21.0932 462.787 20.4691 463.992L21.3571 464.452L22.2451 464.912C22.8625 463.72 23.4944 462.532 24.1407 461.346L23.2627 460.867ZM19.5328 468.072L18.6348 467.631C18.0361 468.853 17.4521 470.08 16.8826 471.313L17.7904 471.732L18.6983 472.151C19.2612 470.932 19.8387 469.72 20.4307 468.512L19.5328 468.072ZM16.1342 475.433L15.2166 475.035C14.6766 476.281 14.1511 477.535 13.6402 478.797L14.5671 479.172L15.494 479.547C15.9988 478.3 16.5181 477.062 17.0517 475.83L16.1342 475.433ZM13.0912 482.949L12.1554 482.597C11.6781 483.864 11.2151 485.141 10.7663 486.428L11.7105 486.757L12.6547 487.086C13.0981 485.815 13.5555 484.554 14.027 483.302L13.0912 482.949ZM10.4195 490.61L9.46751 490.304C9.05451 491.589 8.65519 492.885 8.26951 494.193L9.22867 494.476L10.1878 494.759C10.569 493.466 10.9635 492.186 11.3716 490.916L10.4195 490.61ZM8.12813 498.379L7.1625 498.119C6.81105 499.425 6.47268 500.743 6.14734 502.075L7.11876 502.312L8.09018 502.549C8.41186 501.233 8.74638 499.93 9.09377 498.639L8.12813 498.379ZM6.20348 506.25L5.22697 506.035C4.93479 507.359 4.65498 508.696 4.38751 510.048L5.3685 510.242L6.34948 510.437C6.61416 509.099 6.89099 507.775 7.17999 506.466L6.20348 506.25ZM4.62783 514.203L3.64303 514.029C3.40835 515.36 3.18511 516.704 2.97326 518.064L3.96133 518.218L4.9494 518.372C5.15923 517.025 5.3803 515.694 5.61263 514.377L4.62783 514.203ZM3.3771 522.217L2.3863 522.081C2.20415 523.416 2.03249 524.764 1.8713 526.128L2.86438 526.245L3.85747 526.362C4.01728 525.011 4.18742 523.674 4.36791 522.352L3.3771 522.217ZM2.42337 530.272L1.42843 530.172C1.29346 531.508 1.16809 532.859 1.05229 534.225L2.04872 534.31L3.04514 534.394C3.16005 533.039 3.28444 531.698 3.41831 530.373L2.42337 530.272ZM1.7371 538.353L0.739504 538.284C0.64643 539.623 0.562137 540.976 0.486606 542.344L1.48509 542.399L2.48357 542.454C2.55858 541.096 2.64229 539.752 2.73469 538.423L1.7371 538.353ZM1.28907 546.448L0.289941 546.406C0.23386 547.749 0.18584 549.105 0.145864 550.477L1.14544 550.506L2.14501 550.535C2.18475 549.172 2.23248 547.823 2.2882 546.49L1.28907 546.448ZM1.05172 554.548L0.051866 554.531C0.0284557 555.88 0.0124887 557.243 0.00394899 558.62L1.00393 558.626L2.00391 558.633C2.01241 557.262 2.02829 555.907 2.05156 554.565L1.05172 554.548ZM0.99998 562.652L-1.12653e-05 562.656C0.00559771 564.015 0.0181309 565.388 0.0375742 566.775L1.03748 566.761L2.03738 566.747C2.01802 565.366 2.00555 564 1.99997 562.648L0.99998 562.652ZM1.11177 570.76L0.112036 570.783C0.143132 572.132 0.1805 573.495 0.224128 574.871L1.22363 574.84L2.22312 574.808C2.17967 573.437 2.14247 572.08 2.1115 570.737L1.11177 570.76ZM1.36806 578.879L0.36885 578.918C0.421981 580.255 0.480784 581.605 0.545248 582.967L1.54413 582.92L2.54301 582.873C2.47878 581.515 2.4202 580.171 2.36727 578.839L1.36806 578.879ZM1.75279 587.016L0.754273 587.07C0.826359 588.393 0.903568 589.727 0.985892 591.074L1.98403 591.013L2.98217 590.952C2.9001 589.609 2.82315 588.279 2.75131 586.961L1.75279 587.016ZM2.24593 595.084L1.2482 595.151C1.29447 595.837 1.34203 596.526 1.39086 597.218L2.38838 597.148L3.3859 597.078C3.33721 596.387 3.2898 595.7 3.24366 595.017L2.24593 595.084ZM2.38838 597.148L1.39086 597.218C1.44046 597.921 1.49302 598.621 1.54853 599.317L2.54536 599.238L3.5422 599.158C3.48718 598.468 3.43507 597.775 3.3859 597.078L2.38838 597.148ZM2.91194 603.354L1.91676 603.452C2.05119 604.816 2.19725 606.166 2.35481 607.503L3.34793 607.386L4.34105 607.269C4.18501 605.945 4.04031 604.607 3.90712 603.255L2.91194 603.354ZM3.85247 611.335L2.86183 611.471C3.04224 612.781 3.234 614.076 3.43698 615.358L4.42469 615.202L5.41239 615.046C5.21152 613.777 5.02171 612.494 4.84311 611.198L3.85247 611.335ZM5.08589 619.112L4.10173 619.289C4.34934 620.664 4.61023 622.022 4.88423 623.365L5.86405 623.165L6.84386 622.966C6.57297 621.638 6.31497 620.294 6.07005 618.935L5.08589 619.112ZM6.72019 627.124L5.74536 627.347C6.04538 628.659 6.35833 629.955 6.684 631.236L7.65317 630.99L8.62233 630.743C8.30066 629.478 7.99149 628.198 7.69501 626.901L6.72019 627.124ZM8.66185 634.763L7.69905 635.033C8.06889 636.351 8.45267 637.652 8.85017 638.937L9.80547 638.641L10.7608 638.345C10.3686 637.078 9.98977 635.794 9.62465 634.493L8.66185 634.763ZM11.0671 642.527L10.1204 642.849C10.5581 644.136 11.0102 645.405 11.4763 646.658L12.4135 646.309L13.3507 645.96C12.8913 644.726 12.4455 643.474 12.0138 642.205L11.0671 642.527ZM13.8432 649.989L12.9164 650.365C13.4205 651.609 13.939 652.835 14.4715 654.044L15.3867 653.641L16.3019 653.238C15.7774 652.047 15.2667 650.839 14.77 649.614L13.8432 649.989ZM17.0929 657.355L16.1909 657.787C16.7793 659.016 17.3829 660.227 18.0014 661.419L18.8891 660.959L19.7768 660.498C19.1681 659.325 18.5741 658.133 17.9948 656.924L17.0929 657.355ZM20.7736 664.453L19.9012 664.942C20.5569 666.112 21.2276 667.264 21.9129 668.397L22.7687 667.88L23.6245 667.363C22.9506 666.248 22.291 665.115 21.6459 663.964L20.7736 664.453ZM24.9314 671.324L24.0938 671.87C24.8362 673.008 25.5941 674.128 26.367 675.228L27.1854 674.654L28.0038 674.079C27.244 672.997 26.4989 671.897 25.7689 670.777L24.9314 671.324ZM29.5288 677.872L28.7306 678.474C29.5426 679.55 30.3696 680.608 31.2113 681.647L31.9883 681.017L32.7653 680.388C31.938 679.366 31.1251 678.327 30.327 677.27L29.5288 677.872ZM34.5852 684.111L33.8306 684.767C34.7187 685.788 35.6216 686.79 36.5389 687.775L37.2705 687.093L38.002 686.411C37.1002 685.444 36.2127 684.458 35.3398 683.454L34.5852 684.111ZM40.0419 689.967L39.3339 690.673C40.2878 691.629 41.2559 692.567 42.2379 693.487L42.9216 692.758L43.6054 692.028C42.6396 691.123 41.6876 690.201 40.7498 689.26L40.0419 689.967ZM45.8997 695.456L45.2405 696.208C46.2551 697.098 47.2833 697.969 48.3247 698.824L48.9592 698.051L49.5936 697.278C48.5687 696.437 47.557 695.579 46.5588 694.704L45.8997 695.456ZM52.0978 700.545L51.4881 701.338C52.5548 702.158 53.6342 702.962 54.726 703.75L55.3111 702.939L55.8961 702.128C54.8207 701.352 53.7577 700.56 52.7075 699.752L52.0978 700.545ZM58.5985 705.236L58.0378 706.065C59.1539 706.82 60.2818 707.56 61.4213 708.285L61.9579 707.441L62.4945 706.597C61.3709 705.883 60.259 705.153 59.1592 704.408L58.5985 705.236ZM65.3786 709.55L64.8657 710.408C66.0153 711.095 67.1757 711.767 68.3467 712.426L68.8368 711.554L69.3268 710.682C68.1709 710.033 67.0258 709.369 65.8916 708.691L65.3786 709.55ZM72.3585 713.475L71.8908 714.359C73.0824 714.989 74.2842 715.606 75.4956 716.209L75.9415 715.314L76.3874 714.419C75.1903 713.823 74.003 713.214 72.8262 712.591L72.3585 713.475ZM79.554 717.061L79.1291 717.967C80.3388 718.534 81.5577 719.09 82.7852 719.633L83.19 718.719L83.5948 717.805C82.3805 717.267 81.1751 716.718 79.9789 716.156L79.554 717.061ZM86.8788 720.305L86.4933 721.228C87.7378 721.748 88.9906 722.256 90.2514 722.753L90.6181 721.823L90.9849 720.893C89.7364 720.401 88.496 719.897 87.2642 719.383L86.8788 720.305ZM94.3564 723.256L94.0074 724.193C95.259 724.659 96.5179 725.115 97.7837 725.561L98.1159 724.617L98.4481 723.674C97.1932 723.232 95.9456 722.78 94.7055 722.319L94.3564 723.256ZM101.918 725.92L101.602 726.868C102.881 727.295 104.167 727.711 105.46 728.118L105.76 727.165L106.061 726.211C104.779 725.807 103.503 725.393 102.234 724.971L101.918 725.92ZM109.582 728.337L109.296 729.295C110.576 729.677 111.861 730.051 113.152 730.416L113.425 729.454L113.697 728.492C112.415 728.129 111.139 727.758 109.868 727.379L109.582 728.337ZM117.3 730.523L117.041 731.489C118.342 731.838 119.648 732.18 120.96 732.514L121.207 731.545L121.454 730.576C120.15 730.244 118.852 729.904 117.559 729.557L117.3 730.523ZM125.087 732.509L124.852 733.481C126.15 733.795 127.452 734.103 128.759 734.404L128.984 733.429L129.208 732.455C127.909 732.156 126.613 731.85 125.322 731.537L125.087 732.509ZM132.905 734.311L132.69 735.288C134.005 735.576 135.323 735.859 136.644 736.135L136.849 735.156L137.054 734.177C135.738 733.902 134.427 733.621 133.119 733.334L132.905 734.311ZM140.771 735.958L140.575 736.938C141.886 737.2 143.199 737.456 144.516 737.708L144.703 736.725L144.891 735.743C143.58 735.493 142.272 735.238 140.967 734.977L140.771 735.958ZM148.652 737.463L148.472 738.447C149.794 738.688 151.117 738.925 152.443 739.158L152.616 738.173L152.789 737.188C151.467 736.956 150.148 736.72 148.832 736.479L148.652 737.463ZM156.569 738.852L156.403 739.838C157.721 740.06 159.042 740.278 160.364 740.493L160.524 739.506L160.684 738.519C159.366 738.305 158.049 738.087 156.735 737.866L156.569 738.852ZM164.489 740.138L164.335 741.126C165.66 741.333 166.986 741.538 168.313 741.739L168.463 740.75L168.613 739.761C167.288 739.561 165.966 739.357 164.644 739.15L164.489 740.138ZM172.434 741.343L172.289 742.332C173.614 742.527 174.939 742.719 176.265 742.909L176.406 741.919L176.548 740.929C175.225 740.739 173.902 740.548 172.58 740.353L172.434 741.343ZM180.381 742.48L180.243 743.471C181.569 743.656 182.895 743.839 184.222 744.02L184.357 743.03L184.493 742.039C183.168 741.858 181.844 741.675 180.519 741.49L180.381 742.48ZM188.338 743.569L188.205 744.56C189.534 744.739 190.863 744.916 192.191 745.092L192.322 744.101L192.453 743.109C191.126 742.934 189.799 742.757 188.471 742.578L188.338 743.569ZM196.302 744.625L196.172 745.617C197.498 745.791 198.823 745.964 200.147 746.137L200.277 745.145L200.406 744.154C199.082 743.981 197.758 743.808 196.432 743.634L196.302 744.625ZM204.258 745.664L204.128 746.656C205.461 746.829 206.792 747.003 208.121 747.176L208.25 746.185L208.38 745.193C207.05 745.019 205.719 744.846 204.387 744.673L204.258 745.664ZM212.232 746.706L212.102 747.697C213.427 747.871 214.75 748.046 216.07 748.221L216.202 747.23L216.333 746.238C215.012 746.063 213.688 745.888 212.363 745.714L212.232 746.706ZM220.176 747.761L220.042 748.752C221.377 748.932 222.709 749.113 224.038 749.295L224.174 748.304L224.31 747.314C222.979 747.131 221.645 746.95 220.309 746.77L220.176 747.761ZM228.153 748.857L228.014 749.847C229.336 750.033 230.655 750.22 231.969 750.41L232.112 749.42L232.255 748.43C230.938 748.24 229.616 748.052 228.292 747.866L228.153 748.857ZM236.075 750L235.928 750.989C237.263 751.188 238.594 751.389 239.92 751.593L240.072 750.604L240.224 749.616C238.894 749.411 237.56 749.21 236.222 749.011L236.075 750ZM244.042 751.226L243.884 752.214C245.201 752.424 246.512 752.638 247.818 752.855L247.982 751.868L248.146 750.882C246.836 750.664 245.52 750.45 244.199 750.239L244.042 751.226ZM251.933 752.54L251.762 753.525C253.093 753.756 254.419 753.992 255.738 754.232L255.917 753.248L256.096 752.264C254.772 752.023 253.441 751.786 252.104 751.554L251.933 752.54ZM259.865 753.984L259.677 754.966C260.983 755.216 262.283 755.471 263.576 755.731L263.773 754.751L263.97 753.771C262.671 753.509 261.365 753.253 260.052 753.002L259.865 753.984ZM267.712 755.566L267.504 756.544C268.825 756.825 270.139 757.112 271.444 757.405L271.663 756.43L271.883 755.454C270.57 755.159 269.248 754.87 267.92 754.587L267.712 755.566ZM275.566 757.334L275.334 758.307C276.623 758.614 277.902 758.928 279.173 759.25L279.418 758.281L279.664 757.312C278.384 756.987 277.095 756.671 275.798 756.361L275.566 757.334ZM283.342 759.307L283.081 760.272C284.381 760.623 285.671 760.983 286.95 761.351L287.227 760.39L287.504 759.429C286.213 759.058 284.913 758.695 283.602 758.341L283.342 759.307ZM291.049 761.528L290.755 762.484C292.028 762.876 293.289 763.277 294.539 763.689L294.852 762.739L295.165 761.789C293.902 761.373 292.628 760.968 291.344 760.573L291.049 761.528ZM298.694 764.05L298.36 764.993C299.621 765.439 300.869 765.896 302.103 766.366L302.459 765.431L302.814 764.496C301.565 764.021 300.302 763.559 299.027 763.108L298.694 764.05ZM306.144 766.884L305.765 767.809C307.017 768.321 308.253 768.846 309.473 769.385L309.877 768.47L310.281 767.555C309.043 767.009 307.79 766.476 306.522 765.958L306.144 766.884ZM313.537 770.15L313.106 771.053C314.301 771.623 315.48 772.208 316.641 772.808L317.1 771.92L317.56 771.032C316.379 770.421 315.181 769.827 313.968 769.248L313.537 770.15ZM320.64 773.826L320.15 774.698C321.319 775.354 322.469 776.027 323.6 776.718L324.121 775.865L324.643 775.011C323.49 774.307 322.319 773.622 321.129 772.954L320.64 773.826ZM327.488 778.012L326.934 778.844C328.037 779.579 329.121 780.333 330.183 781.107L330.772 780.298L331.36 779.49C330.275 778.7 329.169 777.93 328.042 777.179L327.488 778.012ZM333.976 782.741L333.352 783.523C334.386 784.349 335.398 785.195 336.387 786.064L337.046 785.312L337.706 784.561C336.693 783.672 335.658 782.805 334.6 781.96L333.976 782.741ZM339.987 788.023L339.291 788.741C340.241 789.66 341.166 790.602 342.067 791.567L342.798 790.885L343.529 790.202C342.605 789.212 341.656 788.246 340.682 787.304L339.987 788.023ZM345.461 793.89L344.696 794.534C345.542 795.541 346.364 796.572 347.161 797.628L347.959 797.026L348.758 796.424C347.94 795.34 347.096 794.281 346.227 793.247L345.461 793.89ZM350.273 800.269L349.444 800.828C350.18 801.92 350.891 803.036 351.575 804.178L352.433 803.664L353.29 803.149C352.588 801.977 351.858 800.831 351.102 799.71L350.273 800.269ZM354.418 807.183L353.534 807.651C354.137 808.789 354.716 809.951 355.27 811.137L356.176 810.714L357.082 810.291C356.514 809.074 355.92 807.883 355.302 806.715L354.418 807.183ZM357.783 814.395L356.857 814.772C357.361 816.009 357.84 817.271 358.293 818.56L359.236 818.228L360.18 817.897C359.716 816.578 359.226 815.285 358.709 814.017L357.783 814.395ZM360.451 821.947L359.493 822.237C359.868 823.477 360.22 824.74 360.549 826.027L361.518 825.779L362.487 825.531C362.151 824.217 361.791 822.926 361.408 821.658L360.451 821.947ZM362.445 829.752L361.467 829.959C361.739 831.245 361.989 832.554 362.217 833.886L363.203 833.718L364.189 833.549C363.956 832.192 363.701 830.857 363.424 829.545L362.445 829.752ZM363.792 837.573L362.801 837.707C362.976 839.001 363.13 840.316 363.264 841.652L364.259 841.552L365.254 841.452C365.118 840.094 364.961 838.757 364.783 837.44L363.792 837.573ZM364.602 845.656L363.604 845.723C363.65 846.412 363.691 847.106 363.727 847.806L364.726 847.755L365.725 847.703C365.688 846.993 365.647 846.288 365.6 845.589L364.602 845.656ZM364.726 847.755L363.727 847.806C363.762 848.494 363.794 849.179 363.822 849.862L364.822 849.821L365.821 849.78C365.792 849.09 365.76 848.398 365.725 847.703L364.726 847.755ZM364.95 853.908L363.951 853.929C363.979 855.275 363.995 856.61 363.996 857.935L364.996 857.934L365.996 857.932C365.995 856.594 365.979 855.245 365.95 853.886L364.95 853.908ZM364.961 861.899L363.961 861.88C363.936 863.185 363.898 864.48 363.846 865.765L364.845 865.805L365.844 865.846C365.897 864.546 365.935 863.237 365.961 861.919L364.961 861.899ZM364.636 869.888L363.638 869.826C363.553 871.176 363.454 872.515 363.34 873.842L364.336 873.928L365.332 874.013C365.448 872.67 365.548 871.316 365.634 869.951L364.636 869.888ZM363.949 877.902L362.955 877.794C362.812 879.1 362.655 880.396 362.484 881.681L363.475 881.813L364.466 881.945C364.64 880.644 364.798 879.333 364.943 878.011L363.949 877.902ZM362.896 885.794L361.908 885.638C361.697 886.974 361.47 888.297 361.228 889.61L362.211 889.791L363.195 889.972C363.44 888.643 363.669 887.303 363.883 885.951L362.896 885.794ZM361.436 893.719L360.457 893.513C360.185 894.802 359.898 896.081 359.597 897.349L360.57 897.58L361.542 897.812C361.848 896.527 362.139 895.232 362.414 893.925L361.436 893.719ZM359.59 901.469L358.624 901.212C358.278 902.513 357.916 903.802 357.539 905.08L358.498 905.363L359.457 905.646C359.839 904.351 360.206 903.044 360.557 901.726L359.59 901.469ZM357.312 909.188L356.361 908.879C355.954 910.134 355.531 911.377 355.093 912.609L356.036 912.944L356.978 913.279C357.422 912.029 357.85 910.769 358.263 909.497L357.312 909.188ZM354.639 916.712L353.707 916.351C353.224 917.6 352.726 918.838 352.213 920.064L353.136 920.45L354.058 920.836C354.578 919.593 355.083 918.338 355.572 917.072L354.639 916.712ZM351.54 924.119L350.629 923.708C350.086 924.911 349.528 926.104 348.956 927.285L349.856 927.721L350.756 928.157C351.336 926.959 351.902 925.75 352.452 924.53L351.54 924.119ZM348.052 931.321L347.164 930.86C346.55 932.043 345.922 933.215 345.28 934.376L346.155 934.861L347.03 935.345C347.681 934.168 348.318 932.98 348.939 931.781L348.052 931.321ZM344.172 938.335L343.31 937.828C342.638 938.97 341.951 940.101 341.251 941.222L342.1 941.752L342.948 942.281C343.657 941.146 344.352 939.999 345.033 938.842L344.172 938.335ZM339.929 945.131L339.094 944.579C338.362 945.688 337.615 946.787 336.856 947.875L337.676 948.448L338.496 949.02C339.265 947.918 340.021 946.805 340.763 945.682L339.929 945.131ZM335.344 951.704L334.538 951.111C333.752 952.181 332.953 953.241 332.142 954.291L332.933 954.902L333.724 955.514C334.545 954.451 335.354 953.378 336.149 952.296L335.344 951.704ZM330.446 958.044L329.669 957.415C328.832 958.447 327.984 959.469 327.123 960.483L327.886 961.13L328.648 961.777C329.518 960.752 330.376 959.718 331.223 958.674L330.446 958.044ZM325.255 964.161L324.507 963.498C323.627 964.489 322.736 965.472 321.834 966.446L322.568 967.125L323.302 967.805C324.213 966.82 325.113 965.827 326.003 964.825L325.255 964.161ZM319.817 970.036L319.097 969.342C318.174 970.299 317.24 971.249 316.296 972.19L317.002 972.898L317.708 973.606C318.661 972.656 319.604 971.697 320.536 970.731L319.817 970.036ZM314.131 975.706L313.439 974.984C312.484 975.901 311.518 976.811 310.544 977.713L311.223 978.447L311.903 979.181C312.886 978.271 313.86 977.353 314.824 976.427L314.131 975.706ZM308.259 981.144L307.593 980.399C306.6 981.287 305.598 982.168 304.587 983.042L305.241 983.799L305.895 984.555C306.914 983.674 307.925 982.785 308.926 981.89L308.259 981.144ZM302.189 986.397L301.547 985.63C300.53 986.482 299.506 987.326 298.474 988.165L299.105 988.941L299.735 989.717C300.775 988.872 301.807 988.021 302.831 987.163L302.189 986.397ZM295.974 991.448L295.354 990.663C294.307 991.49 293.252 992.311 292.19 993.126L292.798 993.919L293.407 994.712C294.476 993.892 295.538 993.066 296.593 992.233L295.974 991.448ZM289.608 996.334L289.01 995.533C287.946 996.327 286.876 997.116 285.799 997.9L286.388 998.709L286.977 999.517C288.06 998.728 289.137 997.934 290.207 997.135L289.608 996.334ZM283.13 1001.05L282.551 1000.24C281.462 1001.01 280.367 1001.78 279.266 1002.55L279.836 1003.37L280.407 1004.19C281.513 1003.42 282.614 1002.65 283.71 1001.87L283.13 1001.05ZM276.543 1005.63L275.981 1004.8C274.881 1005.55 273.776 1006.29 272.666 1007.03L273.22 1007.86L273.774 1008.7C274.889 1007.95 276 1007.21 277.105 1006.46L276.543 1005.63ZM269.868 1010.07L269.321 1009.24C268.203 1009.97 267.08 1010.69 265.952 1011.41L266.492 1012.26L267.031 1013.1C268.163 1012.37 269.291 1011.64 270.414 1010.91L269.868 1010.07ZM263.117 1014.4L262.584 1013.55C261.457 1014.26 260.326 1014.97 259.192 1015.67L259.719 1016.52L260.246 1017.37C261.384 1016.67 262.519 1015.96 263.65 1015.25L263.117 1014.4ZM256.299 1018.63L255.778 1017.77C254.639 1018.47 253.496 1019.16 252.35 1019.85L252.865 1020.71L253.381 1021.57C254.531 1020.87 255.677 1020.18 256.82 1019.48L256.299 1018.63ZM249.431 1022.76L248.919 1021.9C247.773 1022.59 246.624 1023.26 245.473 1023.94L245.98 1024.8L246.487 1025.67C247.641 1024.99 248.792 1024.31 249.942 1023.62L249.431 1022.76ZM242.515 1026.83L242.013 1025.96C240.858 1026.64 239.702 1027.3 238.543 1027.97L239.043 1028.84L239.542 1029.7C240.702 1029.04 241.861 1028.37 243.018 1027.69L242.515 1026.83ZM235.567 1030.83L235.071 1029.96C233.912 1030.63 232.751 1031.29 231.589 1031.95L232.083 1032.82L232.576 1033.69C233.74 1033.03 234.902 1032.36 236.063 1031.7L235.567 1030.83ZM228.592 1034.79L228.101 1033.92C226.937 1034.58 225.772 1035.23 224.607 1035.89L225.097 1036.76L225.586 1037.63C226.752 1036.98 227.918 1036.32 229.084 1035.66L228.592 1034.79ZM221.597 1038.72L221.109 1037.85C219.943 1038.5 218.776 1039.15 217.61 1039.8L218.097 1040.67L218.584 1041.55C219.751 1040.9 220.918 1040.24 222.085 1039.59L221.597 1038.72ZM214.597 1042.62L214.11 1041.75C212.941 1042.4 211.773 1043.05 210.606 1043.7L211.092 1044.58L211.579 1045.45C212.746 1044.8 213.915 1044.15 215.083 1043.5L214.597 1042.62ZM207.585 1046.53L207.098 1045.66C205.93 1046.31 204.763 1046.96 203.597 1047.61L204.084 1048.48L204.572 1049.36C205.738 1048.71 206.904 1048.05 208.072 1047.4L207.585 1046.53ZM200.592 1050.44L200.103 1049.56C198.934 1050.22 197.766 1050.88 196.601 1051.53L197.091 1052.4L197.582 1053.27C198.746 1052.62 199.912 1051.96 201.08 1051.31L200.592 1050.44ZM193.593 1054.38L193.101 1053.51C191.936 1054.17 190.774 1054.83 189.614 1055.49L190.109 1056.36L190.604 1057.23C191.762 1056.57 192.923 1055.91 194.086 1055.25L193.593 1054.38ZM186.64 1058.34L186.142 1057.48C184.977 1058.14 183.815 1058.81 182.657 1059.49L183.158 1060.35L183.66 1061.22C184.816 1060.55 185.976 1059.88 187.138 1059.21L186.64 1058.34ZM179.687 1062.38L179.182 1061.51C178.027 1062.19 176.875 1062.87 175.728 1063.55L176.238 1064.41L176.748 1065.27C177.893 1064.59 179.041 1063.91 180.193 1063.24L179.687 1062.38ZM172.812 1066.46L172.297 1065.6C171.141 1066.29 169.99 1066.99 168.844 1067.69L169.364 1068.54L169.885 1069.4C171.028 1068.7 172.175 1068 173.327 1067.31L172.812 1066.46ZM165.942 1070.65L165.416 1069.8C164.278 1070.5 163.145 1071.21 162.017 1071.92L162.55 1072.76L163.083 1073.61C164.206 1072.9 165.335 1072.2 166.469 1071.5L165.942 1070.65ZM159.179 1074.91L158.639 1074.07C157.503 1074.8 156.372 1075.53 155.248 1076.26L155.796 1077.1L156.343 1077.94C157.463 1077.21 158.588 1076.48 159.719 1075.75L159.179 1074.91ZM152.449 1079.32L151.893 1078.48C150.781 1079.23 149.676 1079.98 148.578 1080.73L149.142 1081.55L149.707 1082.38C150.799 1081.63 151.899 1080.89 153.005 1080.15L152.449 1079.32ZM145.846 1083.83L145.272 1083.02C144.166 1083.79 143.068 1084.57 141.978 1085.35L142.562 1086.17L143.146 1086.98C144.229 1086.2 145.321 1085.42 146.42 1084.65L145.846 1083.83ZM139.325 1088.53L138.731 1087.72C137.657 1088.52 136.591 1089.32 135.533 1090.12L136.139 1090.92L136.744 1091.71C137.794 1090.91 138.853 1090.12 139.92 1089.33L139.325 1088.53ZM132.949 1093.38L132.331 1092.59C131.27 1093.43 130.218 1094.26 129.176 1095.11L129.806 1095.88L130.435 1096.66C131.469 1095.82 132.513 1094.99 133.566 1094.17L132.949 1093.38ZM126.722 1098.43L126.08 1097.66C125.051 1098.52 124.033 1099.39 123.026 1100.27L123.682 1101.02L124.338 1101.78C125.336 1100.91 126.345 1100.05 127.365 1099.19L126.722 1098.43ZM120.664 1103.69L119.994 1102.95C118.995 1103.85 118.007 1104.76 117.031 1105.68L117.715 1106.41L118.4 1107.14C119.366 1106.23 120.344 1105.33 121.334 1104.43L120.664 1103.69ZM114.839 1109.17L114.139 1108.45C113.173 1109.4 112.22 1110.35 111.28 1111.31L111.995 1112.01L112.71 1112.71C113.64 1111.76 114.583 1110.82 115.538 1109.88L114.839 1109.17ZM109.222 1114.92L108.49 1114.24C107.574 1115.22 106.671 1116.21 105.783 1117.21L106.531 1117.87L107.278 1118.54C108.156 1117.55 109.048 1116.57 109.953 1115.6L109.222 1114.92ZM103.911 1120.9L103.147 1120.26C102.276 1121.29 101.42 1122.33 100.58 1123.38L101.361 1124.01L102.142 1124.63C102.971 1123.59 103.816 1122.56 104.676 1121.54L103.911 1120.9ZM98.9032 1127.17L98.105 1126.57C97.2958 1127.64 96.5025 1128.72 95.7257 1129.82L96.5408 1130.4L97.356 1130.97C98.1216 1129.9 98.9036 1128.83 99.7014 1127.77L98.9032 1127.17ZM94.2659 1133.7L93.4339 1133.14C92.6869 1134.26 91.9569 1135.4 91.2444 1136.54L92.093 1137.07L92.9416 1137.6C93.6431 1136.47 94.362 1135.36 95.0979 1134.25L94.2659 1133.7ZM90.0251 1140.5L89.1603 1140C88.4861 1141.16 87.8298 1142.34 87.1919 1143.52L88.0724 1143.99L88.9529 1144.47C89.5805 1143.3 90.2263 1142.15 90.8899 1141.01L90.0251 1140.5ZM86.2331 1147.55L85.3376 1147.1C84.7381 1148.31 84.1574 1149.53 83.5959 1150.76L84.5057 1151.17L85.4156 1151.59C85.9677 1150.38 86.5389 1149.18 87.1286 1147.99L86.2331 1147.55ZM82.9015 1154.85L81.9782 1154.47C81.4658 1155.7 80.9723 1156.94 80.4982 1158.2L81.4338 1158.55L82.3694 1158.91C82.8356 1157.67 83.3208 1156.45 83.8247 1155.24L82.9015 1154.85ZM80.0817 1162.33L79.1347 1162.01C78.6999 1163.29 78.285 1164.58 77.8904 1165.89L78.8478 1166.18L79.8051 1166.47C80.1932 1165.18 80.6012 1163.91 81.0287 1162.65L80.0817 1162.33ZM77.7644 1170L76.798 1169.74C76.4555 1171.03 76.1323 1172.33 75.8288 1173.64L76.8031 1173.87L77.7774 1174.09C78.076 1172.8 78.3939 1171.52 78.7308 1170.26L77.7644 1170ZM75.9591 1177.81L74.978 1177.62C74.7176 1178.94 74.477 1180.28 74.2563 1181.62L75.2431 1181.79L76.23 1181.95C76.4472 1180.62 76.6841 1179.31 76.9403 1178.01L75.9591 1177.81ZM74.666 1185.69L73.6747 1185.56C73.4996 1186.88 73.3434 1188.21 73.2064 1189.56L74.2013 1189.66L75.1962 1189.76C75.3311 1188.43 75.4849 1187.12 75.6574 1185.82L74.666 1185.69ZM73.851 1193.71L72.8536 1193.64C72.8045 1194.32 72.7603 1195.01 72.721 1195.71L73.7194 1195.76L74.7178 1195.82C74.7565 1195.14 74.8001 1194.46 74.8485 1193.78L73.851 1193.71ZM73.7194 1195.76L72.721 1195.71C72.6809 1196.41 72.6456 1197.12 72.6151 1197.81L73.6141 1197.86L74.6132 1197.9C74.6433 1197.21 74.6782 1196.52 74.7178 1195.82L73.7194 1195.76ZM73.4887 1201.96L72.4889 1201.95C72.4657 1203.3 72.4613 1204.64 72.4754 1205.97L73.4754 1205.95L74.4753 1205.94C74.4614 1204.64 74.4657 1203.32 74.4886 1201.98L73.4887 1201.96ZM73.5721 1209.84L72.5729 1209.87C72.6282 1211.27 72.7049 1212.65 72.8029 1214L73.8003 1213.93L74.7977 1213.86C74.7013 1212.53 74.6258 1211.17 74.5714 1209.8L73.5721 1209.84ZM74.1611 1217.97L73.1667 1218.07C73.3096 1219.41 73.4739 1220.72 73.6593 1222.01L74.6492 1221.87L75.639 1221.73C75.4571 1220.46 75.2957 1219.17 75.1554 1217.86L74.1611 1217.97ZM75.2952 1225.83L74.3116 1226.01C74.5627 1227.37 74.8384 1228.72 75.1384 1230.03L76.1135 1229.81L77.0885 1229.59C76.7949 1228.3 76.5248 1226.99 76.2788 1225.65L75.2952 1225.83ZM77.075 1233.65L76.1106 1233.91C76.4719 1235.23 76.8588 1236.52 77.2706 1237.79L78.2216 1237.48L79.1726 1237.17C78.7706 1235.94 78.3926 1234.67 78.0394 1233.38L77.075 1233.65ZM79.57 1241.3L78.6357 1241.66C79.1172 1242.92 79.6251 1244.16 80.1585 1245.37L81.0734 1244.96L81.9884 1244.56C81.4688 1243.38 80.9739 1242.18 80.5044 1240.95L79.57 1241.3ZM82.7974 1248.6L81.9056 1249.06C82.5265 1250.28 83.1753 1251.47 83.8511 1252.64L84.7162 1252.14L85.5814 1251.64C84.9243 1250.5 84.2933 1249.34 83.6891 1248.15L82.7974 1248.6ZM86.7967 1255.51L85.961 1256.06C86.7171 1257.21 87.5013 1258.33 88.3126 1259.42L89.1151 1258.82L89.9176 1258.22C89.1293 1257.16 88.3672 1256.07 87.6324 1254.96L86.7967 1255.51ZM91.5939 1261.96L90.8269 1262.6C91.6978 1263.65 92.595 1264.66 93.5178 1265.64L94.2472 1264.96L94.9765 1264.27C94.0794 1263.32 93.2072 1262.33 92.3609 1261.32L91.5939 1261.96ZM97.0746 1267.81L96.3846 1268.53C97.3653 1269.47 98.3709 1270.37 99.4002 1271.25L100.05 1270.49L100.7 1269.73C99.6976 1268.88 98.7189 1267.99 97.7647 1267.08L97.0746 1267.81ZM103.158 1273.01L102.549 1273.81C103.621 1274.63 104.716 1275.43 105.832 1276.2L106.402 1275.38L106.971 1274.56C105.882 1273.8 104.813 1273.02 103.768 1272.22L103.158 1273.01ZM109.751 1277.58L109.221 1278.43C110.36 1279.15 111.52 1279.83 112.698 1280.5L113.19 1279.63L113.682 1278.76C112.529 1278.11 111.395 1277.43 110.281 1276.74L109.751 1277.58ZM116.744 1281.54L116.288 1282.43C117.478 1283.04 118.685 1283.63 119.908 1284.19L120.328 1283.29L120.749 1282.38C119.549 1281.82 118.365 1281.25 117.199 1280.65L116.744 1281.54ZM124.001 1284.91L123.614 1285.83C124.856 1286.35 126.114 1286.86 127.385 1287.34L127.742 1286.41L128.098 1285.47C126.846 1284.99 125.61 1284.5 124.389 1283.99L124.001 1284.91ZM131.489 1287.77L131.162 1288.71C132.434 1289.15 133.719 1289.58 135.016 1289.98L135.316 1289.03L135.615 1288.07C134.336 1287.67 133.069 1287.26 131.816 1286.82L131.489 1287.77ZM139.158 1290.18L138.884 1291.14C140.168 1291.5 141.463 1291.85 142.768 1292.19L143.018 1291.22L143.267 1290.25C141.978 1289.92 140.699 1289.58 139.431 1289.21L139.158 1290.18ZM146.939 1292.19L146.712 1293.16C148.01 1293.46 149.318 1293.75 150.634 1294.03L150.84 1293.05L151.047 1292.07C149.744 1291.8 148.451 1291.51 147.166 1291.21L146.939 1292.19ZM154.769 1293.84L154.582 1294.82C155.906 1295.08 157.237 1295.32 158.575 1295.55L158.745 1294.56L158.914 1293.58C157.587 1293.35 156.268 1293.11 154.957 1292.86L154.769 1293.84ZM162.684 1295.2L162.531 1296.19C163.853 1296.4 165.182 1296.59 166.516 1296.78L166.653 1295.79L166.79 1294.79C165.467 1294.61 164.148 1294.42 162.837 1294.22L162.684 1295.2ZM170.655 1296.31L170.532 1297.3C171.854 1297.47 173.181 1297.62 174.512 1297.77L174.621 1296.78L174.731 1295.78C173.409 1295.64 172.091 1295.48 170.778 1295.32L170.655 1296.31ZM178.613 1297.19L178.515 1298.19C179.853 1298.32 181.193 1298.44 182.537 1298.56L182.624 1297.56L182.71 1296.57C181.374 1296.45 180.04 1296.33 178.711 1296.2L178.613 1297.19ZM186.613 1297.89L186.536 1298.88C187.872 1298.99 189.21 1299.08 190.549 1299.17L190.616 1298.17L190.683 1297.18C189.349 1297.09 188.018 1296.99 186.689 1296.89L186.613 1297.89ZM194.628 1298.43L194.57 1299.42C195.906 1299.5 197.244 1299.57 198.582 1299.64L198.633 1298.64L198.683 1297.64C197.35 1297.58 196.017 1297.51 194.686 1297.43L194.628 1298.43ZM202.641 1298.83L202.598 1299.83C203.936 1299.89 205.275 1299.94 206.613 1299.99L206.65 1298.99L206.687 1297.99C205.353 1297.94 204.019 1297.89 202.685 1297.83L202.641 1298.83ZM210.667 1299.13L210.636 1300.13C211.976 1300.17 213.314 1300.21 214.651 1300.25L214.678 1299.25L214.705 1298.25C213.371 1298.21 212.036 1298.18 210.699 1298.13L210.667 1299.13ZM218.681 1299.35L218.658 1300.35C220.004 1300.38 221.348 1300.41 222.689 1300.44L222.709 1299.44L222.728 1298.44C221.39 1298.41 220.048 1298.38 218.704 1298.35L218.681 1299.35ZM226.719 1299.51L226.702 1300.51C228.039 1300.53 229.372 1300.55 230.701 1300.57L230.716 1299.57L230.732 1298.57C229.404 1298.55 228.072 1298.53 226.736 1298.51L226.719 1299.51ZM234.753 1299.63L234.739 1300.63C236.08 1300.65 237.416 1300.67 238.746 1300.69L238.76 1299.69L238.774 1298.69C237.444 1298.67 236.108 1298.65 234.767 1298.63L234.753 1299.63ZM242.757 1299.75L242.743 1300.75C244.096 1300.77 245.443 1300.79 246.783 1300.81L246.799 1299.81L246.815 1298.81C245.474 1298.79 244.126 1298.77 242.772 1298.75L242.757 1299.75ZM250.798 1299.88L250.779 1300.88C252.122 1300.9 253.457 1300.93 254.783 1300.95L254.804 1299.96L254.826 1298.96C253.498 1298.93 252.161 1298.9 250.816 1298.88L250.798 1299.88ZM258.844 1300.05L258.817 1301.05C260.152 1301.09 261.477 1301.12 262.791 1301.17L262.823 1300.17L262.855 1299.17C261.537 1299.13 260.208 1299.09 258.87 1299.05L258.844 1300.05ZM266.857 1300.31L266.818 1301.31C268.168 1301.36 269.505 1301.42 270.829 1301.48L270.877 1300.49L270.925 1299.49C269.595 1299.42 268.252 1299.36 266.896 1299.31L266.857 1300.31ZM274.828 1300.69L274.77 1301.69C276.139 1301.77 277.492 1301.86 278.828 1301.95L278.899 1300.96L278.97 1299.96C277.625 1299.86 276.264 1299.78 274.886 1299.7L274.828 1300.69ZM282.867 1301.27L282.781 1302.26C284.134 1302.38 285.467 1302.51 286.779 1302.64L286.882 1301.65L286.986 1300.65C285.661 1300.52 284.316 1300.39 282.952 1300.27L282.867 1301.27ZM290.876 1302.11L290.752 1303.1C292.084 1303.26 293.391 1303.44 294.671 1303.64L294.821 1302.65L294.971 1301.66C293.672 1301.46 292.349 1301.28 291.001 1301.11L290.876 1302.11ZM298.822 1303.32L298.642 1304.3C299.954 1304.54 301.235 1304.8 302.481 1305.08L302.698 1304.1L302.914 1303.12C301.642 1302.84 300.338 1302.58 299.003 1302.33L298.822 1303.32ZM306.654 1305.07L306.391 1306.04C307.682 1306.39 308.93 1306.77 310.131 1307.17L310.448 1306.22L310.764 1305.27C309.524 1304.85 308.24 1304.47 306.916 1304.11L306.654 1305.07ZM314.242 1307.63L313.856 1308.56C315.099 1309.08 316.28 1309.63 317.395 1310.22L317.863 1309.34L318.331 1308.45C317.157 1307.83 315.921 1307.25 314.627 1306.71L314.242 1307.63ZM321.266 1311.39L320.698 1312.21C321.8 1312.97 322.814 1313.78 323.737 1314.64L324.419 1313.91L325.102 1313.18C324.1 1312.25 323.009 1311.38 321.833 1310.57L321.266 1311.39ZM327.086 1316.86L326.288 1317.46C327.058 1318.48 327.727 1319.57 328.291 1320.72L329.189 1320.28L330.087 1319.84C329.466 1318.57 328.729 1317.38 327.885 1316.26L327.086 1316.86ZM330.592 1323.99L329.629 1324.25C329.802 1324.88 329.95 1325.52 330.072 1326.18L331.056 1326L332.039 1325.82C331.906 1325.1 331.745 1324.4 331.556 1323.72L330.592 1323.99Z" fill="#7965C1"/>
</svg>
