<svg width="150" height="151" viewBox="0 0 150 151" fill="none" xmlns="http://www.w3.org/2000/svg">
<path d="M86.4706 79.0904L84.8073 80.0304C84.2508 80.3406 83.6698 80.6051 83.1022 80.8956L82.246 81.3228C81.958 81.4596 81.6623 81.5795 81.3708 81.7087L79.6142 82.4698C78.4159 82.9044 77.2352 83.3996 76.0094 83.7522L75.0971 84.0402C74.7935 84.1387 74.4892 84.2346 74.1791 84.3067L72.3281 84.7815C72.0208 84.8686 71.7081 84.9248 71.3962 84.9857L70.4605 85.17L69.5245 85.3549C69.2123 85.4157 68.8967 85.4446 68.5829 85.4912C67.9543 85.5736 67.3259 85.6677 66.6964 85.7423L64.8039 85.8777C64.1899 85.9287 63.5737 85.9458 62.9578 85.929C62.3482 85.9189 61.7373 85.8777 61.1278 85.817C59.9071 85.6888 58.698 85.4657 57.5114 85.1499C55.0147 84.5111 52.6747 83.3636 50.6361 81.7782C49.6678 81.0077 48.82 80.095 48.1212 79.0708C47.4515 78.072 46.9704 76.9576 46.7019 75.7833C46.6606 75.622 46.6274 75.4587 46.6024 75.2941L46.5238 74.7998L46.5151 74.7456C46.4607 74.4038 46.3107 74.0847 46.0826 73.8256C45.8545 73.5665 45.5578 73.3783 45.2272 73.2828C44.8966 73.1874 44.5459 73.1888 44.2161 73.2868C43.8863 73.3848 43.591 73.5755 43.365 73.8363C41.82 75.6192 39.5274 76.6957 37.089 76.9806C34.615 77.2644 32.112 76.8278 29.8772 75.7224C28.785 75.1837 27.7852 74.473 26.9156 73.617C26.4864 73.1912 26.0988 72.725 25.758 72.2248L25.4848 71.8544C25.4005 71.726 25.3282 71.589 25.2488 71.4572C25.0985 71.188 24.9242 70.9335 24.7895 70.6551C24.2332 69.5384 23.8222 68.3541 23.5666 67.1317C23.3218 65.8877 23.22 64.6195 23.2632 63.3522C23.3599 60.7927 24.0229 58.2873 25.2038 56.0186C25.8024 54.9 26.514 53.8465 27.3272 52.8748C28.1702 51.9022 29.1005 51.0099 30.1063 50.2093C34.1842 47.0118 39.483 45.3305 44.7513 45.1912L44.7618 45.1909C45.1682 45.1801 45.5614 45.043 45.8874 44.7984C46.2133 44.5538 46.4562 44.2137 46.5826 43.8246C46.7089 43.4356 46.7127 43.0168 46.5933 42.6255C46.4738 42.2343 46.2371 41.8898 45.9156 41.6394C44.8923 40.822 44.1902 39.6657 43.9344 38.3762C43.7851 37.6858 43.7263 36.9787 43.7596 36.273C43.7974 35.5448 43.9169 34.8233 44.1157 34.1222C44.5011 32.7206 45.2242 31.4365 46.2207 30.3836L46.4048 30.196L46.6151 30.0103L47.033 29.6362L47.4807 29.2944C47.627 29.1757 47.7805 29.0662 47.9404 28.9667L48.4146 28.6559C48.5774 28.5585 48.7469 28.47 48.9123 28.3758C49.2469 28.1887 49.5917 28.0204 49.9449 27.8718C52.12 26.9499 54.5729 26.552 57.0558 26.4705C58.3066 26.4322 59.5585 26.4737 60.8041 26.5946C61.4269 26.6154 62.0446 26.6942 62.6645 26.7556L63.5881 26.8885C63.7422 26.9078 63.8951 26.9365 64.0459 26.9742C64.2005 26.9902 64.3541 27.0146 64.5061 27.0473C64.8124 27.1008 65.1184 27.1566 65.4176 27.2337C65.7181 27.3066 66.0226 27.3706 66.3213 27.4498C66.9129 27.6177 67.4954 27.8166 68.0665 28.0457C69.1963 28.4751 70.276 29.0276 71.2864 29.6935C71.4104 29.7754 71.5411 29.8502 71.6601 29.9375L72.0111 30.2059C72.2503 30.376 72.4798 30.5596 72.6982 30.7559L73.344 31.344L73.9268 31.9818C74.6498 32.86 75.234 33.8451 75.6587 34.9025L75.6653 34.9188C75.8497 35.3781 76.2078 35.7448 76.6609 35.9382C77.1139 36.1317 77.6247 36.136 78.0809 35.9504C78.2667 35.8739 78.4393 35.7683 78.5923 35.6374C79.6974 34.6848 80.8239 33.7635 81.9768 32.8857C83.1339 32.0155 84.3104 31.1796 85.5146 30.3981C86.7239 29.6273 87.9541 28.8995 89.2143 28.246C90.4696 27.6012 91.7591 27.0265 93.0771 26.5246C94.3846 26.0413 95.722 25.6446 97.0809 25.3369C98.4199 25.0467 99.7803 24.867 101.148 24.7998C102.51 24.7513 103.874 24.8196 105.224 25.0039C106.564 25.1962 107.884 25.5123 109.167 25.9483C109.492 26.0413 109.793 26.1894 110.108 26.3058L110.576 26.4905C110.73 26.5542 110.877 26.6339 111.028 26.7044C111.327 26.8529 111.633 26.9864 111.925 27.1443L112.787 27.6411C113.907 28.3211 114.944 29.1313 115.876 30.055C116.113 30.2781 116.31 30.5368 116.53 30.7742L116.853 31.1375L117.138 31.5292C117.319 31.793 117.548 32.0389 117.712 32.3021L117.967 32.6928L118.201 33.1001C118.817 34.2206 119.255 35.4311 119.499 36.6879C119.694 37.3176 119.836 37.9628 119.924 38.6166C120.024 39.2763 120.035 39.9466 119.957 40.6093C119.849 41.9334 119.535 43.2322 119.027 44.4583C118.002 46.88 116.169 48.847 113.903 49.7843C113.554 49.9286 113.256 50.1763 113.05 50.4945C112.844 50.8128 112.738 51.1865 112.748 51.5664C112.757 51.9462 112.881 52.3142 113.102 52.6218C113.324 52.9293 113.633 53.1618 113.989 53.2886L114.095 53.3259C115.166 53.7038 116.194 54.192 117.165 54.7828C117.403 54.9384 117.653 55.0736 117.882 55.2432L118.574 55.7393L119.232 56.2785C119.454 56.4538 119.649 56.6611 119.86 56.849C121.716 58.4881 123.144 60.5612 124.017 62.886L124.298 63.759L124.507 64.6502C124.565 64.9474 124.595 65.2441 124.643 65.5419C124.691 65.8394 124.681 66.1445 124.707 66.4465C124.739 67.6738 124.586 68.8989 124.253 70.0798C124.099 70.6255 123.917 71.1628 123.707 71.6895C123.596 71.9363 123.483 72.1764 123.38 72.4157C123.283 72.6594 123.141 72.8687 123.031 73.0918C122.813 73.5424 122.534 73.921 122.303 74.3136C122.177 74.5006 122.04 74.6717 121.916 74.8479C121.798 75.022 121.671 75.1895 121.535 75.3496C120.684 76.3834 119.719 77.3169 118.66 78.1324C117.411 79.0035 117.416 79.4162 118.887 79.2597C119.336 79.1826 119.776 79.0682 120.206 78.9177C120.458 78.8197 120.723 78.6945 121.01 78.5618C121.152 78.4918 121.307 78.4302 121.45 78.3428L121.895 78.0704C123.39 77.1194 124.664 75.8548 125.629 74.3628C127.157 72.0557 128.015 69.3657 128.108 66.5949L128.107 65.5243C128.079 65.1671 128.044 64.8093 128.01 64.4517C127.996 64.2738 127.971 64.097 127.935 63.9223L127.838 63.3994C127.804 63.2257 127.777 63.0499 127.735 62.8782L127.597 62.367C127.24 61.0177 126.701 59.7242 125.995 58.5225C125.399 57.4916 124.701 56.5235 123.913 55.6326C123.537 55.1739 123.102 54.7741 122.691 54.3503C122.475 54.1501 122.25 53.9601 122.026 53.7696C121.806 53.5738 121.573 53.3962 121.336 53.2221C119.471 51.8028 117.37 50.7274 115.132 50.0457L115.289 52.9313C117.637 51.806 119.589 49.9866 120.884 47.7156C121.202 47.1679 121.487 46.6017 121.739 46.0201C121.869 45.733 121.977 45.4373 122.096 45.1459C122.196 44.8487 122.305 44.5534 122.396 44.2533C122.757 43.056 122.997 41.8247 123.111 40.5784C123.168 39.9563 123.178 39.3333 123.222 38.7064C123.245 38.0764 123.235 37.4457 123.193 36.8168C123.163 36.1814 123.067 35.551 122.907 34.9355C122.761 34.3134 122.579 33.7002 122.363 33.0991C121.928 31.8835 121.336 30.7311 120.601 29.6718C120.245 29.147 119.856 28.6462 119.436 28.1729L118.807 27.4628C118.585 27.2395 118.353 27.0259 118.126 26.8078C116.301 25.0922 114.175 23.7349 111.855 22.8056C109.577 21.8819 107.179 21.2938 104.734 21.0594C104.431 21.0187 104.126 21.0018 103.821 20.9885L102.907 20.942C102.297 20.9269 101.686 20.9445 101.075 20.9512C100.466 20.9999 99.855 21.0219 99.2477 21.0962L98.3375 21.2173L97.8829 21.2799L97.437 21.3651C95.0654 21.807 92.7469 22.5001 90.5202 23.4331C87.8479 24.5649 85.2911 25.955 82.8856 27.5838C80.5339 29.1767 78.2931 30.9293 76.1787 32.8296L79.0981 33.561C78.9217 33.1801 78.7475 32.8039 78.5755 32.4325C78.4911 32.247 78.3931 32.068 78.2824 31.897L77.9667 31.3793C76.6582 29.3576 74.9124 27.6599 72.8599 26.4135L72.4905 26.1768L72.1093 25.9672L71.3461 25.5499C70.828 25.2986 70.3075 25.0499 69.7801 24.8277C69.2468 24.6258 68.7211 24.3914 68.1783 24.228C67.9092 24.1374 67.6383 24.0522 67.3715 23.9536C67.1025 23.8637 66.8299 23.79 66.5589 23.7077C65.4762 23.3859 64.375 23.1308 63.2614 22.9438C62.7054 22.8566 62.1476 22.7774 61.5887 22.7097C61.3099 22.6679 61.0277 22.6618 60.7472 22.6396C60.4658 22.6177 60.1862 22.6061 59.9072 22.6001C58.786 22.5584 57.6633 22.5756 56.5439 22.6516C55.4106 22.7194 54.2831 22.8627 53.1687 23.0804C52.0348 23.2941 50.9199 23.5997 49.8349 23.9943C48.731 24.401 47.6651 24.9053 46.6495 25.5012C45.6232 26.1238 44.6689 26.8594 43.8041 27.6944C42.9252 28.5733 42.1847 29.582 41.6081 30.6857C40.4432 32.8796 39.9291 35.3641 40.1269 37.8437C40.2361 39.1288 40.582 40.3822 41.1469 41.5399C41.7365 42.7371 42.5849 43.7864 43.6299 44.6105L44.671 41.4342C42.1402 41.4931 39.6258 41.862 37.1836 42.5328C33.4519 43.553 29.9804 45.3654 27.0023 47.8483C25.5006 49.1182 24.1724 50.5824 23.0521 52.2028C21.3778 54.6813 20.2628 57.4988 19.7855 60.4574C19.3082 63.416 19.4802 66.4439 20.2893 69.3284C20.8648 71.2786 21.7919 73.1055 23.0243 74.7178C23.6395 75.5455 24.35 76.2968 25.1409 76.9561C25.922 77.6138 26.7684 78.1886 27.6666 78.6713C30.581 80.2375 33.8946 80.889 37.1801 80.5418C38.0026 80.4565 38.8163 80.3002 39.6122 80.0744C40.418 79.8533 41.2011 79.5559 41.9512 79.1861C42.7104 78.8161 43.4315 78.3714 44.1039 77.8586C44.7763 77.3378 45.3967 76.7524 45.9563 76.1105L43.1141 75.2437C43.3082 76.6537 43.7216 78.0242 44.3393 79.3047C44.9564 80.5649 45.754 81.727 46.7067 82.7538C47.6338 83.7584 48.6762 84.6485 49.8121 85.4052C50.922 86.1523 52.0987 86.7935 53.3268 87.3207C55.7542 88.3555 58.3231 89.0149 60.9463 89.2766C61.5998 89.3378 62.255 89.385 62.9126 89.3972C63.2413 89.4058 63.5701 89.4099 63.8996 89.4009C64.2326 89.4018 64.5522 89.3805 64.8709 89.3579L66.7891 89.2308C67.1098 89.218 67.4252 89.1655 67.7425 89.1271L68.6932 89.0039C69.9667 88.872 71.2109 88.5865 72.4651 88.3576C73.0891 88.2297 73.7025 88.0567 74.3214 87.9081C74.9387 87.7531 75.5591 87.6091 76.1628 87.408L77.9853 86.8453C78.5911 86.653 79.1811 86.4148 79.7794 86.2015C80.9824 85.7899 82.1372 85.2557 83.3075 84.763C85.6237 83.7153 87.8643 82.506 90.013 81.1439C91.1059 80.4923 92.1255 79.7224 93.1685 78.9918C93.6828 78.6156 94.1705 78.2011 94.6725 77.8073L95.42 77.2091C95.666 77.0058 95.8973 76.783 96.1365 76.5709C98.5679 74.4631 100.69 72.0191 102.44 69.3117L100.362 68.6352C100.352 69.5927 100.474 70.547 100.724 71.471C100.973 72.3801 101.358 73.2461 101.865 74.0394C102.854 75.5246 104.185 76.7476 105.744 77.6045C108.563 79.1472 111.794 79.7553 114.976 79.3419C115.701 79.2611 116.404 79.0448 117.05 78.7043C117.448 78.455 117.572 78.2535 117.465 78.1217C117.24 77.8404 116.167 77.9259 114.116 77.7618C111.431 77.5664 108.854 76.6197 106.676 75.0284C105.68 74.2853 104.867 73.3213 104.301 72.2112C104.042 71.6833 103.854 71.123 103.742 70.545C103.641 69.9548 103.605 69.3551 103.635 68.7569C103.655 68.3011 103.53 67.8508 103.278 67.4713C103.026 67.0918 102.661 66.8028 102.235 66.6463C101.81 66.4897 101.345 66.4738 100.91 66.6007C100.475 66.7276 100.091 66.9907 99.8139 67.352L99.7165 67.4809L98.7285 68.787C97.0761 70.8641 95.2252 72.7732 93.2025 74.4867C91.1155 76.2165 88.8886 77.7676 86.545 79.124C86.5209 79.1119 86.4983 79.101 86.4706 79.0904Z" fill="#F6ED50"/>
<path d="M95.9169 93.9181C95.204 94.0798 94.5022 94.288 93.8161 94.5413C91.804 95.3051 89.9529 96.4436 88.3596 97.8974C87.8019 98.4031 87.275 98.9423 86.782 99.512C86.2194 100.165 85.7496 100.893 85.386 101.677C85.138 102.197 84.9485 102.743 84.8212 103.306C84.6824 103.886 84.6177 104.481 84.6287 105.077C84.6332 105.386 84.6573 105.693 84.7009 105.999C84.7523 106.311 84.8257 106.62 84.9206 106.923C85.0163 107.231 85.1363 107.531 85.2795 107.82C85.4273 108.108 85.5955 108.384 85.7828 108.648C86.5069 109.614 87.4571 110.385 88.5488 110.892C89.4988 111.34 90.5005 111.669 91.5308 111.869C94.4455 112.484 97.4589 112.445 100.357 111.756C101.322 111.519 102.268 111.208 103.186 110.826C104.221 110.409 105.192 109.845 106.069 109.153C106.536 108.748 106.95 108.286 107.303 107.778C107.693 107.248 108.006 106.665 108.235 106.048L106.252 107.219C107.24 107.373 108.242 107.42 109.24 107.359C110.231 107.293 111.213 107.123 112.17 106.853C113.125 106.585 114.049 106.214 114.926 105.748C115.366 105.517 115.792 105.261 116.203 104.98L116.526 104.759C116.68 104.645 116.825 104.52 116.961 104.384C117.199 104.145 117.409 103.88 117.59 103.594C117.905 103.084 118.149 102.533 118.314 101.956C118.471 101.381 118.544 100.787 118.531 100.191C118.518 99.6048 118.419 99.0238 118.239 98.4662C118.067 97.9156 117.818 97.3925 117.499 96.9123C116.865 95.9611 115.997 95.1907 114.981 94.6756C114.749 94.5569 114.512 94.4505 114.27 94.3568C114.041 94.2654 113.805 94.1836 113.569 94.1036C113.087 93.9464 112.593 93.8262 112.093 93.7443C111.298 93.6041 110.486 93.6012 109.69 93.7358C108.888 93.8695 108.118 94.1504 107.417 94.5646C106.872 94.8776 106.411 95.3186 106.073 95.8498C105.954 96.0398 105.861 96.2445 105.796 96.4588C105.811 96.6235 105.814 96.7891 105.806 96.9543C105.771 97.5009 105.668 97.898 106.137 97.8831C106.29 97.8701 106.439 97.8302 106.578 97.7653C106.675 97.7227 106.769 97.6738 106.86 97.6189C106.895 97.596 106.933 97.5793 106.974 97.5695L107.075 97.533C107.219 97.4772 107.36 97.4117 107.495 97.3367C107.657 97.2692 107.813 97.1913 107.965 97.1036C108.382 96.8958 108.813 96.7187 109.256 96.5737C109.707 96.4386 110.17 96.352 110.639 96.3156C111.205 96.2808 111.772 96.3323 112.322 96.4683C112.609 96.5375 112.893 96.6214 113.172 96.7198C113.313 96.7672 113.452 96.828 113.593 96.8812C113.73 96.9367 113.829 96.9948 113.95 97.049C114.402 97.2894 114.793 97.6298 115.096 98.0446C115.398 98.4593 115.602 98.9377 115.694 99.4436C115.785 99.9277 115.761 100.426 115.626 100.9C115.561 101.13 115.467 101.352 115.349 101.559C115.245 101.756 115.114 101.936 114.959 102.094C114.907 102.146 114.847 102.191 114.783 102.228C114.767 102.235 114.752 102.243 114.738 102.252L114.641 102.308L114.449 102.419C114.323 102.497 114.189 102.563 114.057 102.63C113.926 102.698 113.794 102.765 113.657 102.822C113.119 103.069 112.561 103.265 111.988 103.408C111.353 103.561 110.707 103.663 110.057 103.711C109.41 103.762 108.774 103.781 108.156 103.813C107.707 103.835 107.258 103.821 106.811 103.773L106.658 103.759C106.296 103.727 105.934 103.818 105.629 104.017C105.324 104.215 105.094 104.511 104.975 104.857L104.899 105.078C104.864 105.15 104.839 105.225 104.799 105.296C104.726 105.449 104.628 105.588 104.511 105.709C104.452 105.776 104.389 105.839 104.323 105.899C104.258 105.963 104.188 106.024 104.116 106.08C104.044 106.142 103.968 106.2 103.889 106.253C103.819 106.317 103.736 106.373 103.658 106.434C102.945 106.932 102.162 107.319 101.335 107.581C99.5727 108.179 97.7366 108.527 95.8793 108.615C95.0999 108.658 94.3184 108.637 93.5421 108.555C92.7745 108.476 92.0144 108.335 91.2691 108.135C90.6044 107.961 89.9702 107.686 89.3884 107.319C88.9153 107.026 88.5337 106.604 88.2872 106.103C87.8693 105.284 87.942 104.061 88.4267 102.995C88.4825 102.86 88.5581 102.734 88.6221 102.602C88.7021 102.48 88.7666 102.346 88.8549 102.231C88.9349 102.11 89.022 101.994 89.1157 101.884C89.1961 101.779 89.3216 101.641 89.4383 101.517C89.9148 101.007 90.4253 100.53 90.9663 100.09C93.1214 98.31 95.7772 97.1289 98.5773 97.0164C100.806 96.9348 102.939 97.1448 105.143 97.2233C105.294 97.2477 105.448 97.2305 105.59 97.1735C105.667 97.1491 105.669 97.0507 105.639 96.9483C105.631 96.9213 105.621 96.8927 105.609 96.8625L105.591 96.8161L105.581 96.7921L105.576 96.78L105.573 96.774L105.572 96.771L105.571 96.7694L105.571 96.7686L105.567 96.7484C105.537 96.6707 105.503 96.5813 105.472 96.4826C105.44 96.38 105.416 96.2751 105.4 96.1688C105.381 96.0679 105.386 95.9371 105.371 95.8912C105.394 95.8617 105.276 95.7902 105.193 95.7272L104.93 95.5356C104.751 95.4101 104.576 95.2718 104.388 95.1542C104.203 95.0307 104.009 94.9238 103.806 94.8347C103.608 94.7341 103.399 94.6572 103.192 94.5709C102.78 94.3942 102.346 94.259 101.911 94.1215C101.468 93.9982 101.019 93.8991 100.565 93.8246C99.804 93.7002 99.0316 93.6587 98.2615 93.7008C97.4838 93.7473 96.7094 93.8392 95.9422 93.976L95.9169 93.9181Z" fill="#F6ED50"/>
<path d="M124.615 119.082C123.373 119.019 122.128 119.147 120.924 119.462C120.304 119.619 119.704 119.822 119.088 120.004C118.193 120.252 117.347 120.652 116.587 121.187C116.139 121.51 115.744 121.902 115.419 122.35C115.043 122.872 114.792 123.475 114.688 124.112C114.585 124.767 114.642 125.438 114.856 126.066C115.049 126.628 115.342 127.149 115.722 127.605C116.382 128.381 117.212 128.991 118.147 129.388C118.665 129.615 119.208 129.781 119.764 129.881C120.034 129.935 120.304 129.972 120.572 130.003C120.869 130.038 121.169 130.053 121.468 130.047C121.762 130.04 122.058 130.018 122.328 129.987C122.572 129.958 122.817 129.924 123.061 129.886C123.549 129.809 124.036 129.705 124.524 129.589C125.533 129.361 126.51 129.009 127.434 128.54C127.677 128.419 127.914 128.284 128.143 128.138C128.26 128.063 128.377 127.992 128.49 127.908L128.661 127.785L128.746 127.723L128.854 127.633C129.446 127.151 129.879 126.501 130.098 125.767C130.219 125.339 130.252 124.89 130.193 124.448C130.134 124.006 129.985 123.582 129.756 123.201C129.587 122.894 129.312 122.662 128.982 122.548C128.847 122.507 128.707 122.489 128.566 122.496C128.432 122.508 128.3 122.54 128.176 122.591C128.02 122.664 127.88 122.768 127.765 122.896C127.649 123.024 127.56 123.174 127.503 123.338C127.397 123.567 127.336 123.815 127.322 124.068C127.332 124.281 127.353 124.492 127.387 124.702C127.401 124.823 127.389 124.945 127.352 125.061C127.316 125.177 127.256 125.284 127.175 125.375C127.154 125.398 127.128 125.417 127.106 125.44C127.094 125.453 127.082 125.465 127.069 125.477L127.002 125.526C126.914 125.594 126.823 125.658 126.728 125.717C126.536 125.841 126.334 125.951 126.126 126.045C125.229 126.429 124.262 126.619 123.287 126.601C123.01 126.598 122.727 126.575 122.448 126.564C122.309 126.561 122.17 126.556 122.034 126.565C121.925 126.57 121.816 126.582 121.708 126.601C121.548 126.63 121.385 126.643 121.223 126.637C121.152 126.637 121.048 126.621 120.955 126.609C120.86 126.598 120.766 126.582 120.673 126.561C120.314 126.483 119.964 126.364 119.631 126.208C119.088 125.961 118.611 125.586 118.241 125.115C118.157 125.014 118.098 124.893 118.071 124.764C118.049 124.666 118.056 124.564 118.091 124.47C118.245 124.143 118.489 123.869 118.795 123.679C119.657 123.118 120.627 122.744 121.641 122.583C122.174 122.484 122.715 122.431 123.257 122.425C123.791 122.427 124.324 122.479 124.849 122.58C125.054 122.626 125.266 122.649 125.472 122.683C125.576 122.697 125.684 122.704 125.793 122.709C125.903 122.72 126.014 122.724 126.124 122.721C126.356 122.711 126.587 122.712 126.837 122.697L127.627 122.638C127.755 122.634 127.879 122.598 127.99 122.535C128.101 122.471 128.194 122.381 128.263 122.273C128.331 122.164 128.373 122.041 128.383 121.913C128.393 121.785 128.373 121.656 128.323 121.538L128.199 121.22C128.149 121.127 128.088 121.041 128.018 120.963C127.889 120.8 127.751 120.638 127.605 120.48C127.453 120.334 127.295 120.19 127.13 120.049C126.961 119.92 126.782 119.806 126.594 119.707C125.972 119.401 125.3 119.21 124.611 119.144L124.615 119.082Z" fill="#F6ED50"/>
</svg>
