<svg width="150" height="150" viewBox="0 0 150 150" fill="none" xmlns="http://www.w3.org/2000/svg">
<path d="M63.5294 78.5665L65.1927 79.5004C65.7492 79.8085 66.3302 80.0713 66.8978 80.3598L67.754 80.7842C68.042 80.9201 68.3377 81.0392 68.6292 81.1676L70.3858 81.9236C71.5841 82.3553 72.7648 82.8473 73.9906 83.1976L74.9029 83.4836C75.2065 83.5814 75.5108 83.6768 75.8209 83.7483L77.6719 84.22C77.9792 84.3065 78.2919 84.3623 78.6038 84.4229L79.5395 84.6059L80.4755 84.7896C80.7877 84.85 81.1033 84.8787 81.4171 84.925C82.0457 85.0069 82.6741 85.1003 83.3036 85.1744L85.1961 85.309C85.8101 85.3596 86.4263 85.3766 87.0422 85.36C87.6518 85.3499 88.2627 85.309 88.8722 85.2487C90.0929 85.1213 91.302 84.8997 92.4886 84.586C94.9853 83.9514 97.3253 82.8115 99.3639 81.2366C100.332 80.4712 101.18 79.5646 101.879 78.5471C102.548 77.5549 103.03 76.4479 103.298 75.2814C103.339 75.1212 103.373 74.959 103.398 74.7954L103.476 74.3044L103.485 74.2506C103.539 73.911 103.689 73.594 103.917 73.3367C104.146 73.0793 104.442 72.8923 104.773 72.7975C105.103 72.7027 105.454 72.7041 105.784 72.8015C106.114 72.8988 106.409 73.0882 106.635 73.3473C108.18 75.1184 110.473 76.1877 112.911 76.4708C115.385 76.7527 117.888 76.319 120.123 75.2209C121.215 74.6858 122.215 73.9797 123.084 73.1294C123.514 72.7065 123.901 72.2434 124.242 71.7464L124.515 71.3785C124.6 71.251 124.672 71.1148 124.751 70.9839C124.902 70.7165 125.076 70.4638 125.211 70.1871C125.767 69.0778 126.178 67.9014 126.433 66.6871C126.678 65.4514 126.78 64.1916 126.737 62.9326C126.64 60.3901 125.977 57.9013 124.796 55.6476C124.198 54.5364 123.486 53.4899 122.673 52.5246C121.83 51.5584 120.9 50.6721 119.894 49.8768C115.816 46.7004 110.517 45.0303 105.249 44.8919L105.238 44.8916C104.832 44.8809 104.439 44.7447 104.113 44.5017C103.787 44.2587 103.544 43.9208 103.417 43.5344C103.291 43.1479 103.287 42.7319 103.407 42.3432C103.526 41.9546 103.763 41.6124 104.084 41.3636C105.108 40.5517 105.81 39.403 106.066 38.1221C106.215 37.4362 106.274 36.7338 106.24 36.0327C106.203 35.3094 106.083 34.5927 105.884 33.8962C105.499 32.5039 104.776 31.2283 103.779 30.1824L103.595 29.996L103.385 29.8115L102.967 29.4399L102.519 29.1004C102.373 28.9824 102.219 28.8737 102.06 28.7748L101.585 28.4661C101.423 28.3693 101.253 28.2815 101.088 28.1879C100.753 28.002 100.408 27.8348 100.055 27.6872C97.88 26.7714 95.4271 26.3762 92.9442 26.2952C91.6934 26.2572 90.4415 26.2983 89.1959 26.4184C88.5731 26.4391 87.9554 26.5174 87.3355 26.5784L86.4119 26.7104C86.2578 26.7296 86.1049 26.7581 85.9541 26.7956C85.7995 26.8115 85.6459 26.8357 85.4939 26.8681C85.1876 26.9213 84.8816 26.9768 84.5824 27.0533C84.2819 27.1257 83.9774 27.1893 83.6787 27.268C83.0871 27.4348 82.5046 27.6324 81.9335 27.8599C80.8037 28.2865 79.724 28.8354 78.7136 29.4968C78.5896 29.5782 78.4589 29.6525 78.3399 29.7392L77.9889 30.0058C77.7497 30.1748 77.5202 30.3572 77.3018 30.5522L76.656 31.1364L76.0732 31.77C75.3502 32.6423 74.766 33.621 74.3413 34.6713L74.3347 34.6875C74.1503 35.1437 73.7922 35.508 73.3391 35.7002C72.8861 35.8924 72.3753 35.8967 71.9191 35.7123C71.7333 35.6363 71.5607 35.5314 71.4077 35.4014C70.3026 34.455 69.1761 33.5399 68.0232 32.6679C66.8661 31.8035 65.6896 30.9731 64.4854 30.1967C63.2761 29.4311 62.0459 28.7081 60.7857 28.0589C59.5304 27.4184 58.2409 26.8475 56.9229 26.3489C55.6154 25.8688 54.278 25.4747 52.9191 25.1691C51.5801 24.8808 50.2197 24.7023 48.8516 24.6356C47.4897 24.5874 46.1262 24.6552 44.7758 24.8383C43.4356 25.0293 42.1158 25.3433 40.8332 25.7764C40.5084 25.8688 40.2067 26.0159 39.892 26.1315L39.4244 26.3151C39.2696 26.3783 39.123 26.4575 38.9718 26.5275C38.6735 26.675 38.3665 26.8077 38.0745 26.9645L37.2133 27.4581C36.093 28.1335 35.056 28.9383 34.1236 29.856C33.8866 30.0775 33.6901 30.3346 33.4696 30.5703L33.1471 30.9313L32.8617 31.3204C32.6809 31.5824 32.4519 31.8267 32.2881 32.0882L32.0327 32.4763L31.7989 32.8809C31.1831 33.9939 30.7452 35.1965 30.501 36.4449C30.3057 37.0704 30.1636 37.7113 30.0763 38.3608C29.9762 39.0161 29.9648 39.682 30.0425 40.3404C30.1509 41.6557 30.4649 42.9458 30.9731 44.1638C31.9983 46.5695 33.8308 48.5235 36.0973 49.4545C36.4464 49.598 36.7438 49.844 36.95 50.1601C37.1563 50.4762 37.2617 50.8475 37.2523 51.2248C37.243 51.6022 37.1193 51.9678 36.8976 52.2733C36.6759 52.5787 36.3667 52.8097 36.0108 52.9356L35.9046 52.9727C34.8343 53.3481 33.8056 53.8331 32.835 54.42C32.5971 54.5745 32.3469 54.7089 32.1185 54.8773L31.4264 55.3701L30.7684 55.9057C30.5457 56.0799 30.351 56.2858 30.1401 56.4725C28.284 58.1008 26.8565 60.1601 25.983 62.4695L25.7023 63.3368L25.493 64.222C25.4354 64.5173 25.4055 64.812 25.3567 65.1079C25.3087 65.4033 25.3185 65.7064 25.2934 66.0064C25.2609 67.2256 25.414 68.4426 25.7475 69.6157C25.9013 70.1578 26.0832 70.6915 26.2926 71.2147C26.4042 71.4598 26.5167 71.6983 26.62 71.9361C26.7167 72.1782 26.8588 72.3861 26.9694 72.6077C27.1872 73.0553 27.4663 73.4314 27.6972 73.8214C27.8232 74.0072 27.9599 74.1771 28.0844 74.3521C28.2022 74.5251 28.3294 74.6915 28.4654 74.8506C29.3164 75.8775 30.2807 76.8048 31.3401 77.6149C32.5885 78.4803 32.5836 78.8902 31.1125 78.7348C30.6645 78.6582 30.2236 78.5446 29.7944 78.395C29.5421 78.2977 29.2775 78.1733 28.9896 78.0415C28.8483 77.9719 28.6933 77.9107 28.5499 77.8239L28.105 77.5533C26.6097 76.6087 25.3359 75.3524 24.3705 73.8703C22.8434 71.5784 21.9853 68.9063 21.8923 66.1538L21.8932 65.0904C21.9205 64.7355 21.9561 64.3801 21.9902 64.0248C22.0038 63.8481 22.0289 63.6724 22.0653 63.499L22.1618 62.9795C22.1962 62.8069 22.2233 62.6323 22.2648 62.4618L22.403 61.954C22.7597 60.6136 23.2987 59.3286 24.005 58.135C24.6015 57.1108 25.2991 56.1491 26.0874 55.2642C26.4635 54.8084 26.8983 54.4113 27.3087 53.9904C27.5245 53.7915 27.7497 53.6028 27.9738 53.4135C28.1936 53.219 28.4275 53.0425 28.6638 52.8697C30.5294 51.4597 32.63 50.3914 34.8683 49.7142L34.7114 52.5808C32.3626 51.4629 30.4106 49.6555 29.1157 47.3996C28.798 46.8555 28.5127 46.2931 28.2613 45.7153C28.1307 45.4301 28.0233 45.1363 27.9043 44.8469C27.8035 44.5516 27.695 44.2583 27.6045 43.9602C27.2426 42.7708 27.0027 41.5477 26.8887 40.3096C26.8317 39.6916 26.8224 39.0728 26.7777 38.45C26.7552 37.8242 26.7648 37.1977 26.8066 36.5729C26.8373 35.9418 26.9332 35.3155 27.0928 34.7042C27.2389 34.0861 27.4207 33.477 27.637 32.8799C28.0718 31.6723 28.6644 30.5275 29.3993 29.4753C29.7545 28.9539 30.1436 28.4565 30.5642 27.9863L31.1931 27.2809C31.4154 27.0591 31.647 26.8469 31.8743 26.6302C33.6987 24.926 35.8254 23.5777 38.145 22.6546C40.4229 21.737 42.8212 21.1527 45.2659 20.9199C45.5689 20.8795 45.8737 20.8627 46.1787 20.8495L47.0933 20.8033C47.7033 20.7883 48.3143 20.8058 48.9246 20.8125C49.5336 20.8608 50.145 20.8826 50.7523 20.9565L51.6625 21.0767L52.1171 21.139L52.563 21.2236C54.9346 21.6625 57.2531 22.3511 59.4798 23.2778C62.1521 24.4022 64.7089 25.7831 67.1144 27.4011C69.4661 28.9834 71.7069 30.7245 73.8213 32.6121L70.9019 33.3387C71.0783 32.9603 71.2525 32.5867 71.4245 32.2177C71.5089 32.0334 71.6069 31.8556 71.7176 31.6858L72.0333 31.1714C73.3418 29.1631 75.0876 27.4767 77.1401 26.2386L77.5095 26.0034L77.8907 25.7952L78.6539 25.3807C79.172 25.131 79.6925 24.884 80.2199 24.6632C80.7532 24.4627 81.2789 24.2299 81.8217 24.0675C82.0908 23.9775 82.3617 23.8929 82.6285 23.795C82.8975 23.7057 83.1701 23.6324 83.4411 23.5506C84.5238 23.231 85.625 22.9776 86.7386 22.7919C87.2946 22.7052 87.8524 22.6265 88.4113 22.5593C88.6901 22.5177 88.9723 22.5117 89.2528 22.4897C89.5342 22.4678 89.8138 22.4564 90.0928 22.4504C91.214 22.409 92.3367 22.426 93.4561 22.5016C94.5894 22.5689 95.7169 22.7112 96.8313 22.9276C97.9652 23.1398 99.0801 23.4434 100.165 23.8353C101.269 24.2394 102.335 24.7403 103.35 25.3323C104.377 25.9508 105.331 26.6815 106.196 27.511C107.075 28.3841 107.815 29.3861 108.392 30.4825C109.557 32.6618 110.071 35.1299 109.873 37.5931C109.764 38.8697 109.418 40.1148 108.853 41.2647C108.264 42.4541 107.415 43.4964 106.37 44.315L105.329 41.1597C107.86 41.2183 110.374 41.5847 112.816 42.2511C116.548 43.2645 120.02 45.065 122.998 47.5314C124.499 48.7929 125.828 50.2473 126.948 51.8571C128.622 54.3192 129.737 57.118 130.214 60.057C130.692 62.996 130.52 66.0038 129.711 68.8693C129.135 70.8065 128.208 72.6213 126.976 74.223C126.36 75.0451 125.65 75.7915 124.859 76.4464C124.078 77.0998 123.232 77.6707 122.333 78.1503C119.419 79.7061 116.105 80.3533 112.82 80.0084C111.997 79.9237 111.184 79.7683 110.388 79.5441C109.582 79.3245 108.799 79.029 108.049 78.6616C107.29 78.2941 106.568 77.8524 105.896 77.3429C105.224 76.8256 104.603 76.244 104.044 75.6064L106.886 74.7454C106.692 76.1461 106.278 77.5074 105.661 78.7794C105.044 80.0313 104.246 81.1858 103.293 82.2057C102.366 83.2037 101.324 84.0879 100.188 84.8396C99.078 85.5817 97.9013 86.2187 96.6732 86.7424C94.2458 87.7703 91.6769 88.4253 89.0537 88.6854C88.4002 88.7461 87.745 88.793 87.0874 88.8052C86.7587 88.8136 86.4299 88.8178 86.1004 88.8088C85.7674 88.8097 85.4478 88.7886 85.1291 88.7661L83.2109 88.6398C82.8902 88.6271 82.5748 88.575 82.2575 88.5368L81.3068 88.4144C80.0333 88.2835 78.7891 87.9998 77.5349 87.7724C76.9109 87.6454 76.2975 87.4735 75.6786 87.3259C75.0613 87.1719 74.4409 87.0289 73.8372 86.8291L72.0147 86.2701C71.4089 86.0791 70.8189 85.8425 70.2206 85.6306C69.0176 85.2217 67.8628 84.691 66.6925 84.2016C64.3763 83.1609 62.1357 81.9596 59.987 80.6065C58.8941 79.9592 57.8745 79.1944 56.8315 78.4687C56.3172 78.095 55.8295 77.6832 55.3275 77.292L54.58 76.6978C54.334 76.4958 54.1027 76.2745 53.8635 76.0637C51.4321 73.97 49.3098 71.5421 47.5599 68.8526L49.6376 68.1806C49.6479 69.1318 49.5263 70.0798 49.2765 70.9976C49.0268 71.9008 48.6421 72.761 48.1353 73.5491C47.146 75.0244 45.8153 76.2393 44.2563 77.0905C41.4372 78.6231 38.2064 79.2271 35.024 78.8165C34.2994 78.7361 33.5962 78.5213 32.9504 78.1831C32.5524 77.9354 32.4284 77.7352 32.5352 77.6044C32.7602 77.3248 33.8333 77.4098 35.8839 77.2468C38.5686 77.0527 41.1457 76.1123 43.3243 74.5315C44.3203 73.7934 45.1328 72.8357 45.699 71.7329C45.9582 71.2086 46.1463 70.652 46.2581 70.0778C46.3588 69.4914 46.3946 68.8958 46.3648 68.3016C46.3452 67.8487 46.4703 67.4014 46.722 67.0244C46.9736 66.6474 47.3388 66.3604 47.7646 66.2049C48.1904 66.0494 48.6546 66.0335 49.09 66.1596C49.5254 66.2856 49.9093 66.5471 50.1861 66.906L50.2835 67.034L51.2715 68.3314C52.9239 70.3948 54.7748 72.2912 56.7975 73.9934C58.8845 75.7117 61.1114 77.2526 63.455 78.6C63.4791 78.588 63.5017 78.5772 63.5294 78.5665Z" fill="#F6ED50"/>
<path d="M54.0831 93.2961C54.796 93.4567 55.4978 93.6635 56.1839 93.9152C58.196 94.6739 60.0471 95.8049 61.6404 97.2491C62.1981 97.7514 62.725 98.287 63.218 98.853C63.7806 99.5017 64.2504 100.225 64.614 101.003C64.862 101.52 65.0515 102.063 65.1788 102.622C65.3176 103.198 65.3823 103.789 65.3713 104.381C65.3668 104.688 65.3427 104.993 65.2991 105.297C65.2477 105.607 65.1743 105.914 65.0794 106.215C64.9837 106.521 64.8637 106.819 64.7205 107.106C64.5727 107.392 64.4045 107.666 64.2172 107.928C63.4931 108.888 62.5429 109.654 61.4512 110.157C60.5012 110.603 59.4995 110.929 58.4692 111.129C55.5545 111.739 52.5411 111.701 49.6429 111.016C48.6777 110.781 47.732 110.472 46.8142 110.092C45.7791 109.677 44.8082 109.118 43.9305 108.43C43.4642 108.028 43.0498 107.569 42.697 107.064C42.3073 106.538 41.9935 105.959 41.7648 105.345L43.7478 106.509C42.7596 106.662 41.7579 106.708 40.7598 106.648C39.7685 106.582 38.7867 106.414 37.8301 106.146C36.8749 105.879 35.951 105.511 35.074 105.048C34.634 104.818 34.2076 104.564 33.7968 104.285L33.4743 104.065C33.3201 103.952 33.1745 103.828 33.0389 103.693C32.8013 103.455 32.5906 103.192 32.4104 102.908C32.0951 102.401 31.8513 101.854 31.6858 101.281C31.5294 100.71 31.4564 100.119 31.4689 99.5274C31.4823 98.9452 31.5806 98.368 31.7607 97.8141C31.9331 97.2672 32.1823 96.7475 32.5007 96.2705C33.1352 95.3256 34.0026 94.5603 35.0192 94.0486C35.2506 93.9307 35.488 93.825 35.7304 93.732C35.9594 93.6411 36.1948 93.5598 36.4306 93.4804C36.913 93.3242 37.4066 93.2049 37.9071 93.1234C38.7018 92.9842 39.5144 92.9814 40.3101 93.115C41.1119 93.2478 41.8824 93.5269 42.5832 93.9383C43.1276 94.2493 43.5888 94.6873 43.9274 95.215C44.0456 95.4037 44.1387 95.6071 44.2042 95.82C44.1891 95.9836 44.1858 96.1481 44.1943 96.3122C44.2293 96.8552 44.3321 97.2497 43.8626 97.2348C43.71 97.2219 43.5609 97.1823 43.422 97.1178C43.3249 97.0755 43.2307 97.0269 43.14 96.9724C43.1051 96.9497 43.0667 96.9331 43.0263 96.9233L42.9255 96.8871C42.781 96.8317 42.6405 96.7665 42.5048 96.6921C42.3435 96.625 42.1866 96.5477 42.0351 96.4605C41.618 96.2541 41.1866 96.0782 40.7441 95.9341C40.2934 95.7999 39.8296 95.7139 39.3607 95.6777C38.7955 95.6431 38.2282 95.6943 37.6782 95.8294C37.3909 95.8981 37.1072 95.9815 36.8284 96.0792C36.687 96.1264 36.548 96.1867 36.4074 96.2396C36.2701 96.2948 36.1714 96.3524 36.0499 96.4063C35.5982 96.6451 35.2066 96.9832 34.9045 97.3952C34.6024 97.8073 34.3976 98.2824 34.3057 98.785C34.2154 99.266 34.2387 99.7614 34.3736 100.232C34.4394 100.46 34.5327 100.68 34.6515 100.887C34.7545 101.082 34.8856 101.261 35.0406 101.418C35.0933 101.47 35.1527 101.515 35.2173 101.551C35.2328 101.558 35.2478 101.566 35.2621 101.575L35.3586 101.63L35.5512 101.741C35.6775 101.818 35.8109 101.883 35.943 101.95C36.0742 102.018 36.2063 102.084 36.3432 102.142C36.8805 102.386 37.4393 102.581 38.0123 102.723C38.6467 102.876 39.2926 102.976 39.9434 103.024C40.5902 103.075 41.2258 103.093 41.8439 103.126C42.2926 103.147 42.7422 103.134 43.1889 103.086L43.3415 103.072C43.7035 103.04 44.0658 103.13 44.3708 103.328C44.6757 103.525 44.906 103.819 45.0249 104.162L45.1008 104.382C45.1361 104.453 45.1605 104.528 45.2006 104.599C45.2742 104.75 45.3716 104.889 45.4892 105.009C45.548 105.075 45.6105 105.138 45.6766 105.197C45.7424 105.261 45.8116 105.322 45.884 105.378C45.9563 105.439 46.0321 105.496 46.1111 105.549C46.1807 105.613 46.2645 105.669 46.3419 105.729C47.0546 106.224 47.8379 106.608 48.6654 106.869C50.4273 107.463 52.2634 107.809 54.1207 107.896C54.9001 107.938 55.6816 107.918 56.4579 107.836C57.2255 107.758 57.9856 107.618 58.7309 107.418C59.3956 107.246 60.0298 106.973 60.6116 106.608C61.0847 106.317 61.4663 105.898 61.7128 105.401C62.1307 104.587 62.058 103.372 61.5733 102.313C61.5175 102.178 61.4419 102.053 61.3779 101.922C61.2979 101.801 61.2334 101.668 61.1451 101.554C61.0651 101.434 60.978 101.319 60.8843 101.209C60.8039 101.105 60.6784 100.968 60.5617 100.845C60.0852 100.338 59.5747 99.8646 59.0337 99.4275C56.8786 97.659 54.2228 96.4857 51.4227 96.3739C49.1943 96.2929 47.0607 96.5014 44.8572 96.5794C44.7063 96.6036 44.5517 96.5865 44.4097 96.53C44.3332 96.5057 44.3307 96.4079 44.3612 96.3062C44.369 96.2794 44.379 96.251 44.3906 96.221L44.4092 96.1749L44.4192 96.1511L44.4244 96.1391L44.427 96.1331L44.4284 96.1301L44.4291 96.1286L44.4294 96.1278L44.4329 96.1076C44.4629 96.0305 44.497 95.9417 44.5275 95.8436C44.5599 95.7418 44.5842 95.6375 44.6003 95.5319C44.619 95.4316 44.6142 95.3018 44.6292 95.2561C44.6055 95.2269 44.7238 95.1558 44.807 95.0932L45.0704 94.9029C45.2487 94.7782 45.424 94.6409 45.6122 94.5241C45.7965 94.4014 45.9913 94.2951 46.1942 94.2067C46.3918 94.1067 46.6011 94.0303 46.8079 93.9446C47.2203 93.7691 47.6535 93.6348 48.0893 93.4981C48.5322 93.3757 48.9813 93.2773 49.4347 93.2032C50.196 93.0796 50.9684 93.0384 51.7385 93.0802C52.5162 93.1264 53.2906 93.2177 54.0578 93.3537L54.0831 93.2961Z" fill="#F6ED50"/>
<path d="M25.3855 118.293C26.6276 118.231 27.872 118.358 29.0757 118.671C29.6962 118.827 30.2963 119.029 30.9124 119.209C31.807 119.456 32.6528 119.853 33.4133 120.385C33.8616 120.705 34.2558 121.095 34.5812 121.54C34.9575 122.058 35.2076 122.658 35.3118 123.29C35.4155 123.941 35.3578 124.607 35.1438 125.231C34.9514 125.789 34.658 126.308 34.2781 126.76C33.6183 127.531 32.7879 128.137 31.8527 128.531C31.3348 128.757 30.7924 128.921 30.2365 129.021C29.9659 129.075 29.6965 129.112 29.4281 129.142C29.1309 129.177 28.8315 129.192 28.5322 129.186C28.2386 129.179 27.9424 129.157 27.6725 129.126C27.428 129.098 27.1836 129.064 26.9395 129.026C26.4508 128.95 25.9642 128.846 25.476 128.731C24.4671 128.504 23.4898 128.154 22.566 127.689C22.323 127.568 22.0862 127.435 21.8566 127.29C21.7403 127.215 21.6233 127.145 21.5099 127.061L21.3392 126.939L21.2541 126.877L21.1457 126.788C20.5545 126.309 20.1212 125.663 19.9024 124.934C19.7807 124.509 19.7482 124.063 19.807 123.624C19.8658 123.185 20.0146 122.763 20.2441 122.385C20.4128 122.08 20.6886 121.849 21.0181 121.737C21.1526 121.695 21.2933 121.678 21.4338 121.685C21.568 121.697 21.6997 121.728 21.8245 121.779C21.9801 121.852 22.1198 121.955 22.2352 122.083C22.3507 122.21 22.4396 122.359 22.4969 122.521C22.6032 122.749 22.6646 122.995 22.6778 123.247C22.6685 123.458 22.6468 123.668 22.6129 123.876C22.5993 123.996 22.6111 124.118 22.6477 124.233C22.6842 124.348 22.7446 124.454 22.8249 124.545C22.8459 124.568 22.8719 124.587 22.8939 124.61C22.9058 124.623 22.9184 124.635 22.9316 124.646L22.9982 124.695C23.0862 124.763 23.1775 124.826 23.2719 124.884C23.4642 125.008 23.6657 125.117 23.8746 125.21C24.7713 125.592 25.7386 125.781 26.7132 125.763C26.9897 125.759 27.273 125.737 27.5519 125.726C27.6908 125.723 27.8301 125.717 27.9659 125.727C28.0752 125.732 28.184 125.744 28.2918 125.763C28.4519 125.792 28.6147 125.804 28.7774 125.799C28.8478 125.798 28.9525 125.782 29.0454 125.771C29.1401 125.76 29.2341 125.744 29.327 125.723C29.6863 125.645 30.0359 125.528 30.3689 125.372C30.9124 125.127 31.3891 124.755 31.7587 124.287C31.8432 124.186 31.9017 124.066 31.929 123.938C31.9507 123.841 31.9439 123.739 31.9093 123.646C31.7555 123.321 31.5106 123.048 31.2046 122.86C30.3427 122.303 29.3735 121.931 28.3594 121.771C27.8262 121.673 27.2856 121.621 26.7435 121.615C26.2093 121.616 25.6763 121.668 25.1516 121.768C24.9459 121.814 24.7346 121.837 24.5283 121.871C24.4236 121.884 24.3163 121.892 24.2069 121.896C24.0971 121.907 23.9866 121.912 23.8762 121.909C23.6439 121.899 23.4129 121.9 23.1628 121.885L22.3726 121.826C22.2452 121.822 22.1207 121.786 22.01 121.723C21.8993 121.66 21.8057 121.57 21.7372 121.463C21.6688 121.355 21.6276 121.233 21.6172 121.105C21.6068 120.978 21.6275 120.851 21.6776 120.733L21.8015 120.417C21.8513 120.325 21.9118 120.239 21.9816 120.162C22.1115 120 22.2495 119.839 22.3951 119.682C22.5468 119.537 22.7053 119.394 22.8706 119.254C23.0388 119.126 23.2179 119.012 23.4058 118.915C24.0279 118.61 24.7 118.421 25.3895 118.355L25.3855 118.293Z" fill="#F6ED50"/>
</svg>
