<svg width="189" height="101" viewBox="0 0 189 101" fill="none" xmlns="http://www.w3.org/2000/svg">
<path d="M180.529 1.02318C184.281 0.109456 185.965 0.802813 187.117 2.17678C187.338 2.39942 187.543 2.6372 187.74 2.88081L188.233 3.01283C189.228 3.38269 188.252 6.71744 184.587 10.0758C184.553 10.1083 184.516 10.1386 184.483 10.171C184.747 11.1814 184.356 12.4327 183.437 13.6755C181.531 16.2444 179.914 19.1181 177.634 21.5452L171.174 29.3237C168.05 33.2816 164.697 37.24 161.627 41.378L161.427 41.2839C159.821 43.2719 158.28 45.3186 156.684 47.3503C155.087 49.3819 153.534 51.4056 151.985 53.4912C150.861 54.9883 149.943 56.6441 148.833 58.1656C144.921 63.5246 141.103 68.9921 137.684 74.6691C136.187 77.3271 134.741 79.7926 133.425 82.3954C132.608 84.0574 131.825 85.75 131.085 87.4326C130.233 89.018 129.465 90.648 128.785 92.3149C128.558 93.1632 128.008 93.3666 127.288 92.2023C126.45 90.396 126.15 88.3852 126.425 86.412C127.37 82.5196 128.626 78.708 130.18 75.0161C131.906 71.4624 133.918 68.0541 136.194 64.8251C138.911 60.9233 141.042 56.5125 143.662 52.3573C146.529 47.8961 149.442 43.5695 152.703 39.2552C154.658 36.6583 156.679 34.1199 158.696 31.5192C160.594 29.1468 162.539 26.8159 164.483 24.4991C161.955 25.9829 159.389 27.4455 156.792 28.9218L146.941 34.2596C136.978 39.4029 126.905 44.3598 116.726 49.1283L116.517 48.9069L85.8424 62.0197C82.1107 63.624 78.4967 65.4049 74.7509 66.9847C71.4161 68.198 68.2246 69.7757 65.2348 71.6896C64.4668 72.1593 63.6659 72.5737 62.8389 72.9289C62.5755 73.0649 62.5313 73.0741 62.4684 73.0779C62.3871 73.1155 62.3113 73.1645 62.2439 73.2236C61.9843 73.4227 61.6802 73.6306 61.4101 73.8682C60.2722 74.8033 59.2546 76.0605 58.105 77.1166C55.7385 79.6 53.5458 82.2463 51.5455 85.0338L50.7698 86.0856L49.8269 87.4458L47.4333 90.7527C45.9507 92.8973 44.5454 95.0632 43.237 96.6347C42.3376 97.7214 41.3014 98.6876 40.1551 99.5089C39.7111 99.8812 39.1605 100.102 38.5829 100.141L38.2745 100.059L38.2382 100.194L38.084 100.153C37.9157 100.045 37.7542 99.9246 37.6013 99.7955C37.2984 99.5288 37.033 99.2213 36.8141 98.8821C36.5734 98.5491 36.3904 98.2312 36.183 97.9278C36.0081 97.5704 35.8508 97.2042 35.713 96.8309C35.4248 96.0987 35.192 95.3448 35.0168 94.5774C34.7773 93.7353 34.592 92.8776 34.4649 92.0113C34.4133 91.0743 34.339 90.1228 34.2395 89.1592C34.1697 87.8798 34.3148 86.4093 34.2707 85.0336L34.3387 82.7789C34.3219 82.0718 34.4407 81.0908 34.4323 80.737L34.6596 77.655C34.6798 76.6305 34.7934 75.6093 35.001 74.6057L36.0867 68.8611C36.2342 67.9534 36.4407 67.0555 36.7039 66.1743C36.9001 65.417 37.0387 64.645 37.1166 63.8667L37.3442 63.0173C37.4253 62.7362 37.5993 62.4898 37.8388 62.3222C38.7802 61.7883 39.9672 61.9862 40.6847 62.7961C42.1862 64.2134 43.3645 65.9396 44.1381 67.8554C45.0485 70.0416 45.4367 72.4109 45.275 74.7748C45.1796 75.8238 45.1626 76.8114 44.9505 77.9115L43.6894 82.618C43.5584 82.7872 43.5009 83.0029 43.5294 83.215C43.5778 83.4966 43.6557 83.5175 43.9732 83.3339L44.2629 83.1027C44.2629 83.1027 44.2789 83.0812 44.4209 82.8967L44.634 82.5602L45.4892 81.2189C46.6606 79.466 47.871 77.723 49.1964 76.0113C49.9929 74.964 50.8091 73.9213 51.6634 72.8895C52.1123 72.3693 52.5426 71.844 53.0107 71.3289C53.479 70.8137 54.0139 70.3566 54.5347 69.8761C55.657 68.8633 56.8517 67.9335 58.1081 67.0933C58.5519 66.8426 59.0115 66.6204 59.4835 66.4283L60.3461 66.0599C60.9277 65.7954 61.5254 65.5674 62.1364 65.381C63.357 64.9846 64.6203 64.6616 65.7729 64.2884L69.2541 62.3084L76.0613 58.8599L115.154 39.3633C118.236 37.8743 121.318 36.3848 124.39 34.852C128.026 33.0487 131.665 31.2378 135.287 29.4029L135.723 29.1462C138.165 27.7336 140.608 26.3213 142.935 24.8778C144.395 23.9677 145.876 23.0665 147.348 22.1583C142.723 23.5532 138.069 24.9228 133.401 26.332L133.468 26.0815L111.111 32.493C108.399 33.2958 105.77 34.3289 103.063 35.1124L74.4402 43.4197C70.1784 44.6134 65.9748 46.0514 61.8346 47.4844C56.5136 49.352 51.0791 50.8773 45.5647 52.053C43.8422 52.3974 43.8015 51.7056 44.8692 50.3385C46.557 48.2455 48.6113 46.4762 50.9314 45.12L54.7523 43.1059L56.68 42.0722L58.6778 41.243C61.3403 40.1376 64.018 39.077 66.7112 38.0625C69.4175 37.0514 72.1114 36.0158 74.8919 35.19C77.6721 34.3642 80.4929 33.4671 83.3422 32.8459C90.0936 31.141 96.7905 28.4085 103.531 26.2048C107.725 24.8391 111.934 23.51 116.145 22.1927C116.022 22.2111 115.899 22.2332 115.776 22.2514L98.9729 24.6523L98.9253 24.3711L65.5796 28.6637C61.5178 29.1876 57.5217 29.9993 53.46 30.5232L32.0747 33.3093L29.4575 33.6819L28.1186 33.9024L27.0611 34.0732L24.7454 34.3208C23.1412 34.5316 21.3428 34.774 19.4366 35.1106C19.0051 35.1809 18.5918 35.2569 18.1936 35.3568C17.9861 35.3959 17.7856 35.4675 17.6005 35.5693L18.1007 35.7034L20.2746 36.4514C21.7891 36.9605 23.3433 37.4797 24.7268 38.0158C25.1886 38.1396 25.6256 38.3597 26.0475 38.5554L26.4518 38.6637L27.1745 39.043L28.6025 39.7991C30.5268 40.8376 32.3691 42.0225 34.1127 43.3425C35.951 44.7161 37.6019 46.3257 39.0215 48.1298C40.498 50.0957 41.4019 52.4343 41.6297 54.8843C41.7775 56.4119 41.3495 57.0826 40.8897 57.1042C40.4299 57.1257 39.7239 56.5235 38.6771 55.8089C37.3391 54.9698 35.87 54.3602 34.3314 54.0046C32.6582 53.3803 31.0519 52.5888 29.5363 51.6438C28.0213 50.6855 26.4441 49.828 24.8164 49.0772C23.9723 48.6857 23.1277 48.2945 22.254 47.9364L21.5909 47.6356L20.1454 47.0202C19.1059 46.7416 18.0388 46.332 16.9762 45.9853L13.9035 44.7482L10.6986 43.5382L7.36196 42.3535L5.67963 41.7796C5.16546 41.622 4.66856 41.4119 4.19653 41.1541C2.92191 40.5262 1.79518 39.6326 0.893999 38.5332C0.351298 37.9824 0.0321216 37.2484 0.000370155 36.4751C-0.00596182 35.9833 0.0629858 35.493 0.204329 35.0219C0.307295 34.7614 0.38025 34.489 0.421323 34.212C0.452529 33.9398 0.524209 33.6724 0.63327 33.421C1.22204 32.0099 2.26353 30.834 3.59238 30.0799C4.92028 29.2538 6.38972 28.6804 7.92537 28.3887L8.63048 28.2244L9.74255 28.2337C10.4437 28.2356 11.2603 28.2693 11.8074 28.2299L14.9392 27.7873L20.9489 26.9995L23.8268 26.7372L25.1739 26.5612L25.7894 26.498L26.1718 26.4551C36.1832 25.2931 46.3792 22.9817 56.4479 21.2977L90.0507 15.9779L110.622 12.6024C120.964 10.8259 131.425 9.45348 141.655 7.39917C145.619 6.62186 149.523 5.68346 153.399 4.69646L165.023 2.0641C166.736 1.6759 168.383 1.22771 170.111 0.863933C171.839 0.500136 173.014 0.278436 174.115 0.0980192C175.054 -0.0011838 175.998 -0.0255994 176.94 0.0272466C178.124 0.0666604 179.285 0.377761 180.33 0.935732C180.396 0.966762 180.463 0.993211 180.529 1.02318Z" fill="#F6ED50"/>
<path d="M75.5847 71.8992C80.082 71.9728 84.5122 72.9988 88.5846 74.9082C91.0267 76.038 93.7611 76.5424 96.2625 77.6053C99.0029 78.7853 101.645 80.1845 104.161 81.7887C105.705 82.8019 107.235 83.7916 108.701 84.8665C110.962 86.4436 113 88.3129 115.142 90.0237C116.882 91.2699 118.537 92.6321 120.096 94.1004C120.389 94.4683 120.732 94.8082 120.996 95.2095C121.922 96.7596 121.866 97.5092 121.017 98.5217C120.856 98.7472 120.681 98.9628 120.494 99.1666C119.633 99.7705 118.489 99.7834 117.615 99.2005C117.32 99.0466 117.01 98.9043 116.697 98.765C116.522 99.015 116.076 99.1094 115.472 99.1028C114.429 99.1132 113.395 98.9075 112.436 98.4972C112.062 98.3039 111.733 98.0311 111.472 97.7001L110.646 96.7761L108.845 94.9513L105.126 91.2661C103.482 89.8271 101.674 88.5867 99.7397 87.5701C97.6868 86.2966 95.5636 85.1294 93.4065 84.014C92.0542 83.3624 90.7019 82.7108 89.3097 82.1311L86.1341 80.8866C85.0367 80.5925 83.9752 80.1628 82.8777 79.8687C81.155 79.5325 79.4087 79.3269 77.6549 79.2544C77.2891 79.1565 76.8703 79.2527 76.4891 79.2125C76.3071 79.1638 76.1418 79.1109 75.9907 79.0568C74.8587 78.9845 73.7338 78.8105 72.6314 78.5281C71.9962 78.3576 72.1083 76.6322 72.6821 75.0294C73.2561 73.4264 74.366 71.9034 75.5847 71.8992Z" fill="#F6ED50"/>
</svg>
