<svg width="201" height="154" viewBox="0 0 201 154" fill="none" xmlns="http://www.w3.org/2000/svg">
<path d="M178.063 60.9418C157.856 53.0711 137.646 45.2054 117.442 37.3377C97.233 29.4664 77.0232 21.6007 56.8191 13.733C45.425 9.29531 34.0284 4.85635 22.6326 0.423939C22.4698 0.358708 20.8649 -0.289 20.7641 0.153741C16.3824 18.9574 12.0075 37.7582 7.62596 56.5619C5.44735 65.9224 3.26437 75.2854 1.08576 84.6459C0.240594 88.2883 -0.791548 92.2571 0.940708 95.7748C2.51827 98.9659 5.79751 100.94 8.95501 102.28C16.1127 105.322 24.1207 104.583 31.7322 104.442C30.4094 103.685 29.0859 102.932 27.7631 102.175C26.9039 105.786 26.0458 109.391 25.1866 113.002C24.5846 115.531 24.1706 118.058 24.1285 120.658C24.0304 127.244 25.912 133.798 29.4533 139.29C31.4946 142.455 34.0402 145.239 37.0164 147.535C37.7961 148.136 38.7027 148.623 39.6426 148.917C39.8527 148.985 41.1139 149.382 40.9494 148.805C38.2703 139.35 40.5712 128.818 46.8896 121.196C46.0673 121.017 45.2488 120.841 44.4284 120.659C58.5153 127.943 72.6085 135.23 86.6954 142.515C93.2142 145.884 99.6834 149.732 106.608 152.235C112.556 154.387 118.82 154.949 124.583 151.755C127.354 150.218 129.798 148.148 132.119 146.002C134.839 143.484 137.488 140.887 140.161 138.322C145.986 132.746 151.806 127.166 157.631 121.59C169.155 110.547 180.684 99.5087 192.21 88.467C195.054 85.743 198.705 82.99 200.348 79.3029C201.657 76.3641 200.926 73.2764 198.768 71.0189C196.432 68.5709 193.262 66.98 190.18 65.6709C186.191 63.9808 182.099 62.5074 178.061 60.9362C177.721 60.805 176.227 60.1322 176.204 60.8437C176.179 61.4972 178.325 62.379 178.726 62.5353C182.277 63.9191 185.831 65.2979 189.385 66.6836C191.492 67.5071 193.64 68.3895 195.127 70.1775C199.789 75.7761 192.655 81.6804 188.881 85.2954C177.947 95.7674 167.015 106.237 156.081 116.709C150.615 121.944 145.148 127.181 139.682 132.416C136.891 135.091 134.096 137.764 131.305 140.44C128.987 142.659 126.694 144.936 124.162 146.916C121.801 148.765 119.179 150.347 116.282 151.138C113.344 151.944 110.28 151.807 107.372 151.037C104.588 150.303 101.975 149.031 99.4232 147.735C96.2073 146.105 93.0192 144.43 89.8162 142.774C74.8631 135.042 59.9138 127.308 44.9602 119.577C44.5546 119.371 42.9262 118.524 42.4977 119.04C36.0937 126.756 33.8652 137.447 36.5759 147.006C37.8869 147.428 39.1966 147.853 40.5095 148.275C30.7765 140.776 26.6343 127.545 29.4831 115.571C30.3762 111.815 31.2723 108.06 32.1653 104.304C32.4117 103.266 28.9191 102.024 28.1963 102.037C22.1638 102.145 15.4996 102.915 9.65761 101.159C7.20843 100.426 5.53723 98.6574 4.78551 96.1738C3.66007 92.4442 5.13868 88.2784 5.98929 84.6153C10.0716 67.0948 14.1519 49.5687 18.2332 32.0476C20.5458 22.1256 22.8541 12.203 25.1662 2.28229C24.5442 2.19056 23.9215 2.10005 23.2971 2.01339C43.5051 9.88286 63.7161 17.7491 83.9197 25.618C104.128 33.4875 124.337 41.3532 144.541 49.2221C155.936 53.6586 167.332 58.0975 178.728 62.5315C179.068 62.6615 180.563 63.3361 180.587 62.6234C180.611 61.9693 178.464 61.0875 178.063 60.9312L178.063 60.9418Z" fill="#7965C1"/>
<path d="M50.1169 74.0842L47.9972 73.1559L53.4242 60.8593L62.0553 64.6394L61.2513 66.4611L54.7399 63.6093L53.2525 66.9795L59.3217 69.6376L58.5177 71.4593L52.4485 68.8012L50.1169 74.0842Z" fill="#7965C1"/>
<path d="M58.7253 77.8544L61.8274 70.8256L60.7752 70.3648L61.6931 68.285L63.8585 69.2333L63.088 70.9791L63.7285 71.2596C64.236 70.7694 64.8233 70.4831 65.4904 70.4009C66.1677 70.3232 66.852 70.4357 67.5433 70.7384L68.3057 71.0724L67.5219 72.8485L66.6679 72.4745C65.8038 72.0961 65.0386 72.0568 64.3724 72.3569C63.7164 72.6613 63.2053 73.2285 62.839 74.0584L60.7687 78.7493L58.7253 77.8544Z" fill="#7965C1"/>
<path d="M68.1822 82.1954C67.1351 81.7368 66.4204 81.1158 66.0383 80.3325C65.6663 79.5537 65.6656 78.7443 66.0364 77.9043C66.425 77.0238 67.0314 76.4742 67.8558 76.2555C68.6802 76.0369 69.6617 76.1769 70.8003 76.6756L73.6976 77.9445L73.8651 77.565C74.4011 76.3505 73.9778 75.4405 72.5952 74.835C71.4261 74.323 70.5393 74.4357 69.9347 75.1734L67.8608 74.2651C68.449 73.3995 69.2157 72.8718 70.1609 72.6819C71.1162 72.4964 72.1784 72.6597 73.3475 73.1718C74.6589 73.7461 75.5263 74.4883 75.9496 75.3983C76.3773 76.2982 76.3389 77.3199 75.8341 78.4636L74.206 82.1525L75.1973 82.5867L74.2794 84.6665L72.1292 83.7248L72.7657 82.2826L72.1252 82.0021C71.5868 82.3701 70.9856 82.5778 70.3217 82.6252C69.6578 82.6726 68.9447 82.5293 68.1822 82.1954ZM69.1974 80.7198C69.7159 80.9468 70.2282 81.0505 70.7343 81.0306C71.2405 81.0107 71.6841 80.885 72.0654 80.6534C72.4612 80.4162 72.7507 80.0901 72.9338 79.6751L73.0611 79.3867L70.2705 78.1645C69.1522 77.6748 68.41 77.8448 68.0437 78.6747C67.865 79.0795 67.8768 79.4651 68.0791 79.8315C68.2858 80.1877 68.6586 80.4838 69.1974 80.7198Z" fill="#7965C1"/>
<path d="M78.4555 91.0605C77.1441 90.4861 76.195 89.7504 75.6083 88.8534C75.0215 87.9564 74.8619 86.9988 75.1292 85.9806L77.3251 86.9424C77.1919 87.9589 77.8014 88.7632 79.1535 89.3554C80.0379 89.7427 80.8055 89.8313 81.4563 89.6212C82.1026 89.4212 82.5933 88.9417 82.9283 88.1826L83.5313 86.8163L83.455 86.7829C82.9731 87.1878 82.4176 87.4155 81.7887 87.4662C81.1598 87.5168 80.4946 87.3885 79.7932 87.0813C78.929 86.7028 78.2594 86.1861 77.7842 85.5312C77.3236 84.8705 77.0673 84.1182 77.0152 83.2742C76.9777 82.4244 77.1689 81.5239 77.5888 80.5726C78.2186 79.1456 79.1029 78.1863 80.2418 77.6948C81.3954 77.1976 82.6533 77.2473 84.0155 77.844C84.7678 78.1734 85.3458 78.5956 85.7493 79.1105C86.1675 79.6198 86.4181 80.2065 86.501 80.8708L87.1414 81.1513L87.7779 79.7091L89.9281 80.6508L89.0102 82.7306L87.958 82.2698L84.9363 89.1164C84.3735 90.3916 83.5263 91.1981 82.3946 91.5357C81.2731 91.8779 79.9601 91.7195 78.4555 91.0605ZM81.087 85.5103C81.8494 85.8443 82.5481 85.8966 83.183 85.6675C83.8224 85.4282 84.3029 84.9442 84.6245 84.2155L85.0466 83.2591C85.3637 82.5406 85.3874 81.8686 85.1175 81.2431C84.8622 80.612 84.3585 80.1318 83.6062 79.8023C82.7624 79.4327 81.9899 79.3963 81.2888 79.6931C80.6022 79.9842 80.0602 80.5801 79.6627 81.4809C79.2607 82.3917 79.1841 83.1975 79.4329 83.8982C79.6918 84.6034 80.2432 85.1408 81.087 85.5103Z" fill="#7965C1"/>
<path d="M91.8038 92.5589C90.838 92.1359 90.0791 91.5741 89.527 90.8733C88.9896 90.167 88.6862 89.3699 88.6171 88.4821C88.5479 87.5944 88.7254 86.6698 89.1498 85.7083C89.5741 84.7469 90.1284 83.9993 90.8128 83.4658C91.5118 82.9265 92.2969 82.6182 93.1681 82.5408C94.0393 82.4635 94.9527 82.634 95.9083 83.0526C96.8232 83.4533 97.5307 83.9805 98.0307 84.6343C98.5352 85.2779 98.8179 86.0116 98.879 86.8354C98.9546 87.6535 98.7914 88.518 98.3894 89.4289L98.0544 90.1879L90.9178 87.0623C90.6328 87.9278 90.6288 88.6929 90.9056 89.3576C91.1869 90.0122 91.7291 90.5154 92.5322 90.8671C93.1218 91.1254 93.6539 91.2255 94.1283 91.1676C94.6027 91.1097 95.0093 90.8892 95.3482 90.5063L97.4526 91.4279C96.8091 92.2813 95.9877 92.8092 94.9885 93.0117C94.004 93.2085 92.9424 93.0575 91.8038 92.5589ZM91.6153 85.6469L96.7085 87.8775C96.922 87.1739 96.8934 86.5515 96.6228 86.0103C96.3566 85.459 95.8728 85.0297 95.1713 84.7225C94.4698 84.4152 93.8099 84.3436 93.1917 84.5076C92.5779 84.6615 92.0524 85.0412 91.6153 85.6469Z" fill="#7965C1"/>
<path d="M98.5128 95.2798L101.615 88.251L100.563 87.7902L101.481 85.7104L103.646 86.6588L103.009 88.101L103.65 88.3815C104.203 88.0078 104.809 87.8023 105.469 87.765C106.143 87.7221 106.866 87.8698 107.639 88.2082C108.859 88.7425 109.657 89.5029 110.035 90.4894C110.427 91.4702 110.37 92.5325 109.866 93.6761L107.434 99.1868L105.36 98.2785L107.631 93.1322C107.962 92.3832 108.011 91.7224 107.778 91.1496C107.556 90.5812 107.053 90.1256 106.271 89.7828C105.488 89.44 104.806 89.3768 104.225 89.5935C103.644 89.8101 103.189 90.2928 102.858 91.0418L100.587 96.1881L98.5128 95.2798Z" fill="#7965C1"/>
<path d="M113.283 97.1837C113.471 96.7587 113.682 96.4042 113.916 96.1204C114.161 95.8411 114.445 95.6093 114.769 95.4251C115.108 95.2353 115.51 95.0794 115.976 94.9575L117.086 94.6283C117.64 94.4724 118.077 94.3075 118.396 94.1334C118.72 93.9492 118.965 93.6698 119.13 93.2954C119.34 92.8197 119.322 92.3651 119.077 91.9315C118.842 91.5024 118.414 91.1521 117.794 90.8805C117.204 90.6223 116.668 90.5446 116.186 90.6474C115.714 90.7547 115.306 91.047 114.962 91.5243L112.888 90.616C113.495 89.6258 114.29 89.0076 115.272 88.7614C116.269 88.5096 117.372 88.6486 118.582 89.1784C119.395 89.5346 120.043 89.9756 120.527 90.5014C121.015 91.0171 121.317 91.5841 121.432 92.2022C121.558 92.8248 121.473 93.4701 121.178 94.1381C120.919 94.7251 120.557 95.176 120.09 95.491C119.634 95.8104 119.023 96.0805 118.259 96.3012L116.802 96.7142C116.307 96.8474 115.937 96.9992 115.692 97.1696C115.461 97.3344 115.253 97.5996 115.068 97.9651L113.283 97.1837ZM112.369 101.566C112.013 101.41 111.761 101.155 111.614 100.8C111.482 100.441 111.494 100.084 111.65 99.7293C111.811 99.365 112.067 99.1148 112.418 98.9787C112.784 98.837 113.145 98.8441 113.501 98.9999C113.867 99.1602 114.116 99.4203 114.248 99.7802C114.395 100.134 114.388 100.494 114.228 100.858C114.071 101.212 113.81 101.46 113.444 101.602C113.093 101.738 112.735 101.726 112.369 101.566Z" fill="#7965C1"/>
</svg>
