<svg width="34" height="34" viewBox="0 0 34 34" fill="none" xmlns="http://www.w3.org/2000/svg">
<path d="M5.3125 9.91808H28.6875C29.2743 9.91808 29.75 10.3938 29.75 10.9806C29.75 11.5674 29.2743 12.0431 28.6875 12.0431H5.3125C4.7257 12.0431 4.25 11.5674 4.25 10.9806C4.25 10.3938 4.7257 9.91808 5.3125 9.91808Z" fill="#44369D"/>
<path d="M9.5625 15.9389H28.6875C29.2743 15.9389 29.75 16.4146 29.75 17.0014C29.75 17.5882 29.2743 18.0639 28.6875 18.0639H9.5625C8.9757 18.0639 8.5 17.5882 8.5 17.0014C8.5 16.4146 8.9757 15.9389 9.5625 15.9389Z" fill="#44369D"/>
<path d="M5.3125 21.9569H28.6875C29.2743 21.9569 29.75 22.4326 29.75 23.0194C29.75 23.6062 29.2743 24.0819 28.6875 24.0819H5.3125C4.7257 24.0819 4.25 23.6062 4.25 23.0194C4.25 22.4326 4.7257 21.9569 5.3125 21.9569Z" fill="#44369D"/>
</svg>
