<svg width="34" height="34" viewBox="0 0 34 34" fill="none" xmlns="http://www.w3.org/2000/svg">
<path d="M17 18.9833L23.9417 25.925C24.2014 26.1847 24.5319 26.3146 24.9333 26.3146C25.3347 26.3146 25.6653 26.1847 25.925 25.925C26.1847 25.6653 26.3146 25.3347 26.3146 24.9333C26.3146 24.5319 26.1847 24.2014 25.925 23.9417L18.9833 17L25.925 10.0583C26.1847 9.79861 26.3146 9.46806 26.3146 9.06667C26.3146 8.66528 26.1847 8.33472 25.925 8.075C25.6653 7.81528 25.3347 7.68542 24.9333 7.68542C24.5319 7.68542 24.2014 7.81528 23.9417 8.075L17 15.0167L10.0583 8.075C9.7986 7.81528 9.46805 7.68542 9.06666 7.68542C8.66527 7.68542 8.33472 7.81528 8.07499 8.075C7.81527 8.33472 7.68541 8.66528 7.68541 9.06667C7.68541 9.46806 7.81527 9.79861 8.07499 10.0583L15.0167 17L8.07499 23.9417C7.81527 24.2014 7.68541 24.5319 7.68541 24.9333C7.68541 25.3347 7.81527 25.6653 8.07499 25.925C8.33472 26.1847 8.66527 26.3146 9.06666 26.3146C9.46805 26.3146 9.7986 26.1847 10.0583 25.925L17 18.9833Z" fill="#44369D"/>
</svg>
