<svg width="375" height="84" viewBox="0 0 375 84" fill="none" xmlns="http://www.w3.org/2000/svg">
<path d="M186.236 83.1158V0.157227M242.305 83.1158L208.29 0.658709M133.906 83.0328L167.173 0.658709M293.514 83.0328L226.232 0.742289M82.5099 83.1572L149.231 0.742289M345.658 83.0743L242.679 0.742289M29.0581 83.0328L132.785 0.742289M374.626 67.5648L261.742 0.742289M0.83701 67.5648L113.721 0.742289M374.626 39.1475L280.805 0.575126M0.83701 39.1475L94.6581 0.575126M373.879 25.3149L301.737 0.491548M1.58459 25.3149L73.7259 0.491548M375 14.5331L324.538 0.491548M0.463244 14.5331L50.9248 0.491548M373.879 5.50637L346.966 0.491548M1.58461 5.50637L28.4974 0.491548M0.83701 71.3677H374.252M1.0239 61.0743H374.626M1.95838 51.7802H374.626M0 43.9534H374.439M0 30.7477H374.439M1.95838 36.914H374.813M1.95838 25.3149H373.692M0 14.5331H374.626M0 19.8404H374.066M1.2108 10.0866H373.879M1.39769 5.40608H374.439" stroke="url(#paint0_linear_633_1529)" stroke-opacity="0.6"/>
<defs>
<linearGradient id="paint0_linear_633_1529" x1="187.5" y1="0.157227" x2="187.5" y2="83.1572" gradientUnits="userSpaceOnUse">
<stop stop-color="white" stop-opacity="0"/>
<stop offset="0.586538" stop-color="#7965C1"/>
<stop offset="1" stop-color="white"/>
</linearGradient>
</defs>
</svg>
