<svg width="1440" height="208" viewBox="0 0 1440 208" fill="none" xmlns="http://www.w3.org/2000/svg">
<path d="M715.148 206.897V0M930.451 206.897L799.834 1.25069M514.199 206.69L641.945 1.25069M1127.09 206.69L868.731 1.45913M316.838 207L573.048 1.45913M1327.32 206.793L931.886 1.45913M111.583 206.69L509.893 1.45913M1438.56 168.113L1005.09 1.45913M3.21412 168.113L436.69 1.45913M1438.56 97.2408L1078.29 1.04223M3.21412 97.2408L363.487 1.04223M1435.69 62.7427L1158.67 0.83379M6.08482 62.7427L283.107 0.83379M1440 35.853L1246.23 0.83379M1.77886 35.853L195.551 0.83379M1435.69 13.3406L1332.35 0.83379M6.08491 13.3406L109.43 0.83379M3.21412 177.597H1437.13M3.9318 151.926H1438.56M7.52017 128.746H1438.56M0 109.227H1437.85M0 76.2918H1437.85M7.52017 91.6706H1439.28M7.52017 62.7427H1434.98M0 35.853H1438.56M0 49.0894H1436.41M4.64947 24.7636H1435.69M5.36715 13.0905H1437.85" stroke="url(#paint0_linear_678_2040)" stroke-opacity="0.6"/>
<defs>
<linearGradient id="paint0_linear_678_2040" x1="720" y1="0" x2="720" y2="207" gradientUnits="userSpaceOnUse">
<stop stop-color="white" stop-opacity="0"/>
<stop offset="0.586538" stop-color="#7965C1"/>
<stop offset="1" stop-color="white"/>
</linearGradient>
</defs>
</svg>
