<svg width="60" height="61" viewBox="0 0 60 61" fill="none" xmlns="http://www.w3.org/2000/svg">
<path d="M1.28035 30.135C1.27894 35.2602 2.60644 40.2645 5.13066 44.6754L1.03894 59.7462L16.3277 55.7023C20.5564 58.0245 25.2943 59.2413 30.109 59.2417H30.1216C46.0158 59.2417 58.954 46.1945 58.9608 30.1579C58.9638 22.387 55.9666 15.0798 50.5212 9.58222C45.0766 4.08512 37.8356 1.05616 30.1205 1.05261C14.2244 1.05261 1.28714 14.0991 1.28058 30.135" fill="#34C759" fill-opacity="0.8"/>
<path d="M22.6586 17.531C22.0994 16.2772 21.5109 16.2519 20.9791 16.2299C20.5436 16.211 20.0458 16.2124 19.5484 16.2124C19.0506 16.2124 18.2418 16.4013 17.5581 17.1544C16.8738 17.9081 14.9453 19.7296 14.9453 23.4343C14.9453 27.139 17.6202 30.7195 17.9931 31.2224C18.3665 31.7244 23.1571 39.5702 30.7443 42.5885C37.0499 45.0968 38.3332 44.598 39.7017 44.4722C41.0704 44.3469 44.1182 42.6512 44.74 40.8928C45.3623 39.1347 45.3623 37.6277 45.1757 37.3127C44.9892 36.999 44.4914 36.8105 43.7449 36.4341C42.9984 36.0577 39.3283 34.2358 38.6442 33.9845C37.9598 33.7334 37.4622 33.6081 36.9644 34.362C36.4666 35.1148 35.0371 36.8105 34.6014 37.3127C34.1662 37.8161 33.7305 37.8788 32.9842 37.5021C32.2373 37.1243 29.8333 36.3301 26.9812 33.765C24.7621 31.7691 23.264 29.3042 22.8285 28.5503C22.3931 27.7975 22.7819 27.3894 23.1562 27.0141C23.4916 26.6768 23.9029 26.1348 24.2765 25.6953C24.6487 25.2556 24.7729 24.9418 25.0218 24.4396C25.271 23.937 25.1463 23.4972 24.9599 23.1206C24.7729 22.7439 23.3224 19.0198 22.6586 17.531Z" fill="white"/>
</svg>
